<?xml version="1.0" standalone="no"?>
<!DOCTYPE svg PUBLIC "-//W3C//DTD SVG 20010904//EN"
 "http://www.w3.org/TR/2001/REC-SVG-20010904/DTD/svg10.dtd">
<svg version="1.0" xmlns="http://www.w3.org/2000/svg"
 width="2400.000000pt" height="2400.000000pt" viewBox="0 0 2400.000000 2400.000000"
 preserveAspectRatio="xMidYMid meet">
<metadata>
Created by potrace 1.14, written by Peter Selinger 2001-2017
</metadata>
<g transform="translate(0.000000,2400.000000) scale(0.100000,-0.100000)"
fill="#000000" stroke="none">
<path d="M11640 23993 c-3418 -93 -6622 -1636 -8835 -4255 -602 -712 -1126
-1504 -1550 -2343 -605 -1198 -1006 -2506 -1179 -3840 -71 -544 -71 -552 -71
-1555 0 -1003 0 -1011 71 -1555 294 -2275 1244 -4427 2729 -6183 418 -495 921
-1000 1398 -1404 2517 -2131 5722 -3124 9007 -2792 1897 191 3739 847 5345
1902 2301 1511 4016 3768 4852 6387 711 2229 750 4674 108 6930 -556 1956
-1605 3741 -3045 5185 -1546 1550 -3467 2641 -5577 3169 -1049 263 -2163 384
-3253 354z m740 -1123 c424 -17 804 -52 1195 -111 2871 -425 5462 -2000 7190
-4369 1578 -2163 2298 -4830 2025 -7500 -174 -1694 -749 -3333 -1673 -4764
-928 -1439 -2199 -2657 -3670 -3519 -2567 -1504 -5642 -1885 -8501 -1053
-2452 714 -4580 2277 -6012 4416 -867 1295 -1436 2731 -1689 4260 -102 618
-140 1096 -140 1770 0 463 7 630 41 995 165 1800 777 3528 1779 5025 424 634
822 1118 1370 1665 522 523 1004 922 1600 1327 1899 1290 4206 1951 6485 1858z"/>
<path d="M11260 22219 c-1559 -103 -3179 -623 -4615 -1482 -1005 -601 -1854
-1333 -2489 -2146 -65 -83 -117 -154 -114 -156 2 -2 33 16 68 41 208 145 551
335 776 430 889 372 1797 419 2782 143 868 -243 1777 -751 2607 -1458 399
-339 820 -775 982 -1016 212 -316 263 -757 143 -1235 -70 -275 -183 -539 -320
-747 -74 -113 -136 -169 -242 -221 -380 -184 -1019 -265 -1231 -156 -94 49
-349 316 -776 814 -357 416 -433 501 -621 694 -463 473 -904 767 -1390 924
-952 307 -2111 103 -3578 -632 -224 -112 -555 -291 -732 -396 l-105 -62 50 7
c28 4 176 31 330 61 752 147 1094 169 1371 88 245 -71 424 -231 490 -438 22
-68 26 -100 26 -196 0 -218 -56 -409 -300 -1025 -163 -412 -237 -616 -302
-825 -273 -889 -300 -1703 -85 -2555 108 -426 305 -919 529 -1325 25 -44 40
-80 34 -80 -6 0 -144 59 -307 132 -496 220 -813 340 -1066 404 -93 24 -131 28
-245 28 -150 1 -193 -10 -284 -73 -138 -95 -188 -281 -136 -513 61 -278 225
-496 625 -828 943 -786 2026 -2182 2175 -2804 33 -135 23 -225 -32 -283 -50
-53 -185 -61 -314 -18 -309 103 -764 506 -1310 1160 -507 608 -1139 1517
-1428 2055 -63 118 -63 103 1 -85 303 -883 838 -1839 1623 -2900 353 -477 719
-808 1095 -990 331 -160 640 -233 881 -206 350 38 580 192 724 485 66 132 91
231 97 381 17 387 -149 816 -548 1413 -291 434 -699 915 -1073 1264 -397 371
-788 651 -1556 1118 -488 296 -580 367 -580 449 0 32 48 80 93 92 88 24 297
-31 586 -153 172 -73 671 -321 890 -443 766 -427 1634 -1249 2225 -2109 269
-390 493 -836 590 -1174 68 -237 92 -462 67 -633 -58 -394 -320 -752 -716
-978 -209 -119 -494 -200 -710 -201 l-70 0 25 -21 c232 -188 678 -499 970
-676 1496 -905 3279 -1387 5135 -1387 1377 0 2733 269 3952 785 739 313 1494
759 2098 1238 l73 58 -112 6 c-487 26 -978 321 -1222 733 -129 219 -189 478
-164 714 45 426 263 942 630 1490 488 730 1239 1491 1925 1951 363 244 1088
610 1461 739 264 91 393 88 434 -9 10 -24 9 -35 -5 -65 -35 -73 -143 -150
-600 -426 -463 -280 -747 -469 -1055 -701 -465 -351 -944 -842 -1354 -1389
-386 -515 -621 -963 -708 -1352 -20 -88 -23 -130 -22 -288 0 -172 2 -191 27
-273 78 -252 227 -438 432 -537 299 -146 604 -142 1014 11 350 131 599 296
897 594 192 192 327 356 565 690 721 1010 1192 1869 1478 2699 28 82 50 153
48 159 -1 5 -29 -40 -61 -100 -311 -576 -984 -1528 -1524 -2156 -605 -704
-1061 -1058 -1363 -1059 -253 -1 -274 205 -65 637 212 439 668 1071 1185 1644
311 345 527 556 870 849 113 97 243 215 289 261 225 228 343 462 359 707 12
192 -57 328 -205 403 -241 121 -597 32 -1539 -384 -167 -74 -307 -135 -312
-135 -4 0 49 114 118 253 150 300 239 510 331 787 114 339 195 707 232 1055
20 184 17 724 -5 905 -67 551 -185 976 -474 1705 -278 703 -328 871 -327 1105
0 109 3 135 27 203 36 103 79 168 165 249 160 151 326 211 617 224 265 12 484
-16 1239 -160 104 -20 194 -35 199 -33 23 7 -612 355 -938 513 -1633 792
-2880 919 -3880 395 -310 -162 -565 -353 -869 -651 -214 -209 -340 -347 -655
-714 -357 -418 -470 -543 -657 -727 -149 -146 -163 -157 -224 -178 -265 -87
-870 3 -1211 180 -104 54 -157 103 -227 207 -154 232 -282 553 -349 875 -24
120 -27 153 -27 357 -1 201 2 236 22 329 57 254 145 418 350 649 308 350 645
668 1042 984 508 404 1073 752 1595 983 1164 515 2262 598 3285 247 334 -115
650 -270 950 -466 69 -45 138 -91 155 -102 l30 -19 -35 49 c-60 84 -272 345
-391 481 -137 158 -551 572 -709 711 -658 577 -1352 1046 -2150 1451 -1073
545 -2238 908 -3360 1047 -443 55 -512 59 -1215 61 -363 2 -721 -1 -795 -6z
m-3830 -7926 c278 -75 340 -409 168 -913 -46 -136 -185 -422 -259 -535 -145
-220 -321 -316 -528 -287 -159 23 -238 63 -406 209 -60 52 -144 115 -185 139
-126 74 -309 124 -457 124 -182 0 -549 -77 -678 -142 -72 -37 -123 -80 -146
-123 -21 -40 -22 -46 -10 -116 40 -245 227 -410 639 -563 184 -68 281 -85 570
-97 272 -11 390 -26 500 -63 109 -37 179 -81 262 -165 170 -171 239 -345 196
-494 -25 -85 -37 -90 -230 -98 -89 -4 -187 -8 -218 -8 -32 -1 -58 -5 -58 -9 0
-4 28 -51 63 -103 227 -345 356 -806 357 -1274 0 -324 38 -713 140 -1440 27
-192 54 -403 61 -468 13 -134 9 -431 -7 -447 -23 -23 -209 264 -289 448 -172
391 -253 801 -325 1637 -31 363 -48 508 -76 645 -94 469 -300 946 -490 1133
-107 106 -208 164 -482 276 -92 38 -196 82 -232 99 -147 66 -389 252 -586 447
-311 309 -368 507 -229 791 98 201 271 320 645 444 312 104 490 139 745 147
282 9 482 -27 790 -142 126 -47 246 -85 268 -85 3 0 -16 32 -43 72 -152 220
-180 532 -68 752 25 48 101 131 149 161 105 67 302 88 449 48z m9500 6 c167
-28 296 -162 346 -359 23 -91 15 -288 -16 -385 -29 -90 -72 -176 -122 -243
l-40 -53 39 7 c21 4 94 27 163 51 419 150 505 168 810 168 174 -1 248 -5 325
-19 360 -66 741 -200 909 -320 83 -59 174 -158 213 -232 43 -81 75 -201 75
-285 0 -232 -204 -492 -642 -818 -136 -102 -219 -146 -440 -236 -290 -118
-413 -188 -522 -297 -177 -177 -368 -599 -463 -1023 -38 -169 -60 -336 -90
-670 -48 -541 -81 -804 -130 -1045 -72 -351 -167 -626 -300 -861 -65 -114
-180 -274 -189 -261 -17 28 -28 170 -23 302 7 164 18 255 87 740 86 608 114
893 129 1330 11 295 27 423 76 616 63 245 155 459 278 642 38 57 67 105 65
107 -1 2 -103 7 -224 12 -260 11 -264 12 -290 100 -61 209 151 538 413 642
133 52 236 67 556 81 278 11 378 29 559 96 254 95 389 171 500 284 107 109
177 287 148 375 -25 76 -141 149 -317 200 -274 80 -560 102 -736 57 -163 -41
-274 -102 -441 -245 -155 -132 -237 -175 -387 -198 -212 -33 -380 56 -526 278
-77 117 -225 426 -272 569 -122 367 -117 647 14 792 93 103 250 137 465 101z
m-8150 -1450 c108 -13 278 -68 359 -116 84 -50 187 -146 260 -243 32 -43 114
-167 181 -275 187 -301 277 -413 448 -556 137 -114 272 -202 446 -290 l151
-75 17 -53 c93 -285 6 -847 -219 -1421 -89 -227 -157 -358 -408 -785 -165
-281 -238 -416 -314 -581 -159 -345 -255 -679 -296 -1029 -18 -151 -22 -514
-7 -642 4 -40 7 -73 5 -73 -6 0 -243 361 -348 530 -173 279 -394 672 -544 970
-184 365 -233 474 -431 965 -141 350 -262 863 -329 1390 -41 322 -54 522 -55
845 -1 307 0 319 28 465 75 394 190 646 358 786 117 97 305 169 503 192 62 8
113 7 195 -4z m6600 1 c184 -24 385 -105 488 -195 185 -165 307 -455 368 -879
14 -100 16 -169 11 -445 -7 -419 -33 -690 -108 -1119 -72 -418 -187 -830 -316
-1132 -25 -58 -60 -143 -78 -190 -163 -427 -488 -1058 -832 -1618 -121 -198
-363 -566 -367 -561 -2 2 1 49 6 104 15 153 3 524 -22 690 -77 509 -239 927
-578 1489 -256 425 -360 627 -461 897 -203 545 -278 1065 -193 1345 l17 57
160 81 c183 93 330 190 461 305 164 143 217 212 526 688 176 271 309 381 543
448 151 43 245 51 375 35z m-3247 -2869 c185 -48 296 -136 631 -505 268 -295
346 -385 482 -555 481 -601 790 -1178 886 -1651 29 -147 32 -405 5 -514 -53
-212 -150 -363 -332 -514 -238 -199 -487 -325 -758 -384 -87 -19 -132 -22
-307 -22 -184 0 -218 3 -330 27 -184 39 -211 49 -242 88 -79 99 -71 298 22
529 37 91 108 176 204 244 127 90 225 126 492 181 259 52 316 83 374 201 60
122 52 239 -25 359 -107 168 -230 206 -480 150 -308 -69 -520 -174 -705 -348
l-61 -58 -55 53 c-223 213 -601 371 -889 373 -101 0 -114 -2 -161 -27 -61 -32
-119 -95 -162 -177 -60 -111 -62 -215 -6 -328 56 -115 117 -148 372 -198 328
-65 475 -133 612 -282 88 -96 149 -263 157 -434 7 -122 -9 -188 -58 -244 -26
-29 -43 -37 -137 -59 -193 -45 -241 -51 -437 -51 -161 0 -206 4 -293 23 -288
64 -528 186 -774 391 -157 132 -245 264 -304 456 -26 85 -28 101 -28 280 -1
204 6 252 65 463 58 205 197 513 346 764 139 235 369 563 561 796 191 234 629
711 731 797 205 173 397 229 604 176z m-1233 -4296 c36 -4 193 -24 349 -46
654 -91 842 -91 1461 -4 135 19 298 41 362 49 172 21 209 6 230 -95 22 -109
-37 -221 -170 -320 -197 -146 -642 -302 -1015 -355 -122 -18 -132 -18 -250 -1
-233 34 -530 116 -732 202 -282 121 -431 253 -452 400 -7 52 11 127 37 150 22
20 68 34 95 29 11 -1 49 -6 85 -9z"/>
<path d="M8490 12281 c-87 -27 -188 -130 -248 -254 -52 -106 -65 -170 -60
-293 3 -89 7 -107 40 -177 47 -98 123 -176 210 -217 37 -17 125 -42 213 -60
189 -38 288 -71 362 -119 69 -44 92 -73 198 -244 135 -217 195 -281 260 -275
28 3 31 7 43 63 8 41 11 115 8 230 -3 140 -9 188 -30 272 -80 320 -275 653
-504 864 -180 165 -371 247 -492 210z"/>
<path d="M15280 12272 c-314 -105 -650 -511 -793 -957 -63 -198 -83 -410 -56
-588 12 -77 19 -87 61 -87 54 0 133 95 291 351 108 174 200 225 537 294 147
31 226 65 295 127 208 190 203 526 -13 759 -36 38 -83 79 -106 91 -56 29 -147
33 -216 10z"/>
</g>
</svg>
