<?xml version="1.0" encoding="UTF-8"?>
<!DOCTYPE svg PUBLIC "-//W3C//DTD SVG 1.1//EN" "http://www.w3.org/Graphics/SVG/1.1/DTD/svg11.dtd">
<svg xmlns="http://www.w3.org/2000/svg" version="1.1" width="1920px" height="1080px" style="shape-rendering:geometricPrecision; text-rendering:geometricPrecision; image-rendering:optimizeQuality; fill-rule:evenodd; clip-rule:evenodd" xmlns:xlink="http://www.w3.org/1999/xlink">
<g><path style="opacity:1" fill="#bd3133" d="M -0.5,-0.5 C 6.5,-0.5 13.5,-0.5 20.5,-0.5C 13.8246,6.17456 6.82461,12.5079 -0.5,18.5C -0.5,12.1667 -0.5,5.83333 -0.5,-0.5 Z"/></g>
<g><path style="opacity:1" fill="#ca4a41" d="M 20.5,-0.5 C 55.8333,-0.5 91.1667,-0.5 126.5,-0.5C 140.669,46.5063 155.336,93.3396 170.5,140C 169.906,140.464 169.239,140.631 168.5,140.5C 112.075,116.123 55.7422,91.4563 -0.5,66.5C -0.5,50.5 -0.5,34.5 -0.5,18.5C 6.82461,12.5079 13.8246,6.17456 20.5,-0.5 Z"/></g>
<g><path style="opacity:1" fill="#d05647" d="M 126.5,-0.5 C 144.833,-0.5 163.167,-0.5 181.5,-0.5C 197.257,16.5929 213.923,32.5929 231.5,47.5C 231.5,47.8333 231.5,48.1667 231.5,48.5C 230.833,48.5 230.5,48.8333 230.5,49.5C 211.863,78.3259 193.363,107.326 175,136.5C 173.951,138.618 172.451,140.284 170.5,141.5C 169.508,141.672 168.842,141.338 168.5,140.5C 169.239,140.631 169.906,140.464 170.5,140C 155.336,93.3396 140.669,46.5063 126.5,-0.5 Z"/></g>
<g><path style="opacity:1" fill="#ce5245" d="M 181.5,-0.5 C 215.833,-0.5 250.167,-0.5 284.5,-0.5C 267.064,15.7243 249.397,31.7243 231.5,47.5C 213.923,32.5929 197.257,16.5929 181.5,-0.5 Z"/></g>
<g><path style="opacity:1" fill="#da6b56" d="M 284.5,-0.5 C 326.833,-0.5 369.167,-0.5 411.5,-0.5C 406.159,37.8775 400.493,76.2108 394.5,114.5C 340.245,92.6493 285.912,70.6493 231.5,48.5C 231.5,48.1667 231.5,47.8333 231.5,47.5C 249.397,31.7243 267.064,15.7243 284.5,-0.5 Z"/></g>
<g><path style="opacity:1" fill="#e27d62" d="M 411.5,-0.5 C 445.833,-0.5 480.167,-0.5 514.5,-0.5C 534.404,22.3139 554.07,45.3139 573.5,68.5C 513.858,83.6611 454.191,98.9944 394.5,114.5C 400.493,76.2108 406.159,37.8775 411.5,-0.5 Z"/></g>
<g><path style="opacity:1" fill="#e27f67" d="M 514.5,-0.5 C 541.167,-0.5 567.833,-0.5 594.5,-0.5C 587.428,22.383 580.761,45.383 574.5,68.5C 574.167,68.5 573.833,68.5 573.5,68.5C 554.07,45.3139 534.404,22.3139 514.5,-0.5 Z"/></g>
<g><path style="opacity:1" fill="#ec977d" d="M 594.5,-0.5 C 602.833,-0.5 611.167,-0.5 619.5,-0.5C 652.998,40.9048 686.665,82.2381 720.5,123.5C 671.833,105.167 623.167,86.8333 574.5,68.5C 580.761,45.383 587.428,22.383 594.5,-0.5 Z"/></g>
<g><path style="opacity:1" fill="#ea957f" d="M 619.5,-0.5 C 651.833,-0.5 684.167,-0.5 716.5,-0.5C 717.925,40.8432 719.591,82.1766 721.5,123.5C 721.167,123.5 720.833,123.5 720.5,123.5C 686.665,82.2381 652.998,40.9048 619.5,-0.5 Z"/></g>
<g><path style="opacity:1" fill="#eea08b" d="M 716.5,-0.5 C 738.5,-0.5 760.5,-0.5 782.5,-0.5C 808.719,20.3414 835.385,41.0081 862.5,61.5C 862.5,61.8333 862.5,62.1667 862.5,62.5C 815.833,83.1667 769.167,103.833 722.5,124.5C 721.833,124.5 721.5,124.167 721.5,123.5C 719.591,82.1766 717.925,40.8432 716.5,-0.5 Z"/></g>
<g><path style="opacity:1" fill="#e99787" d="M 782.5,-0.5 C 804.833,-0.5 827.167,-0.5 849.5,-0.5C 853.726,19.9352 858.059,40.6018 862.5,61.5C 835.385,41.0081 808.719,20.3414 782.5,-0.5 Z"/></g>
<g><path style="opacity:1" fill="#e6998f" d="M 849.5,-0.5 C 873.5,-0.5 897.5,-0.5 921.5,-0.5C 902.57,20.7662 882.903,41.4328 862.5,61.5C 858.059,40.6018 853.726,19.9352 849.5,-0.5 Z"/></g>
<g><path style="opacity:1" fill="#e8a69b" d="M 958.5,-0.5 C 1002.5,-0.5 1046.5,-0.5 1090.5,-0.5C 1109.17,36.8333 1127.83,74.1667 1146.5,111.5C 1145.21,112.158 1143.71,112.492 1142,112.5C 1089.18,110.227 1036.34,108.227 983.5,106.5C 981.5,105.833 979.5,105.167 977.5,104.5C 977.249,102.83 976.582,101.33 975.5,100C 977.167,98.3333 978.833,96.6667 980.5,95C 979.246,93.3128 977.58,91.3128 975.5,89C 977.569,88.6758 977.902,87.8425 976.5,86.5C 977.522,85.646 978.355,84.646 979,83.5C 979.718,84.4506 980.551,84.6172 981.5,84C 979.921,82.046 978.921,79.546 978.5,76.5C 980.231,73.7612 981.397,74.0945 982,77.5C 982.17,75.2852 982.837,73.2852 984,71.5C 985.756,72.4213 985.923,73.588 984.5,75C 984.862,76.2247 985.362,77.3914 986,78.5C 986.5,77.3333 987.333,76.5 988.5,76C 987.833,75.6667 987.167,75.3333 986.5,75C 989.763,74.1305 990.096,72.7972 987.5,71C 988.167,70.6667 988.833,70.3333 989.5,70C 988.826,68.2494 988.493,66.5827 988.5,65C 992.376,63.0404 993.209,60.2071 991,56.5C 990.667,56.8333 990.333,57.1667 990,57.5C 988.954,55.9095 987.787,54.4095 986.5,53C 987.308,52.6924 987.975,52.1924 988.5,51.5C 987.019,50.5197 985.685,49.353 984.5,48C 986.822,46.3078 987.322,44.4744 986,42.5C 984.956,43.6226 984.29,44.9559 984,46.5C 982.638,47.9247 981.138,48.758 979.5,49C 984.157,52.2964 984.157,55.1298 979.5,57.5C 977.629,57.1412 976.129,56.1412 975,54.5C 973.134,57.1591 971.967,56.8258 971.5,53.5C 973.441,52.3622 973.608,50.6955 972,48.5C 971.667,49.5 971.333,50.5 971,51.5C 969.667,49.8333 968.333,48.1667 967,46.5C 964.442,48.9434 963.608,48.4434 964.5,45C 961.536,42.0981 959.702,38.5981 959,34.5C 958.147,36.1247 957.147,36.4581 956,35.5C 955.085,36.3279 954.419,37.3279 954,38.5C 953.5,37.5 953,36.5 952.5,35.5C 951.726,34.2888 950.893,34.2888 950,35.5C 948.148,33.7703 948.314,32.6036 950.5,32C 950.167,31.6667 949.833,31.3333 949.5,31C 950.573,29.6871 951.24,28.1871 951.5,26.5C 951.55,22.8536 951.216,19.3536 950.5,16C 951.253,14.513 952.086,14.3463 953,15.5C 955.421,18.0391 956.921,20.7058 957.5,23.5C 958.5,23.1667 959.167,22.5 959.5,21.5C 958.754,20.2638 958.421,18.9305 958.5,17.5C 957.448,17.6495 956.448,17.4828 955.5,17C 957.484,15.1971 959.484,14.1971 961.5,14C 959.571,13.6499 957.571,12.9832 955.5,12C 956.672,11.5814 957.672,10.9147 958.5,10C 955.665,8.56005 955.165,6.72672 957,4.5C 957.333,5.16667 957.667,5.83333 958,6.5C 958.465,5.06919 959.299,3.90252 960.5,3C 959.747,1.51299 958.914,1.34633 958,2.5C 957.53,1.42317 957.697,0.423175 958.5,-0.5 Z"/></g>
<g><path style="opacity:1" fill="#de9c95" d="M 1090.5,-0.5 C 1125.5,-0.5 1160.5,-0.5 1195.5,-0.5C 1179.83,36.8333 1164.17,74.1667 1148.5,111.5C 1148.5,111.833 1148.5,112.167 1148.5,112.5C 1147.83,112.167 1147.17,111.833 1146.5,111.5C 1127.83,74.1667 1109.17,36.8333 1090.5,-0.5 Z"/></g>
<g><path style="opacity:1" fill="#dba49c" d="M 1195.5,-0.5 C 1212.5,-0.5 1229.5,-0.5 1246.5,-0.5C 1275.22,38.22 1303.55,77.22 1331.5,116.5C 1270.59,115.076 1209.59,113.409 1148.5,111.5C 1164.17,74.1667 1179.83,36.8333 1195.5,-0.5 Z"/></g>
<g><path style="opacity:1" fill="#ce9591" d="M 1246.5,-0.5 C 1283.83,-0.5 1321.17,-0.5 1358.5,-0.5C 1350.16,38.8421 1341.83,78.1755 1333.5,117.5C 1333.5,117.833 1333.5,118.167 1333.5,118.5C 1332.83,117.833 1332.17,117.167 1331.5,116.5C 1303.55,77.22 1275.22,38.22 1246.5,-0.5 Z"/></g>
<g><path style="opacity:1" fill="#c79592" d="M 1358.5,-0.5 C 1380.5,-0.5 1402.5,-0.5 1424.5,-0.5C 1433.56,18.6275 1442.9,37.6275 1452.5,56.5C 1452.5,56.8333 1452.5,57.1667 1452.5,57.5C 1412.7,77.2311 1373.04,97.2311 1333.5,117.5C 1341.83,78.1755 1350.16,38.8421 1358.5,-0.5 Z"/></g>
<g><path style="opacity:1" fill="#bc8889" d="M 1424.5,-0.5 C 1440.5,-0.5 1456.5,-0.5 1472.5,-0.5C 1466.36,18.5854 1460.03,37.5854 1453.5,56.5C 1453.17,56.5 1452.83,56.5 1452.5,56.5C 1442.9,37.6275 1433.56,18.6275 1424.5,-0.5 Z"/></g>
<g><path style="opacity:1" fill="#b7888b" d="M 1472.5,-0.5 C 1500.17,-0.5 1527.83,-0.5 1555.5,-0.5C 1574.92,24.6513 1594.58,49.6513 1614.5,74.5C 1560.74,68.9049 1507.08,62.9049 1453.5,56.5C 1460.03,37.5854 1466.36,18.5854 1472.5,-0.5 Z"/></g>
<g><path style="opacity:1" fill="#ae7d85" d="M 1555.5,-0.5 C 1576.5,-0.5 1597.5,-0.5 1618.5,-0.5C 1617.23,23.9937 1616.23,48.9937 1615.5,74.5C 1615.5,75.1667 1615.5,75.8333 1615.5,76.5C 1614.83,76.5 1614.5,76.1667 1614.5,75.5C 1614.5,75.1667 1614.5,74.8333 1614.5,74.5C 1594.58,49.6513 1574.92,24.6513 1555.5,-0.5 Z"/></g>
<g><path style="opacity:1" fill="#a47782" d="M 1618.5,-0.5 C 1650.5,-0.5 1682.5,-0.5 1714.5,-0.5C 1681.83,24.5 1649.17,49.5 1616.5,74.5C 1616.17,74.5 1615.83,74.5 1615.5,74.5C 1616.23,48.9937 1617.23,23.9937 1618.5,-0.5 Z"/></g>
<g><path style="opacity:1" fill="#a67c89" d="M 1714.5,-0.5 C 1725.83,-0.5 1737.17,-0.5 1748.5,-0.5C 1750.59,40.4259 1752.92,81.0926 1755.5,121.5C 1708.9,106.411 1662.57,90.7443 1616.5,74.5C 1649.17,49.5 1681.83,24.5 1714.5,-0.5 Z"/></g>
<g><path style="opacity:1" fill="#9f7182" d="M 1748.5,-0.5 C 1763.83,-0.5 1779.17,-0.5 1794.5,-0.5C 1835.97,22.0716 1877.64,44.405 1919.5,66.5C 1919.5,75.1667 1919.5,83.8333 1919.5,92.5C 1865.32,101.945 1810.99,111.945 1756.5,122.5C 1756.17,122.5 1755.83,122.5 1755.5,122.5C 1755.5,122.167 1755.5,121.833 1755.5,121.5C 1752.92,81.0926 1750.59,40.4259 1748.5,-0.5 Z"/></g>
<g><path style="opacity:1" fill="#976279" d="M 1794.5,-0.5 C 1836.17,-0.5 1877.83,-0.5 1919.5,-0.5C 1919.5,21.8333 1919.5,44.1667 1919.5,66.5C 1877.64,44.405 1835.97,22.0716 1794.5,-0.5 Z"/></g>
<g><path style="opacity:1" fill="#eca799" d="M 970.5,2.5 C 972.068,4.9312 973.568,4.9312 975,2.5C 976.161,3.9953 977.327,5.4953 978.5,7C 975.84,8.67593 975.84,10.3426 978.5,12C 976.109,12.6914 976.109,13.6914 978.5,15C 977.335,16.0836 976.002,16.9169 974.5,17.5C 973.174,13.9362 971.34,10.6029 969,7.5C 968.36,5.45675 968.86,3.79008 970.5,2.5 Z"/></g>
<g><path style="opacity:1" fill="#eca799" d="M 982.5,2.5 C 983.79,3.05773 984.623,4.05773 985,5.5C 985.869,2.23739 987.203,1.90406 989,4.5C 990.458,2.476 992.291,2.30933 994.5,4C 993.687,5.31386 992.687,6.48052 991.5,7.5C 991.403,9.74852 991.57,12.0819 992,14.5C 991.586,14.0426 991.086,13.7093 990.5,13.5C 989.719,14.7366 988.719,15.7366 987.5,16.5C 985.833,15.6667 984.167,14.8333 982.5,14C 983.516,12.3232 984.516,10.6565 985.5,9C 984.276,5.81632 983.109,5.98298 982,9.5C 980.495,6.77245 980.662,4.43912 982.5,2.5 Z"/></g>
<g><path style="opacity:1" fill="#eba699" d="M 986.5,22.5 C 990.129,23.5016 990.129,25.0016 986.5,27C 988.5,29 990.5,31 992.5,33C 991.853,34.6095 991.02,36.1095 990,37.5C 987.925,34.9719 987.092,35.1386 987.5,38C 985.5,40 983.5,40 981.5,38C 982.458,36.8525 982.125,35.8525 980.5,35C 982.513,33.2087 982.513,31.8753 980.5,31C 981.57,27.9998 983.57,25.1665 986.5,22.5 Z"/></g>
<g><path style="opacity:1" fill="#eca698" d="M 994.5,25.5 C 996.225,26.278 997.891,26.6114 999.5,26.5C 997.668,28.2982 997.335,30.1315 998.5,32C 997.833,32.6667 997.167,32.6667 996.5,32C 995.547,30.0448 994.213,28.3782 992.5,27C 993.416,26.7216 994.082,26.2216 994.5,25.5 Z"/></g>
<g><path style="opacity:1" fill="#eba79a" d="M 921.5,-0.5 C 933.833,-0.5 946.167,-0.5 958.5,-0.5C 957.697,0.423175 957.53,1.42317 958,2.5C 958.914,1.34633 959.747,1.51299 960.5,3C 959.299,3.90252 958.465,5.06919 958,6.5C 957.667,5.83333 957.333,5.16667 957,4.5C 955.165,6.72672 955.665,8.56005 958.5,10C 957.672,10.9147 956.672,11.5814 955.5,12C 957.571,12.9832 959.571,13.6499 961.5,14C 959.484,14.1971 957.484,15.1971 955.5,17C 956.448,17.4828 957.448,17.6495 958.5,17.5C 958.421,18.9305 958.754,20.2638 959.5,21.5C 959.167,22.5 958.5,23.1667 957.5,23.5C 956.921,20.7058 955.421,18.0391 953,15.5C 952.086,14.3463 951.253,14.513 950.5,16C 951.216,19.3536 951.55,22.8536 951.5,26.5C 951.24,28.1871 950.573,29.6871 949.5,31C 949.833,31.3333 950.167,31.6667 950.5,32C 948.314,32.6036 948.148,33.7703 950,35.5C 950.893,34.2888 951.726,34.2888 952.5,35.5C 953,36.5 953.5,37.5 954,38.5C 954.419,37.3279 955.085,36.3279 956,35.5C 957.147,36.4581 958.147,36.1247 959,34.5C 959.702,38.5981 961.536,42.0981 964.5,45C 963.608,48.4434 964.442,48.9434 967,46.5C 968.333,48.1667 969.667,49.8333 971,51.5C 971.333,50.5 971.667,49.5 972,48.5C 973.608,50.6955 973.441,52.3622 971.5,53.5C 968.93,54.484 968.93,55.6507 971.5,57C 971.537,58.949 971.037,60.7824 970,62.5C 968.667,61.1667 967.333,59.8333 966,58.5C 966.617,56.9052 966.284,55.5719 965,54.5C 964.993,56.6193 963.826,58.4526 961.5,60C 962.715,62.0955 963.549,61.9288 964,59.5C 964.645,60.646 965.478,61.646 966.5,62.5C 965.483,65.028 964.316,65.028 963,62.5C 961.366,63.9904 961.699,65.3237 964,66.5C 964.72,68.1124 964.554,69.6124 963.5,71C 968.39,72.0952 968.39,72.7619 963.5,73C 961.5,75.6667 959.5,78.3333 957.5,81C 960.71,82.1815 961.21,84.0148 959,86.5C 958.363,84.6969 957.197,83.3636 955.5,82.5C 954.808,83.0253 954.308,83.6919 954,84.5C 953.16,81.5363 952.16,81.203 951,83.5C 950.07,81.4547 948.57,80.6213 946.5,81C 949.482,84.8089 953.149,87.6423 957.5,89.5C 956.902,92.6183 958.235,94.9516 961.5,96.5C 962.243,95.0921 963.077,93.7588 964,92.5C 969.123,97.7652 969.623,97.2652 965.5,91C 966.453,89.0448 967.787,87.3782 969.5,86C 967.613,85.8374 966.113,86.6707 965,88.5C 962.979,86.3488 963.479,84.8488 966.5,84C 965.833,83 965.167,82 964.5,81C 966.463,78.2876 969.296,75.7876 973,73.5C 974.631,71.0446 974.797,68.5446 973.5,66C 976.92,64.0931 978.92,61.2597 979.5,57.5C 984.157,55.1298 984.157,52.2964 979.5,49C 981.138,48.758 982.638,47.9247 984,46.5C 984.29,44.9559 984.956,43.6226 986,42.5C 987.322,44.4744 986.822,46.3078 984.5,48C 985.685,49.353 987.019,50.5197 988.5,51.5C 987.975,52.1924 987.308,52.6924 986.5,53C 987.787,54.4095 988.954,55.9095 990,57.5C 990.333,57.1667 990.667,56.8333 991,56.5C 993.209,60.2071 992.376,63.0404 988.5,65C 988.493,66.5827 988.826,68.2494 989.5,70C 988.833,70.3333 988.167,70.6667 987.5,71C 990.096,72.7972 989.763,74.1305 986.5,75C 987.167,75.3333 987.833,75.6667 988.5,76C 987.333,76.5 986.5,77.3333 986,78.5C 985.362,77.3914 984.862,76.2247 984.5,75C 985.923,73.588 985.756,72.4213 984,71.5C 982.837,73.2852 982.17,75.2852 982,77.5C 981.397,74.0945 980.231,73.7612 978.5,76.5C 978.921,79.546 979.921,82.046 981.5,84C 980.551,84.6172 979.718,84.4506 979,83.5C 978.355,84.646 977.522,85.646 976.5,86.5C 977.902,87.8425 977.569,88.6758 975.5,89C 977.58,91.3128 979.246,93.3128 980.5,95C 978.833,96.6667 977.167,98.3333 975.5,100C 976.582,101.33 977.249,102.83 977.5,104.5C 939.291,90.0976 900.958,76.0976 862.5,62.5C 862.5,62.1667 862.5,61.8333 862.5,61.5C 882.903,41.4328 902.57,20.7662 921.5,-0.5 Z"/></g>
<g><path style="opacity:1" fill="#e27c62" d="M 231.5,48.5 C 285.912,70.6493 340.245,92.6493 394.5,114.5C 394.5,114.833 394.5,115.167 394.5,115.5C 358.272,158.275 322.272,201.275 286.5,244.5C 285.883,244.611 285.383,244.944 285,245.5C 241.499,237.233 197.999,228.9 154.5,220.5C 160.595,195.028 165.928,169.361 170.5,143.5C 171.117,143.389 171.617,143.056 172,142.5C 187.943,157.305 203.777,171.638 219.5,185.5C 240.556,204.045 261.556,222.878 282.5,242C 283.332,242.688 283.998,242.521 284.5,241.5C 280.494,228.259 276.994,214.926 274,201.5C 272.24,196.944 270.406,192.444 268.5,188C 269.634,186.984 269.301,186.317 267.5,186C 268.022,185.439 268.355,184.772 268.5,184C 259.478,152.912 250.811,121.912 242.5,91C 238.805,77.6761 234.805,63.8428 230.5,49.5C 230.5,48.8333 230.833,48.5 231.5,48.5 Z"/></g>
<g><path style="opacity:1" fill="#dd745d" d="M 230.5,49.5 C 234.805,63.8428 238.805,77.6761 242.5,91C 250.811,121.912 259.478,152.912 268.5,184C 268.355,184.772 268.022,185.439 267.5,186C 269.301,186.317 269.634,186.984 268.5,188C 270.406,192.444 272.24,196.944 274,201.5C 276.994,214.926 280.494,228.259 284.5,241.5C 283.998,242.521 283.332,242.688 282.5,242C 261.556,222.878 240.556,204.045 219.5,185.5C 203.777,171.638 187.943,157.305 172,142.5C 171.617,143.056 171.117,143.389 170.5,143.5C 170.5,143.167 170.5,142.833 170.5,142.5C 170.5,142.167 170.5,141.833 170.5,141.5C 172.451,140.284 173.951,138.618 175,136.5C 193.363,107.326 211.863,78.3259 230.5,49.5 Z"/></g>
<g><path style="opacity:1" fill="#bf9a9a" d="M 1452.5,56.5 C 1452.83,56.5 1453.17,56.5 1453.5,56.5C 1507.08,62.9049 1560.74,68.9049 1614.5,74.5C 1614.5,74.8333 1614.5,75.1667 1614.5,75.5C 1562.5,112.167 1510.5,148.833 1458.5,185.5C 1458.17,185.5 1457.83,185.5 1457.5,185.5C 1457.5,185.167 1457.5,184.833 1457.5,184.5C 1455.63,142.747 1453.96,100.414 1452.5,57.5C 1452.5,57.1667 1452.5,56.8333 1452.5,56.5 Z"/></g>
<g><path style="opacity:1" fill="#caa4a0" d="M 1452.5,57.5 C 1453.96,100.414 1455.63,142.747 1457.5,184.5C 1416.15,162.49 1374.81,140.49 1333.5,118.5C 1333.5,118.167 1333.5,117.833 1333.5,117.5C 1373.04,97.2311 1412.7,77.2311 1452.5,57.5 Z"/></g>
<g><path style="opacity:1" fill="#f4bdaa" d="M 862.5,62.5 C 900.958,76.0976 939.291,90.0976 977.5,104.5C 979.5,105.167 981.5,105.833 983.5,106.5C 983.5,106.833 983.5,107.167 983.5,107.5C 949.418,160.655 916.085,214.322 883.5,268.5C 883.5,269.167 883.167,269.5 882.5,269.5C 881.833,269.5 881.5,269.167 881.5,268.5C 875.22,198.802 868.887,130.469 862.5,63.5C 862.5,63.1667 862.5,62.8333 862.5,62.5 Z"/></g>
<g><path style="opacity:1" fill="#f5b59e" d="M 862.5,62.5 C 862.5,62.8333 862.5,63.1667 862.5,63.5C 829.516,124.799 796.516,186.132 763.5,247.5C 763.167,247.5 762.833,247.5 762.5,247.5C 748.636,207.241 734.969,166.908 721.5,126.5C 721.833,125.833 722.167,125.167 722.5,124.5C 769.167,103.833 815.833,83.1667 862.5,62.5 Z"/></g>
<g><path style="opacity:1" fill="#f9c2ab" d="M 862.5,63.5 C 868.887,130.469 875.22,198.802 881.5,268.5C 842.307,262.067 802.974,255.067 763.5,247.5C 796.516,186.132 829.516,124.799 862.5,63.5 Z"/></g>
<g><path style="opacity:1" fill="#d15b4c" d="M -0.5,66.5 C 55.7422,91.4563 112.075,116.123 168.5,140.5C 168.842,141.338 169.508,141.672 170.5,141.5C 170.5,141.833 170.5,142.167 170.5,142.5C 119.355,163.575 68.3549,184.908 17.5,206.5C 17.1667,206.5 16.8333,206.5 16.5,206.5C 16.5,205.833 16.1667,205.5 15.5,205.5C 10.7387,189.216 5.4054,173.216 -0.5,157.5C -0.5,127.167 -0.5,96.8333 -0.5,66.5 Z"/></g>
<g><path style="opacity:1" fill="#f09c7c" d="M 573.5,68.5 C 573.833,68.5 574.167,68.5 574.5,68.5C 571.576,139.127 569.242,209.794 567.5,280.5C 567.5,280.833 567.5,281.167 567.5,281.5C 566.833,281.5 566.5,281.167 566.5,280.5C 509.193,225.528 451.86,170.528 394.5,115.5C 394.5,115.167 394.5,114.833 394.5,114.5C 454.191,98.9944 513.858,83.6611 573.5,68.5 Z"/></g>
<g><path style="opacity:1" fill="#f3aa8c" d="M 574.5,68.5 C 623.167,86.8333 671.833,105.167 720.5,123.5C 720.833,123.5 721.167,123.5 721.5,123.5C 721.5,124.167 721.833,124.5 722.5,124.5C 722.167,125.167 721.833,125.833 721.5,126.5C 669.805,177.195 618.805,228.528 568.5,280.5C 568.167,280.5 567.833,280.5 567.5,280.5C 569.242,209.794 571.576,139.127 574.5,68.5 Z"/></g>
<g><path style="opacity:1" fill="#eba699" d="M 971.5,53.5 C 971.967,56.8258 973.134,57.1591 975,54.5C 976.129,56.1412 977.629,57.1412 979.5,57.5C 978.92,61.2597 976.92,64.0931 973.5,66C 974.797,68.5446 974.631,71.0446 973,73.5C 969.296,75.7876 966.463,78.2876 964.5,81C 965.167,82 965.833,83 966.5,84C 963.479,84.8488 962.979,86.3488 965,88.5C 966.113,86.6707 967.613,85.8374 969.5,86C 967.787,87.3782 966.453,89.0448 965.5,91C 969.623,97.2652 969.123,97.7652 964,92.5C 963.077,93.7588 962.243,95.0921 961.5,96.5C 958.235,94.9516 956.902,92.6183 957.5,89.5C 953.149,87.6423 949.482,84.8089 946.5,81C 948.57,80.6213 950.07,81.4547 951,83.5C 952.16,81.203 953.16,81.5363 954,84.5C 954.308,83.6919 954.808,83.0253 955.5,82.5C 957.197,83.3636 958.363,84.6969 959,86.5C 961.21,84.0148 960.71,82.1815 957.5,81C 959.5,78.3333 961.5,75.6667 963.5,73C 968.39,72.7619 968.39,72.0952 963.5,71C 964.554,69.6124 964.72,68.1124 964,66.5C 961.699,65.3237 961.366,63.9904 963,62.5C 964.316,65.028 965.483,65.028 966.5,62.5C 965.478,61.646 964.645,60.646 964,59.5C 963.549,61.9288 962.715,62.0955 961.5,60C 963.826,58.4526 964.993,56.6193 965,54.5C 966.284,55.5719 966.617,56.9052 966,58.5C 967.333,59.8333 968.667,61.1667 970,62.5C 971.037,60.7824 971.537,58.949 971.5,57C 968.93,55.6507 968.93,54.484 971.5,53.5 Z"/></g>
<g><path style="opacity:1" fill="#bb9fa1" d="M 1614.5,75.5 C 1614.5,76.1667 1614.83,76.5 1615.5,76.5C 1608.56,125.756 1601.89,175.09 1595.5,224.5C 1549.77,211.81 1504.11,199.143 1458.5,186.5C 1458.5,186.167 1458.5,185.833 1458.5,185.5C 1510.5,148.833 1562.5,112.167 1614.5,75.5 Z"/></g>
<g><path style="opacity:1" fill="#ae9198" d="M 1615.5,74.5 C 1615.83,74.5 1616.17,74.5 1616.5,74.5C 1662.57,90.7443 1708.9,106.411 1755.5,121.5C 1755.5,121.833 1755.5,122.167 1755.5,122.5C 1702.67,156.749 1649.67,190.749 1596.5,224.5C 1596.17,224.5 1595.83,224.5 1595.5,224.5C 1601.89,175.09 1608.56,125.756 1615.5,76.5C 1615.5,75.8333 1615.5,75.1667 1615.5,74.5 Z"/></g>
<g><path style="opacity:1" fill="#a17d8f" d="M 1919.5,92.5 C 1919.5,99.5 1919.5,106.5 1919.5,113.5C 1887.83,136.833 1856.17,160.167 1824.5,183.5C 1824.17,183.5 1823.83,183.5 1823.5,183.5C 1800.87,163.536 1778.53,143.202 1756.5,122.5C 1810.99,111.945 1865.32,101.945 1919.5,92.5 Z"/></g>
<g><path style="opacity:1" fill="#eebbad" d="M 983.5,106.5 C 1036.34,108.227 1089.18,110.227 1142,112.5C 1143.71,112.492 1145.21,112.158 1146.5,111.5C 1147.17,111.833 1147.83,112.167 1148.5,112.5C 1148.5,112.833 1148.5,113.167 1148.5,113.5C 1148.17,113.5 1147.83,113.5 1147.5,113.5C 1100.24,138.966 1052.57,163.632 1004.5,187.5C 997.187,160.913 990.187,134.246 983.5,107.5C 983.5,107.167 983.5,106.833 983.5,106.5 Z"/></g>
<g><path style="opacity:1" fill="#f8c8b6" d="M 983.5,107.5 C 990.187,134.246 997.187,160.913 1004.5,187.5C 1004.5,187.833 1004.5,188.167 1004.5,188.5C 964.31,215.425 923.976,242.092 883.5,268.5C 916.085,214.322 949.418,160.655 983.5,107.5 Z"/></g>
<g><path style="opacity:1" fill="#dcb3a9" d="M 1148.5,111.5 C 1209.59,113.409 1270.59,115.076 1331.5,116.5C 1332.17,117.167 1332.83,117.833 1333.5,118.5C 1334.44,131.965 1336.44,145.465 1339.5,159C 1341.13,172.703 1343.13,186.87 1345.5,201.5C 1279.96,171.895 1214.29,142.561 1148.5,113.5C 1148.5,113.167 1148.5,112.833 1148.5,112.5C 1148.5,112.167 1148.5,111.833 1148.5,111.5 Z"/></g>
<g><path style="opacity:1" fill="#edc5b6" d="M 1147.5,113.5 C 1161.28,166.842 1175.28,220.175 1189.5,273.5C 1130.32,246.581 1071.32,219.081 1012.5,191C 1009.9,189.864 1007.24,189.031 1004.5,188.5C 1004.5,188.167 1004.5,187.833 1004.5,187.5C 1052.57,163.632 1100.24,138.966 1147.5,113.5 Z"/></g>
<g><path style="opacity:1" fill="#e4c1b5" d="M 1147.5,113.5 C 1147.83,113.5 1148.17,113.5 1148.5,113.5C 1214.29,142.561 1279.96,171.895 1345.5,201.5C 1345.5,201.833 1345.5,202.167 1345.5,202.5C 1293.96,226.771 1242.29,250.771 1190.5,274.5C 1190.17,274.5 1189.83,274.5 1189.5,274.5C 1189.5,274.167 1189.5,273.833 1189.5,273.5C 1175.28,220.175 1161.28,166.842 1147.5,113.5 Z"/></g>
<g><path style="opacity:1" fill="#a07f94" d="M 1919.5,113.5 C 1919.5,155.167 1919.5,196.833 1919.5,238.5C 1887.85,220.528 1856.18,202.528 1824.5,184.5C 1824.5,184.167 1824.5,183.833 1824.5,183.5C 1856.17,160.167 1887.83,136.833 1919.5,113.5 Z"/></g>
<g><path style="opacity:1" fill="#f5a785" d="M 394.5,115.5 C 451.86,170.528 509.193,225.528 566.5,280.5C 527.149,285.002 487.816,289.669 448.5,294.5C 430.101,234.968 412.101,175.302 394.5,115.5 Z"/></g>
<g><path style="opacity:1" fill="#ee9878" d="M 394.5,115.5 C 412.101,175.302 430.101,234.968 448.5,294.5C 448.5,294.833 448.5,295.167 448.5,295.5C 394.351,278.894 340.351,261.894 286.5,244.5C 322.272,201.275 358.272,158.275 394.5,115.5 Z"/></g>
<g><path style="opacity:1" fill="#d2b0aa" d="M 1333.5,118.5 C 1374.81,140.49 1416.15,162.49 1457.5,184.5C 1457.5,184.833 1457.5,185.167 1457.5,185.5C 1420.74,191.561 1383.74,196.895 1346.5,201.5C 1346.17,201.5 1345.83,201.5 1345.5,201.5C 1343.13,186.87 1341.13,172.703 1339.5,159C 1336.44,145.465 1334.44,131.965 1333.5,118.5 Z"/></g>
<g><path style="opacity:1" fill="#aa919b" d="M 1755.5,122.5 C 1755.83,122.5 1756.17,122.5 1756.5,122.5C 1778.53,143.202 1800.87,163.536 1823.5,183.5C 1823.16,184.338 1822.49,184.672 1821.5,184.5C 1746.52,197.941 1671.52,211.274 1596.5,224.5C 1649.67,190.749 1702.67,156.749 1755.5,122.5 Z"/></g>
<g><path style="opacity:1" fill="#f8bc9f" d="M 721.5,126.5 C 734.969,166.908 748.636,207.241 762.5,247.5C 698.069,259.128 633.403,270.128 568.5,280.5C 618.805,228.528 669.805,177.195 721.5,126.5 Z"/></g>
<g><path style="opacity:1" fill="#da6f59" d="M 170.5,142.5 C 170.5,142.833 170.5,143.167 170.5,143.5C 165.928,169.361 160.595,195.028 154.5,220.5C 154.167,220.5 153.833,220.5 153.5,220.5C 108.797,215.95 63.4634,211.616 17.5,207.5C 17.5,207.167 17.5,206.833 17.5,206.5C 68.3549,184.908 119.355,163.575 170.5,142.5 Z"/></g>
<g><path style="opacity:1" fill="#c15246" d="M -0.5,157.5 C 5.4054,173.216 10.7387,189.216 15.5,205.5C 10.1177,204.373 4.78435,203.039 -0.5,201.5C -0.5,186.833 -0.5,172.167 -0.5,157.5 Z"/></g>
<g><path style="opacity:1" fill="#aaa5b6" d="M 1823.5,183.5 C 1823.83,183.5 1824.17,183.5 1824.5,183.5C 1824.5,183.833 1824.5,184.167 1824.5,184.5C 1823.59,198.599 1822.59,212.766 1821.5,227C 1822.05,228.398 1822.38,229.732 1822.5,231C 1821.13,251.998 1819.8,272.998 1818.5,294C 1819.05,295.398 1819.38,296.732 1819.5,298C 1817.17,334.134 1815.51,370.634 1814.5,407.5C 1814.5,407.833 1814.5,408.167 1814.5,408.5C 1814.17,408.5 1813.83,408.5 1813.5,408.5C 1751.96,388.654 1690.29,368.987 1628.5,349.5C 1628.17,349.5 1627.83,349.5 1627.5,349.5C 1627.5,349.167 1627.5,348.833 1627.5,348.5C 1632.29,345.261 1636.95,341.761 1641.5,338C 1701.4,286.594 1761.4,235.427 1821.5,184.5C 1822.49,184.672 1823.16,184.338 1823.5,183.5 Z"/></g>
<g><path style="opacity:1" fill="#a595ab" d="M 1824.5,184.5 C 1856.18,202.528 1887.85,220.528 1919.5,238.5C 1919.5,265.833 1919.5,293.167 1919.5,320.5C 1884.57,348.463 1850.24,377.129 1816.5,406.5C 1815.83,406.833 1815.17,407.167 1814.5,407.5C 1815.51,370.634 1817.17,334.134 1819.5,298C 1819.38,296.732 1819.05,295.398 1818.5,294C 1819.8,272.998 1821.13,251.998 1822.5,231C 1822.38,229.732 1822.05,228.398 1821.5,227C 1822.59,212.766 1823.59,198.599 1824.5,184.5 Z"/></g>
<g><path style="opacity:1" fill="#aea2ab" d="M 1821.5,184.5 C 1761.4,235.427 1701.4,286.594 1641.5,338C 1636.95,341.761 1632.29,345.261 1627.5,348.5C 1616.37,307.638 1605.7,266.638 1595.5,225.5C 1595.5,225.167 1595.5,224.833 1595.5,224.5C 1595.83,224.5 1596.17,224.5 1596.5,224.5C 1671.52,211.274 1746.52,197.941 1821.5,184.5 Z"/></g>
<g><path style="opacity:1" fill="#d0bdb8" d="M 1457.5,185.5 C 1457.83,185.5 1458.17,185.5 1458.5,185.5C 1458.5,185.833 1458.5,186.167 1458.5,186.5C 1455.96,242.592 1453.63,298.925 1451.5,355.5C 1450.83,355.167 1450.17,354.833 1449.5,354.5C 1416.22,305.381 1382.72,256.381 1349,207.5C 1347.44,205.783 1346.61,203.783 1346.5,201.5C 1383.74,196.895 1420.74,191.561 1457.5,185.5 Z"/></g>
<g><path style="opacity:1" fill="#c4b6b5" d="M 1458.5,186.5 C 1504.11,199.143 1549.77,211.81 1595.5,224.5C 1595.5,224.833 1595.5,225.167 1595.5,225.5C 1547.17,268.498 1499.17,311.832 1451.5,355.5C 1453.63,298.925 1455.96,242.592 1458.5,186.5 Z"/></g>
<g><path style="opacity:1" fill="#fad7c8" d="M 1004.5,188.5 C 1010.07,243.276 1015.41,297.276 1020.5,350.5C 974.5,323.833 928.5,297.167 882.5,270.5C 882.5,270.167 882.5,269.833 882.5,269.5C 883.167,269.5 883.5,269.167 883.5,268.5C 923.976,242.092 964.31,215.425 1004.5,188.5 Z"/></g>
<g><path style="opacity:1" fill="#f2d3c6" d="M 1004.5,188.5 C 1007.24,189.031 1009.9,189.864 1012.5,191C 1071.32,219.081 1130.32,246.581 1189.5,273.5C 1189.5,273.833 1189.5,274.167 1189.5,274.5C 1189.5,274.833 1189.5,275.167 1189.5,275.5C 1133.51,300.499 1077.51,325.499 1021.5,350.5C 1021.17,350.5 1020.83,350.5 1020.5,350.5C 1015.41,297.276 1010.07,243.276 1004.5,188.5 Z"/></g>
<g><path style="opacity:1" fill="#bf5b4d" d="M -0.5,201.5 C 4.78435,203.039 10.1177,204.373 15.5,205.5C 16.1667,205.5 16.5,205.833 16.5,206.5C 10.2018,206.511 4.53516,206.844 -0.5,207.5C -0.5,205.5 -0.5,203.5 -0.5,201.5 Z"/></g>
<g><path style="opacity:1" fill="#dfc9c1" d="M 1345.5,202.5 C 1331.7,245.895 1317.7,289.228 1303.5,332.5C 1265.71,313.436 1228.04,294.102 1190.5,274.5C 1242.29,250.771 1293.96,226.771 1345.5,202.5 Z"/></g>
<g><path style="opacity:1" fill="#d6c7c4" d="M 1345.5,201.5 C 1345.83,201.5 1346.17,201.5 1346.5,201.5C 1346.61,203.783 1347.44,205.783 1349,207.5C 1382.72,256.381 1416.22,305.381 1449.5,354.5C 1400.8,347.384 1352.14,340.051 1303.5,332.5C 1317.7,289.228 1331.7,245.895 1345.5,202.5C 1345.5,202.167 1345.5,201.833 1345.5,201.5 Z"/></g>
<g><path style="opacity:1" fill="#cc6a5a" d="M 16.5,206.5 C 16.8333,206.5 17.1667,206.5 17.5,206.5C 17.5,206.833 17.5,207.167 17.5,207.5C 11.3447,227.788 5.34473,248.121 -0.5,268.5C -0.5,248.167 -0.5,227.833 -0.5,207.5C 4.53516,206.844 10.2018,206.511 16.5,206.5 Z"/></g>
<g><path style="opacity:1" fill="#dc745e" d="M 17.5,207.5 C 63.4634,211.616 108.797,215.95 153.5,220.5C 102.595,255.351 51.2618,290.351 -0.5,325.5C -0.5,306.5 -0.5,287.5 -0.5,268.5C 5.34473,248.121 11.3447,227.788 17.5,207.5 Z"/></g>
<g><path style="opacity:1" fill="#df8370" d="M 153.5,220.5 C 153.833,220.5 154.167,220.5 154.5,220.5C 154.5,220.833 154.5,221.167 154.5,221.5C 131.969,287.092 109.636,352.759 87.5,418.5C 87.1667,418.5 86.8333,418.5 86.5,418.5C 57.3596,397.088 28.3596,375.422 -0.5,353.5C -0.5,344.167 -0.5,334.833 -0.5,325.5C 51.2618,290.351 102.595,255.351 153.5,220.5 Z"/></g>
<g><path style="opacity:1" fill="#e98f76" d="M 154.5,221.5 C 154.5,221.167 154.5,220.833 154.5,220.5C 197.999,228.9 241.499,237.233 285,245.5C 285.383,244.944 285.883,244.611 286.5,244.5C 286.5,245.167 286.5,245.833 286.5,246.5C 271.211,300.98 256.211,355.646 241.5,410.5C 241.167,410.5 240.833,410.5 240.5,410.5C 212.197,347.225 183.53,284.225 154.5,221.5 Z"/></g>
<g><path style="opacity:1" fill="#e7917b" d="M 154.5,221.5 C 183.53,284.225 212.197,347.225 240.5,410.5C 189.485,412.957 138.485,415.624 87.5,418.5C 109.636,352.759 131.969,287.092 154.5,221.5 Z"/></g>
<g><path style="opacity:1" fill="#bdb8be" d="M 1595.5,225.5 C 1605.7,266.638 1616.37,307.638 1627.5,348.5C 1627.5,348.833 1627.5,349.167 1627.5,349.5C 1627.5,349.833 1627.5,350.167 1627.5,350.5C 1568.8,351.968 1510.13,353.968 1451.5,356.5C 1451.5,356.167 1451.5,355.833 1451.5,355.5C 1499.17,311.832 1547.17,268.498 1595.5,225.5 Z"/></g>
<g><path style="opacity:1" fill="#f2a78a" d="M 286.5,244.5 C 340.351,261.894 394.351,278.894 448.5,295.5C 435.856,322.792 423.189,350.125 410.5,377.5C 410.167,377.5 409.833,377.5 409.5,377.5C 404.729,370.894 399.063,365.061 392.5,360C 392.833,359.667 393.167,359.333 393.5,359C 357.68,321.029 322.014,283.529 286.5,246.5C 286.5,245.833 286.5,245.167 286.5,244.5 Z"/></g>
<g><path style="opacity:1" fill="#f0a28a" d="M 286.5,246.5 C 322.014,283.529 357.68,321.029 393.5,359C 393.167,359.333 392.833,359.667 392.5,360C 399.063,365.061 404.729,370.894 409.5,377.5C 409.167,377.5 408.833,377.5 408.5,377.5C 352.5,388.764 296.834,400.097 241.5,411.5C 241.5,411.167 241.5,410.833 241.5,410.5C 256.211,355.646 271.211,300.98 286.5,246.5 Z"/></g>
<g><path style="opacity:1" fill="#fbccb3" d="M 762.5,247.5 C 762.833,247.5 763.167,247.5 763.5,247.5C 763.241,284.822 762.575,322.988 761.5,362C 761.711,365.748 762.045,369.915 762.5,374.5C 762.5,374.833 762.5,375.167 762.5,375.5C 762.5,376.167 762.167,376.5 761.5,376.5C 697.786,381.868 634.119,387.535 570.5,393.5C 569.833,393.833 569.167,394.167 568.5,394.5C 568.5,394.167 568.5,393.833 568.5,393.5C 567.355,356.101 567.022,318.767 567.5,281.5C 567.5,281.167 567.5,280.833 567.5,280.5C 567.833,280.5 568.167,280.5 568.5,280.5C 633.403,270.128 698.069,259.128 762.5,247.5 Z"/></g>
<g><path style="opacity:1" fill="#fbd2bd" d="M 763.5,247.5 C 802.974,255.067 842.307,262.067 881.5,268.5C 881.5,269.167 881.833,269.5 882.5,269.5C 882.5,269.833 882.5,270.167 882.5,270.5C 842.205,304.793 802.205,339.46 762.5,374.5C 762.045,369.915 761.711,365.748 761.5,362C 762.575,322.988 763.241,284.822 763.5,247.5 Z"/></g>
<g><path style="opacity:1" fill="#fae2d4" d="M 882.5,270.5 C 928.5,297.167 974.5,323.833 1020.5,350.5C 1020.5,350.833 1020.5,351.167 1020.5,351.5C 963.5,373.5 906.5,395.5 849.5,417.5C 860.033,368.37 871.033,319.37 882.5,270.5 Z"/></g>
<g><path style="opacity:1" fill="#fcddcd" d="M 882.5,270.5 C 871.033,319.37 860.033,368.37 849.5,417.5C 819.993,403.573 790.993,389.573 762.5,375.5C 762.5,375.167 762.5,374.833 762.5,374.5C 802.205,339.46 842.205,304.793 882.5,270.5 Z"/></g>
<g><path style="opacity:1" fill="#e5d6d0" d="M 1189.5,274.5 C 1189.83,274.5 1190.17,274.5 1190.5,274.5C 1228.04,294.102 1265.71,313.436 1303.5,332.5C 1303.5,333.167 1303.17,333.5 1302.5,333.5C 1268.67,349.553 1234.67,365.219 1200.5,380.5C 1199.71,380.217 1199.04,379.717 1198.5,379C 1198.74,373.877 1198.74,368.544 1198.5,363C 1197.83,361.333 1197.17,359.667 1196.5,358C 1197.17,356.249 1197.51,354.583 1197.5,353C 1196.33,343.976 1195,334.976 1193.5,326C 1194.17,324.249 1194.51,322.583 1194.5,321C 1192.66,306.12 1191,290.953 1189.5,275.5C 1189.5,275.167 1189.5,274.833 1189.5,274.5 Z"/></g>
<g><path style="opacity:1" fill="#eedcd4" d="M 1189.5,275.5 C 1191,290.953 1192.66,306.12 1194.5,321C 1194.51,322.583 1194.17,324.249 1193.5,326C 1195,334.976 1196.33,343.976 1197.5,353C 1197.51,354.583 1197.17,356.249 1196.5,358C 1197.17,359.667 1197.83,361.333 1198.5,363C 1198.74,368.544 1198.74,373.877 1198.5,379C 1199.04,379.717 1199.71,380.217 1200.5,380.5C 1200.5,380.833 1200.5,381.167 1200.5,381.5C 1200.17,381.5 1199.83,381.5 1199.5,381.5C 1142.87,371.895 1086.21,362.395 1029.5,353C 1026.54,352.721 1023.88,351.887 1021.5,350.5C 1077.51,325.499 1133.51,300.499 1189.5,275.5 Z"/></g>
<g><path style="opacity:1" fill="#f8bc9f" d="M 566.5,280.5 C 566.5,281.167 566.833,281.5 567.5,281.5C 567.022,318.767 567.355,356.101 568.5,393.5C 515.854,388.035 463.187,382.702 410.5,377.5C 423.189,350.125 435.856,322.792 448.5,295.5C 448.5,295.167 448.5,294.833 448.5,294.5C 487.816,289.669 527.149,285.002 566.5,280.5 Z"/></g>
<g><path style="opacity:1" fill="#9f99b2" d="M 1919.5,320.5 C 1919.5,338.5 1919.5,356.5 1919.5,374.5C 1885.46,385.061 1851.13,395.728 1816.5,406.5C 1850.24,377.129 1884.57,348.463 1919.5,320.5 Z"/></g>
<g><path style="opacity:1" fill="#dedede" d="M 1302.5,333.5 C 1302.79,394.927 1303.45,456.261 1304.5,517.5C 1269.48,472.475 1234.81,427.142 1200.5,381.5C 1200.5,381.167 1200.5,380.833 1200.5,380.5C 1234.67,365.219 1268.67,349.553 1302.5,333.5 Z"/></g>
<g><path style="opacity:1" fill="#d6d8d9" d="M 1303.5,332.5 C 1352.14,340.051 1400.8,347.384 1449.5,354.5C 1450.17,354.833 1450.83,355.167 1451.5,355.5C 1451.5,355.833 1451.5,356.167 1451.5,356.5C 1451.5,357.167 1451.17,357.5 1450.5,357.5C 1401.83,410.842 1353.49,464.509 1305.5,518.5C 1305.17,518.5 1304.83,518.5 1304.5,518.5C 1304.5,518.167 1304.5,517.833 1304.5,517.5C 1303.45,456.261 1302.79,394.927 1302.5,333.5C 1303.17,333.5 1303.5,333.167 1303.5,332.5 Z"/></g>
<g><path style="opacity:1" fill="#bfc9d1" d="M 1627.5,350.5 C 1580.14,400.86 1532.81,451.193 1485.5,501.5C 1485.17,501.5 1484.83,501.5 1484.5,501.5C 1473.48,453.406 1462.14,405.406 1450.5,357.5C 1451.17,357.5 1451.5,357.167 1451.5,356.5C 1510.13,353.968 1568.8,351.968 1627.5,350.5 Z"/></g>
<g><path style="opacity:1" fill="#a7b5cb" d="M 1628.5,349.5 C 1690.29,368.987 1751.96,388.654 1813.5,408.5C 1793.17,456.5 1772.83,504.5 1752.5,552.5C 1711.17,485.5 1669.83,418.5 1628.5,351.5C 1628.5,350.833 1628.5,350.167 1628.5,349.5 Z"/></g>
<g><path style="opacity:1" fill="#f9ede7" d="M 1020.5,351.5 C 1020.5,351.833 1020.5,352.167 1020.5,352.5C 1009.38,422.532 998.05,492.532 986.5,562.5C 940.202,515.166 894.536,467.166 849.5,418.5C 849.5,418.167 849.5,417.833 849.5,417.5C 906.5,395.5 963.5,373.5 1020.5,351.5 Z"/></g>
<g><path style="opacity:1" fill="#eee8e4" d="M 1020.5,350.5 C 1020.83,350.5 1021.17,350.5 1021.5,350.5C 1023.88,351.887 1026.54,352.721 1029.5,353C 1086.21,362.395 1142.87,371.895 1199.5,381.5C 1180.17,436.488 1160.84,491.488 1141.5,546.5C 1141.17,546.5 1140.83,546.5 1140.5,546.5C 1103.34,485.519 1066.17,424.519 1029,363.5C 1026.61,359.349 1023.78,355.683 1020.5,352.5C 1020.5,352.167 1020.5,351.833 1020.5,351.5C 1020.5,351.167 1020.5,350.833 1020.5,350.5 Z"/></g>
<g><path style="opacity:1" fill="#b6c9d9" d="M 1627.5,349.5 C 1627.83,349.5 1628.17,349.5 1628.5,349.5C 1628.5,350.167 1628.5,350.833 1628.5,351.5C 1622.61,423.471 1616.95,495.471 1611.5,567.5C 1611.17,567.5 1610.83,567.5 1610.5,567.5C 1568.95,545.648 1527.29,523.981 1485.5,502.5C 1485.5,502.167 1485.5,501.833 1485.5,501.5C 1532.81,451.193 1580.14,400.86 1627.5,350.5C 1627.5,350.167 1627.5,349.833 1627.5,349.5 Z"/></g>
<g><path style="opacity:1" fill="#f1eeed" d="M 1020.5,352.5 C 1023.78,355.683 1026.61,359.349 1029,363.5C 1066.17,424.519 1103.34,485.519 1140.5,546.5C 1089.12,551.571 1037.79,556.905 986.5,562.5C 998.05,492.532 1009.38,422.532 1020.5,352.5 Z"/></g>
<g><path style="opacity:1" fill="#a9c1d6" d="M 1628.5,351.5 C 1669.83,418.5 1711.17,485.5 1752.5,552.5C 1752.5,552.833 1752.5,553.167 1752.5,553.5C 1752.17,553.5 1751.83,553.5 1751.5,553.5C 1704.81,557.947 1658.15,562.613 1611.5,567.5C 1616.95,495.471 1622.61,423.471 1628.5,351.5 Z"/></g>
<g><path style="opacity:1" fill="#db867a" d="M -0.5,353.5 C 28.3596,375.422 57.3596,397.088 86.5,418.5C 86.1667,419.167 85.8333,419.833 85.5,420.5C 56.8611,437.822 28.1945,455.155 -0.5,472.5C -0.5,432.833 -0.5,393.167 -0.5,353.5 Z"/></g>
<g><path style="opacity:1" fill="#cdd8df" d="M 1450.5,357.5 C 1462.14,405.406 1473.48,453.406 1484.5,501.5C 1466.72,503.493 1449.22,505.493 1432,507.5C 1425.79,507.875 1419.46,507.875 1413,507.5C 1409.14,509.005 1405.14,510.005 1401,510.5C 1400.67,509.833 1400.33,509.167 1400,508.5C 1396.92,510.115 1393.59,511.115 1390,511.5C 1383.46,511.841 1376.79,511.841 1370,511.5C 1369.68,513.301 1369.02,513.634 1368,512.5C 1347.27,515.11 1326.44,517.11 1305.5,518.5C 1353.49,464.509 1401.83,410.842 1450.5,357.5 Z"/></g>
<g><path style="opacity:1" fill="#9ea3c0" d="M 1919.5,374.5 C 1919.5,403.5 1919.5,432.5 1919.5,461.5C 1914.51,469.464 1909.51,477.464 1904.5,485.5C 1874.5,459.833 1844.5,434.167 1814.5,408.5C 1814.5,408.167 1814.5,407.833 1814.5,407.5C 1815.17,407.167 1815.83,406.833 1816.5,406.5C 1851.13,395.728 1885.46,385.061 1919.5,374.5 Z"/></g>
<g><path style="opacity:1" fill="#fcddcc" d="M 761.5,376.5 C 767.671,427.201 774.004,477.867 780.5,528.5C 709.986,484.323 639.986,439.323 570.5,393.5C 634.119,387.535 697.786,381.868 761.5,376.5 Z"/></g>
<g><path style="opacity:1" fill="#fbe4d7" d="M 762.5,375.5 C 790.993,389.573 819.993,403.573 849.5,417.5C 849.5,417.833 849.5,418.167 849.5,418.5C 826.597,455.297 803.93,492.297 781.5,529.5C 781.167,529.5 780.833,529.5 780.5,529.5C 780.5,529.167 780.5,528.833 780.5,528.5C 774.004,477.867 767.671,427.201 761.5,376.5C 762.167,376.5 762.5,376.167 762.5,375.5 Z"/></g>
<g><path style="opacity:1" fill="#f1ab96" d="M 408.5,377.5 C 352.083,422.879 295.083,467.546 237.5,511.5C 238.647,478.156 239.98,444.823 241.5,411.5C 296.834,400.097 352.5,388.764 408.5,377.5 Z"/></g>
<g><path style="opacity:1" fill="#fac7ae" d="M 409.5,377.5 C 409.833,377.5 410.167,377.5 410.5,377.5C 463.187,382.702 515.854,388.035 568.5,393.5C 568.5,393.833 568.5,394.167 568.5,394.5C 558.052,431.283 548.052,468.283 538.5,505.5C 538.167,505.5 537.833,505.5 537.5,505.5C 495.583,463.083 453.416,420.749 411,378.5C 410.517,379.448 410.351,380.448 410.5,381.5C 409.566,380.432 409.232,379.099 409.5,377.5 Z"/></g>
<g><path style="opacity:1" fill="#f3b9a6" d="M 408.5,377.5 C 408.833,377.5 409.167,377.5 409.5,377.5C 409.232,379.099 409.566,380.432 410.5,381.5C 415.891,449.856 421.557,518.189 427.5,586.5C 364.245,561.637 300.912,536.971 237.5,512.5C 237.5,512.167 237.5,511.833 237.5,511.5C 295.083,467.546 352.083,422.879 408.5,377.5 Z"/></g>
<g><path style="opacity:1" fill="#f8c5b1" d="M 537.5,505.5 C 501.345,532.744 465.012,559.744 428.5,586.5C 428.167,586.5 427.833,586.5 427.5,586.5C 421.557,518.189 415.891,449.856 410.5,381.5C 410.351,380.448 410.517,379.448 411,378.5C 453.416,420.749 495.583,463.083 537.5,505.5 Z"/></g>
<g><path style="opacity:1" fill="#e3e7ea" d="M 1199.5,381.5 C 1199.83,381.5 1200.17,381.5 1200.5,381.5C 1234.81,427.142 1269.48,472.475 1304.5,517.5C 1304.5,517.833 1304.5,518.167 1304.5,518.5C 1304.5,518.833 1304.5,519.167 1304.5,519.5C 1250.18,528.593 1195.85,537.593 1141.5,546.5C 1160.84,491.488 1180.17,436.488 1199.5,381.5 Z"/></g>
<g><path style="opacity:1" fill="#fbd8c7" d="M 570.5,393.5 C 639.986,439.323 709.986,484.323 780.5,528.5C 780.5,528.833 780.5,529.167 780.5,529.5C 780.5,530.167 780.167,530.5 779.5,530.5C 699.204,521.97 618.871,513.637 538.5,505.5C 548.052,468.283 558.052,431.283 568.5,394.5C 569.167,394.167 569.833,393.833 570.5,393.5 Z"/></g>
<g><path style="opacity:1" fill="#a0afcd" d="M 1813.5,408.5 C 1813.83,408.5 1814.17,408.5 1814.5,408.5C 1844.5,434.167 1874.5,459.833 1904.5,485.5C 1904.5,485.833 1904.5,486.167 1904.5,486.5C 1904.17,486.5 1903.83,486.5 1903.5,486.5C 1853.28,508.775 1802.95,530.775 1752.5,552.5C 1772.83,504.5 1793.17,456.5 1813.5,408.5 Z"/></g>
<g><path style="opacity:1" fill="#ea9d8c" d="M 240.5,410.5 C 240.833,410.5 241.167,410.5 241.5,410.5C 241.5,410.833 241.5,411.167 241.5,411.5C 239.98,444.823 238.647,478.156 237.5,511.5C 237.5,511.833 237.5,512.167 237.5,512.5C 236.833,512.5 236.167,512.5 235.5,512.5C 186.51,481.336 137.177,450.669 87.5,420.5C 87.5,419.833 87.5,419.167 87.5,418.5C 138.485,415.624 189.485,412.957 240.5,410.5 Z"/></g>
<g><path style="opacity:1" fill="#f8f1ee" d="M 849.5,418.5 C 894.536,467.166 940.202,515.166 986.5,562.5C 986.5,563.167 986.167,563.5 985.5,563.5C 954.883,571.706 924.217,579.706 893.5,587.5C 893.167,587.5 892.833,587.5 892.5,587.5C 878.009,531.202 863.676,474.869 849.5,418.5 Z"/></g>
<g><path style="opacity:1" fill="#e5978f" d="M 86.5,418.5 C 86.8333,418.5 87.1667,418.5 87.5,418.5C 87.5,419.167 87.5,419.833 87.5,420.5C 113.5,471.167 139.5,521.833 165.5,572.5C 160.913,572.981 156.746,572.981 153,572.5C 146.825,573.095 140.825,574.095 135,575.5C 131.3,574.546 126.967,574.879 122,576.5C 121,576.167 120,575.833 119,575.5C 116.333,576.167 113.667,576.833 111,577.5C 109.732,577.384 108.398,577.051 107,576.5C 104.333,577.167 101.667,577.833 99,578.5C 98,578.167 97,577.833 96,577.5C 93.3333,578.167 90.6667,578.833 88,579.5C 87,579.167 86,578.833 85,578.5C 82,579.167 79,579.833 76,580.5C 75,580.167 74,579.833 73,579.5C 70.3333,580.167 67.6667,580.833 65,581.5C 59.4218,581.645 53.7552,581.645 48,581.5C 44.6606,583.012 41.6606,583.346 39,582.5C 34.0788,584.133 29.4121,584.467 25,583.5C 21.6606,585.012 18.6606,585.346 16,584.5C 10.167,586.228 4.66696,586.895 -0.5,586.5C -0.5,577.167 -0.5,567.833 -0.5,558.5C 28.6643,512.844 57.331,466.844 85.5,420.5C 85.8333,419.833 86.1667,419.167 86.5,418.5 Z"/></g>
<g><path style="opacity:1" fill="#dc8d85" d="M 85.5,420.5 C 57.331,466.844 28.6643,512.844 -0.5,558.5C -0.5,529.833 -0.5,501.167 -0.5,472.5C 28.1945,455.155 56.8611,437.822 85.5,420.5 Z"/></g>
<g><path style="opacity:1" fill="#eaa093" d="M 87.5,420.5 C 137.177,450.669 186.51,481.336 235.5,512.5C 213.061,533.208 190.061,553.208 166.5,572.5C 166.167,572.5 165.833,572.5 165.5,572.5C 139.5,521.833 113.5,471.167 87.5,420.5 Z"/></g>
<g><path style="opacity:1" fill="#f9ede7" d="M 849.5,418.5 C 863.676,474.869 878.009,531.202 892.5,587.5C 855.63,568.232 818.63,549.232 781.5,530.5C 781.5,530.167 781.5,529.833 781.5,529.5C 803.93,492.297 826.597,455.297 849.5,418.5 Z"/></g>
<g><path style="opacity:1" fill="#959dbc" d="M 1919.5,461.5 C 1919.5,472.167 1919.5,482.833 1919.5,493.5C 1914.65,490.91 1909.65,488.576 1904.5,486.5C 1904.5,486.167 1904.5,485.833 1904.5,485.5C 1909.51,477.464 1914.51,469.464 1919.5,461.5 Z"/></g>
<g><path style="opacity:1" fill="#98afd4" d="M 1903.5,486.5 C 1908.79,515.922 1914.12,544.922 1919.5,573.5C 1919.5,595.167 1919.5,616.833 1919.5,638.5C 1863.96,609.898 1808.3,581.565 1752.5,553.5C 1752.5,553.167 1752.5,552.833 1752.5,552.5C 1802.95,530.775 1853.28,508.775 1903.5,486.5 Z"/></g>
<g><path style="opacity:1" fill="#90a3c8" d="M 1903.5,486.5 C 1903.83,486.5 1904.17,486.5 1904.5,486.5C 1909.65,488.576 1914.65,490.91 1919.5,493.5C 1919.5,520.167 1919.5,546.833 1919.5,573.5C 1914.12,544.922 1908.79,515.922 1903.5,486.5 Z"/></g>
<g><path style="opacity:1" fill="#c9dfec" d="M 1484.5,501.5 C 1484.83,501.5 1485.17,501.5 1485.5,501.5C 1485.5,501.833 1485.5,502.167 1485.5,502.5C 1484.66,502.842 1484.33,503.508 1484.5,504.5C 1444.27,572.62 1404.27,640.953 1364.5,709.5C 1364.17,709.5 1363.83,709.5 1363.5,709.5C 1363.5,709.167 1363.5,708.833 1363.5,708.5C 1343.75,645.722 1324.09,583.056 1304.5,520.5C 1304.5,520.167 1304.5,519.833 1304.5,519.5C 1304.5,519.167 1304.5,518.833 1304.5,518.5C 1304.83,518.5 1305.17,518.5 1305.5,518.5C 1326.44,517.11 1347.27,515.11 1368,512.5C 1369.02,513.634 1369.68,513.301 1370,511.5C 1376.79,511.841 1383.46,511.841 1390,511.5C 1393.59,511.115 1396.92,510.115 1400,508.5C 1400.33,509.167 1400.67,509.833 1401,510.5C 1405.14,510.005 1409.14,509.005 1413,507.5C 1419.46,507.875 1425.79,507.875 1432,507.5C 1449.22,505.493 1466.72,503.493 1484.5,501.5 Z"/></g>
<g><path style="opacity:1" fill="#b1d0e4" d="M 1485.5,502.5 C 1527.29,523.981 1568.95,545.648 1610.5,567.5C 1582.76,621.324 1554.76,674.991 1526.5,728.5C 1526.17,728.5 1525.83,728.5 1525.5,728.5C 1511.83,653.817 1498.16,579.151 1484.5,504.5C 1484.33,503.508 1484.66,502.842 1485.5,502.5 Z"/></g>
<g><path style="opacity:1" fill="#b6d5e6" d="M 1484.5,504.5 C 1498.16,579.151 1511.83,653.817 1525.5,728.5C 1525.5,728.833 1525.5,729.167 1525.5,729.5C 1473.55,723.135 1421.55,717.135 1369.5,711.5C 1368.29,710.766 1366.96,710.433 1365.5,710.5C 1365.5,709.833 1365.17,709.5 1364.5,709.5C 1404.27,640.953 1444.27,572.62 1484.5,504.5 Z"/></g>
<g><path style="opacity:1" fill="#f5dcd1" d="M 538.5,505.5 C 618.871,513.637 699.204,521.97 779.5,530.5C 719.699,588.8 659.699,646.966 599.5,705C 597.859,706.129 596.859,707.629 596.5,709.5C 596.167,709.5 595.833,709.5 595.5,709.5C 595.167,709.5 594.833,709.5 594.5,709.5C 594.5,708.833 594.167,708.5 593.5,708.5C 593.5,708.167 593.5,707.833 593.5,707.5C 575.167,640.167 556.833,572.833 538.5,505.5 Z"/></g>
<g><path style="opacity:1" fill="#f3cfc0" d="M 537.5,505.5 C 537.833,505.5 538.167,505.5 538.5,505.5C 556.833,572.833 575.167,640.167 593.5,707.5C 590.726,706.277 588.059,704.777 585.5,703C 533.493,664.002 481.159,625.502 428.5,587.5C 428.5,587.167 428.5,586.833 428.5,586.5C 465.012,559.744 501.345,532.744 537.5,505.5 Z"/></g>
<g><path style="opacity:1" fill="#e9a99d" d="M 235.5,512.5 C 236.167,512.5 236.833,512.5 237.5,512.5C 261.893,566.286 286.56,619.953 311.5,673.5C 263.167,640.167 214.833,606.833 166.5,573.5C 166.5,573.167 166.5,572.833 166.5,572.5C 190.061,553.208 213.061,533.208 235.5,512.5 Z"/></g>
<g><path style="opacity:1" fill="#edb4a7" d="M 237.5,512.5 C 300.912,536.971 364.245,561.637 427.5,586.5C 427.833,586.5 428.167,586.5 428.5,586.5C 428.5,586.833 428.5,587.167 428.5,587.5C 428.167,587.5 427.833,587.5 427.5,587.5C 389.5,616.5 351.5,645.5 313.5,674.5C 313.167,674.5 312.833,674.5 312.5,674.5C 312.5,673.833 312.167,673.5 311.5,673.5C 286.56,619.953 261.893,566.286 237.5,512.5 Z"/></g>
<g><path style="opacity:1" fill="#dfebf2" d="M 1304.5,519.5 C 1304.5,519.833 1304.5,520.167 1304.5,520.5C 1274.84,558.461 1245.18,596.461 1215.5,634.5C 1147.95,655.573 1080.28,676.24 1012.5,696.5C 1055.55,646.455 1098.55,596.455 1141.5,546.5C 1195.85,537.593 1250.18,528.593 1304.5,519.5 Z"/></g>
<g><path style="opacity:1" fill="#cee2ee" d="M 1304.5,520.5 C 1324.09,583.056 1343.75,645.722 1363.5,708.5C 1353.63,704.564 1343.96,700.064 1334.5,695C 1295.5,674.833 1256.5,654.667 1217.5,634.5C 1216.82,634.863 1216.15,635.196 1215.5,635.5C 1215.5,635.167 1215.5,634.833 1215.5,634.5C 1245.18,596.461 1274.84,558.461 1304.5,520.5 Z"/></g>
<g><path style="opacity:1" fill="#eee1da" d="M 780.5,529.5 C 780.833,529.5 781.167,529.5 781.5,529.5C 781.5,529.833 781.5,530.167 781.5,530.5C 781.5,531.167 781.5,531.833 781.5,532.5C 772.133,600.417 763.133,668.75 754.5,737.5C 754.5,737.833 754.5,738.167 754.5,738.5C 754.167,738.5 753.833,738.5 753.5,738.5C 701.328,728.525 648.994,718.858 596.5,709.5C 596.859,707.629 597.859,706.129 599.5,705C 659.699,646.966 719.699,588.8 779.5,530.5C 780.167,530.5 780.5,530.167 780.5,529.5 Z"/></g>
<g><path style="opacity:1" fill="#f0ece8" d="M 781.5,530.5 C 818.63,549.232 855.63,568.232 892.5,587.5C 892.833,587.5 893.167,587.5 893.5,587.5C 893.5,587.833 893.5,588.167 893.5,588.5C 873.655,633.534 854.322,678.867 835.5,724.5C 835.167,724.5 834.833,724.5 834.5,724.5C 817.084,660.414 799.417,596.414 781.5,532.5C 781.5,531.833 781.5,531.167 781.5,530.5 Z"/></g>
<g><path style="opacity:1" fill="#ece6e3" d="M 781.5,532.5 C 799.417,596.414 817.084,660.414 834.5,724.5C 833.116,725.801 831.616,725.801 830,724.5C 829.667,725.167 829.333,725.833 829,726.5C 827.093,726.579 825.093,726.246 823,725.5C 820.371,726.663 817.705,727.663 815,728.5C 811.831,729.235 808.498,729.235 805,728.5C 799.85,730.561 794.517,731.894 789,732.5C 788.667,732.167 788.333,731.833 788,731.5C 786.445,733.146 784.779,733.479 783,732.5C 777.748,734.49 772.414,735.157 767,734.5C 763.162,736.507 758.995,737.507 754.5,737.5C 763.133,668.75 772.133,600.417 781.5,532.5 Z"/></g>
<g><path style="opacity:1" fill="#e9f1f3" d="M 1140.5,546.5 C 1140.83,546.5 1141.17,546.5 1141.5,546.5C 1098.55,596.455 1055.55,646.455 1012.5,696.5C 1012.17,696.5 1011.83,696.5 1011.5,696.5C 1011.5,696.167 1011.5,695.833 1011.5,695.5C 1002.21,651.664 993.543,607.664 985.5,563.5C 986.167,563.5 986.5,563.167 986.5,562.5C 1037.79,556.905 1089.12,551.571 1140.5,546.5 Z"/></g>
<g><path style="opacity:1" fill="#9ec1dc" d="M 1751.5,553.5 C 1713.83,608.833 1676.17,664.167 1638.5,719.5C 1638.17,719.5 1637.83,719.5 1637.5,719.5C 1637.59,718.504 1637.25,717.671 1636.5,717C 1637.17,716.667 1637.83,716.333 1638.5,716C 1637.31,713.943 1636.31,711.943 1635.5,710C 1635.49,708.417 1635.83,706.751 1636.5,705C 1635.13,703.559 1634.13,701.892 1633.5,700C 1633.08,696.697 1633.08,693.697 1633.5,691C 1631.11,689.691 1631.11,688.691 1633.5,688C 1632.11,686.829 1631.27,685.329 1631,683.5C 1630.41,677.185 1629.24,670.685 1627.5,664C 1627.59,662.893 1627.92,661.893 1628.5,661C 1625.9,657.196 1624.56,653.196 1624.5,649C 1624.42,647.093 1624.75,645.093 1625.5,643C 1624.13,641.559 1623.13,639.892 1622.5,638C 1622.49,636.417 1622.83,634.751 1623.5,633C 1622.83,632.667 1622.17,632.333 1621.5,632C 1622.24,630.176 1622.57,628.176 1622.5,626C 1621.26,624.846 1620.26,623.512 1619.5,622C 1620.37,619.965 1620.71,617.632 1620.5,615C 1619,613.663 1618,611.996 1617.5,610C 1617.41,608.284 1617.74,606.451 1618.5,604.5C 1617.13,602.51 1616.13,600.343 1615.5,598C 1616.17,597.667 1616.83,597.333 1617.5,597C 1615.73,594.617 1614.39,591.95 1613.5,589C 1616.17,588.333 1616.17,587.667 1613.5,587C 1613.83,586.667 1614.17,586.333 1614.5,586C 1612.31,580.055 1611.31,573.889 1611.5,567.5C 1658.15,562.613 1704.81,557.947 1751.5,553.5 Z"/></g>
<g><path style="opacity:1" fill="#92b8d8" d="M 1751.5,553.5 C 1751.83,553.5 1752.17,553.5 1752.5,553.5C 1769.3,607.899 1786.3,662.232 1803.5,716.5C 1748.67,717.999 1693.67,718.999 1638.5,719.5C 1676.17,664.167 1713.83,608.833 1751.5,553.5 Z"/></g>
<g><path style="opacity:1" fill="#90afd4" d="M 1752.5,553.5 C 1808.3,581.565 1863.96,609.898 1919.5,638.5C 1919.5,643.167 1919.5,647.833 1919.5,652.5C 1881.47,674.179 1843.47,695.845 1805.5,717.5C 1805.17,717.5 1804.83,717.5 1804.5,717.5C 1804.5,716.833 1804.17,716.5 1803.5,716.5C 1786.3,662.232 1769.3,607.899 1752.5,553.5 Z"/></g>
<g><path style="opacity:1" fill="#edf2f5" d="M 985.5,563.5 C 993.543,607.664 1002.21,651.664 1011.5,695.5C 971.82,660.308 932.487,624.641 893.5,588.5C 893.5,588.167 893.5,587.833 893.5,587.5C 924.217,579.706 954.883,571.706 985.5,563.5 Z"/></g>
<g><path style="opacity:1" fill="#a1c6df" d="M 1610.5,567.5 C 1610.83,567.5 1611.17,567.5 1611.5,567.5C 1611.31,573.889 1612.31,580.055 1614.5,586C 1614.17,586.333 1613.83,586.667 1613.5,587C 1616.17,587.667 1616.17,588.333 1613.5,589C 1614.39,591.95 1615.73,594.617 1617.5,597C 1616.83,597.333 1616.17,597.667 1615.5,598C 1616.13,600.343 1617.13,602.51 1618.5,604.5C 1617.74,606.451 1617.41,608.284 1617.5,610C 1618,611.996 1619,613.663 1620.5,615C 1620.71,617.632 1620.37,619.965 1619.5,622C 1620.26,623.512 1621.26,624.846 1622.5,626C 1622.57,628.176 1622.24,630.176 1621.5,632C 1622.17,632.333 1622.83,632.667 1623.5,633C 1622.83,634.751 1622.49,636.417 1622.5,638C 1623.13,639.892 1624.13,641.559 1625.5,643C 1624.75,645.093 1624.42,647.093 1624.5,649C 1624.56,653.196 1625.9,657.196 1628.5,661C 1627.92,661.893 1627.59,662.893 1627.5,664C 1629.24,670.685 1630.41,677.185 1631,683.5C 1631.27,685.329 1632.11,686.829 1633.5,688C 1631.11,688.691 1631.11,689.691 1633.5,691C 1633.08,693.697 1633.08,696.697 1633.5,700C 1634.13,701.892 1635.13,703.559 1636.5,705C 1635.83,706.751 1635.49,708.417 1635.5,710C 1636.31,711.943 1637.31,713.943 1638.5,716C 1637.83,716.333 1637.17,716.667 1636.5,717C 1637.25,717.671 1637.59,718.504 1637.5,719.5C 1636.83,719.5 1636.17,719.5 1635.5,719.5C 1599.19,722.665 1562.86,725.665 1526.5,728.5C 1554.76,674.991 1582.76,621.324 1610.5,567.5 Z"/></g>
<g><path style="opacity:1" fill="#de9690" d="M 165.5,572.5 C 165.833,572.5 166.167,572.5 166.5,572.5C 166.5,572.833 166.5,573.167 166.5,573.5C 140.481,606.858 114.814,640.525 89.5,674.5C 89.1667,674.5 88.8333,674.5 88.5,674.5C 59.1894,650.538 29.5227,626.871 -0.5,603.5C -0.5,597.833 -0.5,592.167 -0.5,586.5C 4.66696,586.895 10.167,586.228 16,584.5C 18.6606,585.346 21.6606,585.012 25,583.5C 29.4121,584.467 34.0788,584.133 39,582.5C 41.6606,583.346 44.6606,583.012 48,581.5C 53.7552,581.645 59.4218,581.645 65,581.5C 67.6667,580.833 70.3333,580.167 73,579.5C 74,579.833 75,580.167 76,580.5C 79,579.833 82,579.167 85,578.5C 86,578.833 87,579.167 88,579.5C 90.6667,578.833 93.3333,578.167 96,577.5C 97,577.833 98,578.167 99,578.5C 101.667,577.833 104.333,577.167 107,576.5C 108.398,577.051 109.732,577.384 111,577.5C 113.667,576.833 116.333,576.167 119,575.5C 120,575.833 121,576.167 122,576.5C 126.967,574.879 131.3,574.546 135,575.5C 140.825,574.095 146.825,573.095 153,572.5C 156.746,572.981 160.913,572.981 165.5,572.5 Z"/></g>
<g><path style="opacity:1" fill="#e1a098" d="M 166.5,573.5 C 214.833,606.833 263.167,640.167 311.5,673.5C 312.167,673.5 312.5,673.833 312.5,674.5C 238.742,674.597 164.742,674.597 90.5,674.5C 90.1667,674.5 89.8333,674.5 89.5,674.5C 114.814,640.525 140.481,606.858 166.5,573.5 Z"/></g>
<g><path style="opacity:1" fill="#e9b9ac" d="M 427.5,587.5 C 412.507,629.489 397.507,671.489 382.5,713.5C 381.833,713.167 381.167,712.833 380.5,712.5C 358.327,699.913 335.994,687.58 313.5,675.5C 313.5,675.167 313.5,674.833 313.5,674.5C 351.5,645.5 389.5,616.5 427.5,587.5 Z"/></g>
<g><path style="opacity:1" fill="#ecc5b6" d="M 427.5,587.5 C 427.833,587.5 428.167,587.5 428.5,587.5C 481.159,625.502 533.493,664.002 585.5,703C 588.059,704.777 590.726,706.277 593.5,707.5C 593.5,707.833 593.5,708.167 593.5,708.5C 582.431,709.177 571.265,709.843 560,710.5C 555.875,709.792 551.875,709.459 548,709.5C 534.333,710.167 520.667,710.833 507,711.5C 503.125,711.541 499.125,711.208 495,710.5C 457.278,711.597 419.778,712.597 382.5,713.5C 397.507,671.489 412.507,629.489 427.5,587.5 Z"/></g>
<g><path style="opacity:1" fill="#e8eeef" d="M 893.5,588.5 C 932.487,624.641 971.82,660.308 1011.5,695.5C 1011.5,695.833 1011.5,696.167 1011.5,696.5C 953.004,705.658 894.337,714.991 835.5,724.5C 854.322,678.867 873.655,633.534 893.5,588.5 Z"/></g>
<g><path style="opacity:1" fill="#d68f8a" d="M -0.5,603.5 C 29.5227,626.871 59.1894,650.538 88.5,674.5C 81.2757,674.051 74.109,674.051 67,674.5C 61.3333,673.833 55.6667,673.167 50,672.5C 42.839,673.179 35.5057,673.512 28,673.5C 24.3333,672.833 20.6667,672.167 17,671.5C 16.3292,672.252 15.4959,672.586 14.5,672.5C 9.67723,660.68 4.67723,649.013 -0.5,637.5C -0.5,626.167 -0.5,614.833 -0.5,603.5 Z"/></g>
<g><path style="opacity:1" fill="#d2e4ef" d="M 1215.5,634.5 C 1215.5,634.833 1215.5,635.167 1215.5,635.5C 1196.19,710.755 1177.19,786.088 1158.5,861.5C 1157.89,862.391 1157.56,863.391 1157.5,864.5C 1157.17,864.5 1156.83,864.5 1156.5,864.5C 1108.23,810.037 1060.4,755.037 1013,699.5C 1025.48,750.084 1037.98,800.751 1050.5,851.5C 998.277,832.872 946.277,813.872 894.5,794.5C 933.542,761.456 972.875,728.79 1012.5,696.5C 1080.28,676.24 1147.95,655.573 1215.5,634.5 Z"/></g>
<g><path style="opacity:1" fill="#c6ddeb" d="M 1363.5,708.5 C 1363.5,708.833 1363.5,709.167 1363.5,709.5C 1295.17,760.167 1226.83,810.833 1158.5,861.5C 1177.19,786.088 1196.19,710.755 1215.5,635.5C 1216.15,635.196 1216.82,634.863 1217.5,634.5C 1256.5,654.667 1295.5,674.833 1334.5,695C 1343.96,700.064 1353.63,704.564 1363.5,708.5 Z"/></g>
<g><path style="opacity:1" fill="#cb8787" d="M -0.5,637.5 C 4.67723,649.013 9.67723,660.68 14.5,672.5C 14.1667,672.5 13.8333,672.5 13.5,672.5C 8.83333,674.167 4.16667,675.833 -0.5,677.5C -0.5,664.167 -0.5,650.833 -0.5,637.5 Z"/></g>
<g><path style="opacity:1" fill="#83a7d0" d="M 1919.5,652.5 C 1919.5,662.167 1919.5,671.833 1919.5,681.5C 1906.99,715.02 1894.66,748.687 1882.5,782.5C 1856.24,761.536 1830.57,739.869 1805.5,717.5C 1843.47,695.845 1881.47,674.179 1919.5,652.5 Z"/></g>
<g><path style="opacity:1" fill="#cc8b8a" d="M 88.5,674.5 C 90.3268,745.148 91.6601,815.814 92.5,886.5C 65.9286,815.46 39.9286,744.126 14.5,672.5C 15.4959,672.586 16.3292,672.252 17,671.5C 20.6667,672.167 24.3333,672.833 28,673.5C 35.5057,673.512 42.839,673.179 50,672.5C 55.6667,673.167 61.3333,673.833 67,674.5C 74.109,674.051 81.2757,674.051 88.5,674.5 Z"/></g>
<g><path style="opacity:1" fill="#bd8083" d="M 13.5,672.5 C 9.43542,689.436 4.76875,706.103 -0.5,722.5C -0.5,707.5 -0.5,692.5 -0.5,677.5C 4.16667,675.833 8.83333,674.167 13.5,672.5 Z"/></g>
<g><path style="opacity:1" fill="#bf8183" d="M 13.5,672.5 C 13.8333,672.5 14.1667,672.5 14.5,672.5C 39.9286,744.126 65.9286,815.46 92.5,886.5C 92.5,886.833 92.5,887.167 92.5,887.5C 61.4917,886.318 30.4917,884.984 -0.5,883.5C -0.5,829.833 -0.5,776.167 -0.5,722.5C 4.76875,706.103 9.43542,689.436 13.5,672.5 Z"/></g>
<g><path style="opacity:1" fill="#c8918f" d="M 88.5,674.5 C 88.8333,674.5 89.1667,674.5 89.5,674.5C 89.8333,674.5 90.1667,674.5 90.5,674.5C 155.135,743.136 220.135,811.469 285.5,879.5C 282.359,880.321 279.025,880.821 275.5,881C 214.832,883.214 154.166,885.381 93.5,887.5C 93.1667,887.5 92.8333,887.5 92.5,887.5C 92.5,887.167 92.5,886.833 92.5,886.5C 91.6601,815.814 90.3268,745.148 88.5,674.5 Z"/></g>
<g><path style="opacity:1" fill="#d89f98" d="M 312.5,674.5 C 312.833,674.5 313.167,674.5 313.5,674.5C 313.5,674.833 313.5,675.167 313.5,675.5C 305.66,741.151 297.327,807.485 288.5,874.5C 287.659,876.379 287.325,878.379 287.5,880.5C 287.5,881.167 287.167,881.5 286.5,881.5C 286.672,880.508 286.338,879.842 285.5,879.5C 220.135,811.469 155.135,743.136 90.5,674.5C 164.742,674.597 238.742,674.597 312.5,674.5 Z"/></g>
<g><path style="opacity:1" fill="#daaca3" d="M 313.5,675.5 C 335.994,687.58 358.327,699.913 380.5,712.5C 350.336,766.833 319.669,820.833 288.5,874.5C 297.327,807.485 305.66,741.151 313.5,675.5 Z"/></g>
<g><path style="opacity:1" fill="#809bc4" d="M 1919.5,681.5 C 1919.5,710.167 1919.5,738.833 1919.5,767.5C 1907.1,772.301 1894.77,777.301 1882.5,782.5C 1894.66,748.687 1906.99,715.02 1919.5,681.5 Z"/></g>
<g><path style="opacity:1" fill="#dfe8ed" d="M 1011.5,696.5 C 1011.83,696.5 1012.17,696.5 1012.5,696.5C 972.875,728.79 933.542,761.456 894.5,794.5C 893.833,794.5 893.167,794.5 892.5,794.5C 892.5,793.833 892.167,793.5 891.5,793.5C 872.585,770.653 853.919,747.653 835.5,724.5C 894.337,714.991 953.004,705.658 1011.5,696.5 Z"/></g>
<g><path style="opacity:1" fill="#c8dfec" d="M 1156.5,864.5 C 1121.45,860.411 1086.45,856.078 1051.5,851.5C 1051.17,851.5 1050.83,851.5 1050.5,851.5C 1037.98,800.751 1025.48,750.084 1013,699.5C 1060.4,755.037 1108.23,810.037 1156.5,864.5 Z"/></g>
<g><path style="opacity:1" fill="#e2bfb3" d="M 593.5,708.5 C 594.167,708.5 594.5,708.833 594.5,709.5C 594.5,709.833 594.5,710.167 594.5,710.5C 530.855,739.991 467.522,769.991 404.5,800.5C 403.833,800.5 403.167,800.5 402.5,800.5C 402.167,800.5 401.833,800.5 401.5,800.5C 395.222,771.888 388.555,743.388 381.5,715C 382.056,714.617 382.389,714.117 382.5,713.5C 419.778,712.597 457.278,711.597 495,710.5C 499.125,711.208 503.125,711.541 507,711.5C 520.667,710.833 534.333,710.167 548,709.5C 551.875,709.459 555.875,709.792 560,710.5C 571.265,709.843 582.431,709.177 593.5,708.5 Z"/></g>
<g><path style="opacity:1" fill="#dcd1cc" d="M 594.5,709.5 C 594.833,709.5 595.167,709.5 595.5,709.5C 636.664,735.586 678.331,760.919 720.5,785.5C 720.5,785.833 720.5,786.167 720.5,786.5C 720.167,786.5 719.833,786.5 719.5,786.5C 683.834,797.833 648.167,809.166 612.5,820.5C 612.167,820.5 611.833,820.5 611.5,820.5C 606.205,783.765 600.538,747.098 594.5,710.5C 594.5,710.167 594.5,709.833 594.5,709.5 Z"/></g>
<g><path style="opacity:1" fill="#e1d9d4" d="M 595.5,709.5 C 595.833,709.5 596.167,709.5 596.5,709.5C 648.994,718.858 701.328,728.525 753.5,738.5C 742.746,754.342 731.746,770.008 720.5,785.5C 678.331,760.919 636.664,735.586 595.5,709.5 Z"/></g>
<g><path style="opacity:1" fill="#b4d4e6" d="M 1363.5,709.5 C 1363.83,709.5 1364.17,709.5 1364.5,709.5C 1365.17,709.5 1365.5,709.833 1365.5,710.5C 1364.18,713.258 1363.52,716.424 1363.5,720C 1364.36,753.166 1365.02,785.999 1365.5,818.5C 1365.5,818.833 1365.5,819.167 1365.5,819.5C 1296.12,834.286 1226.78,849.286 1157.5,864.5C 1157.56,863.391 1157.89,862.391 1158.5,861.5C 1226.83,810.833 1295.17,760.167 1363.5,709.5 Z"/></g>
<g><path style="opacity:1" fill="#ddc5bc" d="M 594.5,710.5 C 600.538,747.098 606.205,783.765 611.5,820.5C 542.305,813.553 473.305,806.886 404.5,800.5C 467.522,769.991 530.855,739.991 594.5,710.5 Z"/></g>
<g><path style="opacity:1" fill="#a8cfe4" d="M 1365.5,710.5 C 1366.96,710.433 1368.29,710.766 1369.5,711.5C 1379.88,717.101 1390.05,722.435 1400,727.5C 1401.4,726.949 1402.73,726.616 1404,726.5C 1404.33,727.167 1404.67,727.833 1405,728.5C 1406,728.5 1407,728.5 1408,728.5C 1412.45,732.458 1416.78,735.792 1421,738.5C 1427.1,740.2 1433.1,742.867 1439,746.5C 1439.91,742.815 1440.58,743.148 1441,747.5C 1442.02,746.366 1442.68,746.699 1443,748.5C 1443.33,748.167 1443.67,747.833 1444,747.5C 1447.91,751.679 1452.25,753.345 1457,752.5C 1457.92,754.632 1459.25,755.299 1461,754.5C 1461.5,755.667 1462.33,756.5 1463.5,757C 1463.17,757.333 1462.83,757.667 1462.5,758C 1474.2,763.366 1484.87,768.533 1494.5,773.5C 1496.88,774.211 1499.38,775.544 1502,777.5C 1502.33,776.833 1502.67,776.167 1503,775.5C 1506.42,778.39 1510.09,780.056 1514,780.5C 1515.39,782.702 1516.89,784.702 1518.5,786.5C 1467.53,797.326 1416.53,807.993 1365.5,818.5C 1365.02,785.999 1364.36,753.166 1363.5,720C 1363.52,716.424 1364.18,713.258 1365.5,710.5 Z"/></g>
<g><path style="opacity:1" fill="#d4aca5" d="M 380.5,712.5 C 381.167,712.833 381.833,713.167 382.5,713.5C 382.389,714.117 382.056,714.617 381.5,715C 388.555,743.388 395.222,771.888 401.5,800.5C 401.167,801.167 400.833,801.833 400.5,802.5C 362.688,828.243 325.022,854.243 287.5,880.5C 287.325,878.379 287.659,876.379 288.5,874.5C 319.669,820.833 350.336,766.833 380.5,712.5 Z"/></g>
<g><path style="opacity:1" fill="#85b4d6" d="M 1803.5,716.5 C 1804.17,716.5 1804.5,716.833 1804.5,717.5C 1804.5,717.833 1804.5,718.167 1804.5,718.5C 1752.19,748.655 1699.86,778.822 1647.5,809C 1645.98,810.009 1644.31,810.509 1642.5,810.5C 1641.17,781.479 1639.5,752.479 1637.5,723.5C 1637.62,722.075 1637.96,720.742 1638.5,719.5C 1693.67,718.999 1748.67,717.999 1803.5,716.5 Z"/></g>
<g><path style="opacity:1" fill="#79acd1" d="M 1804.5,718.5 C 1785.17,771.833 1765.83,825.167 1746.5,878.5C 1746.5,878.833 1746.5,879.167 1746.5,879.5C 1745.83,879.5 1745.17,879.5 1744.5,879.5C 1710.78,856.449 1676.78,833.782 1642.5,811.5C 1642.5,811.167 1642.5,810.833 1642.5,810.5C 1644.31,810.509 1645.98,810.009 1647.5,809C 1699.86,778.822 1752.19,748.655 1804.5,718.5 Z"/></g>
<g><path style="opacity:1" fill="#78a6ce" d="M 1804.5,717.5 C 1804.83,717.5 1805.17,717.5 1805.5,717.5C 1830.57,739.869 1856.24,761.536 1882.5,782.5C 1882.5,782.833 1882.5,783.167 1882.5,783.5C 1882.17,783.5 1881.83,783.5 1881.5,783.5C 1836.32,814.921 1791.32,846.587 1746.5,878.5C 1765.83,825.167 1785.17,771.833 1804.5,718.5C 1804.5,718.167 1804.5,717.833 1804.5,717.5 Z"/></g>
<g><path style="opacity:1" fill="#8ebcda" d="M 1635.5,719.5 C 1636.17,719.5 1636.83,719.5 1637.5,719.5C 1637.83,719.5 1638.17,719.5 1638.5,719.5C 1637.96,720.742 1637.62,722.075 1637.5,723.5C 1639.5,752.479 1641.17,781.479 1642.5,810.5C 1601.44,802.317 1560.44,793.983 1519.5,785.5C 1519.5,784.833 1519.5,784.167 1519.5,783.5C 1558.5,762.671 1597.16,741.337 1635.5,719.5 Z"/></g>
<g><path style="opacity:1" fill="#98c4de" d="M 1635.5,719.5 C 1597.16,741.337 1558.5,762.671 1519.5,783.5C 1521.66,765.518 1523.66,747.518 1525.5,729.5C 1525.5,729.167 1525.5,728.833 1525.5,728.5C 1525.83,728.5 1526.17,728.5 1526.5,728.5C 1562.86,725.665 1599.19,722.665 1635.5,719.5 Z"/></g>
<g><path style="opacity:1" fill="#dee2e4" d="M 834.5,724.5 C 834.833,724.5 835.167,724.5 835.5,724.5C 853.919,747.653 872.585,770.653 891.5,793.5C 845.754,775.362 800.087,757.029 754.5,738.5C 754.5,738.167 754.5,737.833 754.5,737.5C 758.995,737.507 763.162,736.507 767,734.5C 772.414,735.157 777.748,734.49 783,732.5C 784.779,733.479 786.445,733.146 788,731.5C 788.333,731.833 788.667,732.167 789,732.5C 794.517,731.894 799.85,730.561 805,728.5C 808.498,729.235 811.831,729.235 815,728.5C 817.705,727.663 820.371,726.663 823,725.5C 825.093,726.246 827.093,726.579 829,726.5C 829.333,725.833 829.667,725.167 830,724.5C 831.616,725.801 833.116,725.801 834.5,724.5 Z"/></g>
<g><path style="opacity:1" fill="#dcdede" d="M 753.5,738.5 C 753.833,738.5 754.167,738.5 754.5,738.5C 800.087,757.029 845.754,775.362 891.5,793.5C 892.167,793.5 892.5,793.833 892.5,794.5C 892.5,794.833 892.5,795.167 892.5,795.5C 834.877,792.312 777.544,789.312 720.5,786.5C 720.5,786.167 720.5,785.833 720.5,785.5C 731.746,770.008 742.746,754.342 753.5,738.5 Z"/></g>
<g><path style="opacity:1" fill="#a6cee4" d="M 1369.5,711.5 C 1421.55,717.135 1473.55,723.135 1525.5,729.5C 1523.66,747.518 1521.66,765.518 1519.5,783.5C 1519.5,784.167 1519.5,784.833 1519.5,785.5C 1519.5,786.167 1519.17,786.5 1518.5,786.5C 1516.89,784.702 1515.39,782.702 1514,780.5C 1510.09,780.056 1506.42,778.39 1503,775.5C 1502.67,776.167 1502.33,776.833 1502,777.5C 1499.38,775.544 1496.88,774.211 1494.5,773.5C 1484.87,768.533 1474.2,763.366 1462.5,758C 1462.83,757.667 1463.17,757.333 1463.5,757C 1462.33,756.5 1461.5,755.667 1461,754.5C 1459.25,755.299 1457.92,754.632 1457,752.5C 1452.25,753.345 1447.91,751.679 1444,747.5C 1443.67,747.833 1443.33,748.167 1443,748.5C 1442.68,746.699 1442.02,746.366 1441,747.5C 1440.58,743.148 1439.91,742.815 1439,746.5C 1433.1,742.867 1427.1,740.2 1421,738.5C 1416.78,735.792 1412.45,732.458 1408,728.5C 1407,728.5 1406,728.5 1405,728.5C 1404.67,727.833 1404.33,727.167 1404,726.5C 1402.73,726.616 1401.4,726.949 1400,727.5C 1390.05,722.435 1379.88,717.101 1369.5,711.5 Z"/></g>
<g><path style="opacity:1" fill="#6c8cb4" d="M 1919.5,767.5 C 1919.5,777.5 1919.5,787.5 1919.5,797.5C 1907.17,792.833 1894.83,788.167 1882.5,783.5C 1882.5,783.167 1882.5,782.833 1882.5,782.5C 1894.77,777.301 1907.1,772.301 1919.5,767.5 Z"/></g>
<g><path style="opacity:1" fill="#679bc8" d="M 1881.5,783.5 C 1886.37,831.109 1890.71,878.776 1894.5,926.5C 1894.81,928.924 1894.47,931.257 1893.5,933.5C 1844.54,915.626 1795.54,897.959 1746.5,880.5C 1746.5,880.167 1746.5,879.833 1746.5,879.5C 1746.5,879.167 1746.5,878.833 1746.5,878.5C 1791.32,846.587 1836.32,814.921 1881.5,783.5 Z"/></g>
<g><path style="opacity:1" fill="#5f8ebd" d="M 1881.5,783.5 C 1881.83,783.5 1882.17,783.5 1882.5,783.5C 1894.83,788.167 1907.17,792.833 1919.5,797.5C 1919.5,841.5 1919.5,885.5 1919.5,929.5C 1911.87,931.324 1904.2,932.99 1896.5,934.5C 1896.17,934.5 1895.83,934.5 1895.5,934.5C 1895.81,931.615 1895.47,928.948 1894.5,926.5C 1890.71,878.776 1886.37,831.109 1881.5,783.5 Z"/></g>
<g><path style="opacity:1" fill="#86bad9" d="M 1519.5,785.5 C 1560.44,793.983 1601.44,802.317 1642.5,810.5C 1642.5,810.833 1642.5,811.167 1642.5,811.5C 1592.78,855.229 1542.78,898.563 1492.5,941.5C 1501.43,889.875 1510.09,838.208 1518.5,786.5C 1519.17,786.5 1519.5,786.167 1519.5,785.5 Z"/></g>
<g><path style="opacity:1" fill="#cfcecf" d="M 719.5,786.5 C 723.374,841.482 727.041,896.482 730.5,951.5C 690.826,908.492 651.492,865.158 612.5,821.5C 612.5,821.167 612.5,820.833 612.5,820.5C 648.167,809.166 683.834,797.833 719.5,786.5 Z"/></g>
<g><path style="opacity:1" fill="#c4cdd3" d="M 719.5,786.5 C 719.833,786.5 720.167,786.5 720.5,786.5C 758.415,843.329 796.082,900.329 833.5,957.5C 816.715,957.062 800.048,956.062 783.5,954.5C 782.914,954.709 782.414,955.043 782,955.5C 765.614,954.138 748.947,952.804 732,951.5C 731.601,951.728 731.435,952.062 731.5,952.5C 731.167,952.5 730.833,952.5 730.5,952.5C 730.5,952.167 730.5,951.833 730.5,951.5C 727.041,896.482 723.374,841.482 719.5,786.5 Z"/></g>
<g><path style="opacity:1" fill="#cdd7de" d="M 720.5,786.5 C 777.544,789.312 834.877,792.312 892.5,795.5C 892.5,796.167 892.5,796.833 892.5,797.5C 873.539,851.389 854.206,905.056 834.5,958.5C 834.5,957.833 834.167,957.5 833.5,957.5C 796.082,900.329 758.415,843.329 720.5,786.5 Z"/></g>
<g><path style="opacity:1" fill="#91c3dd" d="M 1518.5,786.5 C 1510.09,838.208 1501.43,889.875 1492.5,941.5C 1492.5,942.167 1492.5,942.833 1492.5,943.5C 1451.17,944.182 1409.84,944.516 1368.5,944.5C 1368.5,944.167 1368.5,943.833 1368.5,943.5C 1367.66,902.162 1366.66,860.828 1365.5,819.5C 1365.5,819.167 1365.5,818.833 1365.5,818.5C 1416.53,807.993 1467.53,797.326 1518.5,786.5 Z"/></g>
<g><path style="opacity:1" fill="#c1dae9" d="M 892.5,794.5 C 893.167,794.5 893.833,794.5 894.5,794.5C 946.277,813.872 998.277,832.872 1050.5,851.5C 1050.83,851.5 1051.17,851.5 1051.5,851.5C 1039.86,896.733 1028.52,942.067 1017.5,987.5C 1017.17,987.5 1016.83,987.5 1016.5,987.5C 1015.83,987.5 1015.17,987.5 1014.5,987.5C 974.828,923.479 934.161,860.146 892.5,797.5C 892.5,796.833 892.5,796.167 892.5,795.5C 892.5,795.167 892.5,794.833 892.5,794.5 Z"/></g>
<g><path style="opacity:1" fill="#bed3e2" d="M 892.5,797.5 C 934.161,860.146 974.828,923.479 1014.5,987.5C 957.544,978.196 900.544,969.03 843.5,960C 840.408,959.264 837.408,959.431 834.5,960.5C 834.5,959.833 834.5,959.167 834.5,958.5C 854.206,905.056 873.539,851.389 892.5,797.5 Z"/></g>
<g><path style="opacity:1" fill="#bb9e9f" d="M 401.5,800.5 C 401.833,800.5 402.167,800.5 402.5,800.5C 402.5,801.167 402.5,801.833 402.5,802.5C 430.7,879.769 458.7,957.102 486.5,1034.5C 486.565,1034.94 486.399,1035.27 486,1035.5C 423.911,1023.18 361.745,1011.18 299.5,999.5C 299.5,999.167 299.5,998.833 299.5,998.5C 333.66,933.516 367.326,868.183 400.5,802.5C 400.833,801.833 401.167,801.167 401.5,800.5 Z"/></g>
<g><path style="opacity:1" fill="#c49e9c" d="M 400.5,802.5 C 367.326,868.183 333.66,933.516 299.5,998.5C 299.167,998.5 298.833,998.5 298.5,998.5C 294.762,959.788 290.762,921.121 286.5,882.5C 286.5,882.167 286.5,881.833 286.5,881.5C 287.167,881.5 287.5,881.167 287.5,880.5C 325.022,854.243 362.688,828.243 400.5,802.5 Z"/></g>
<g><path style="opacity:1" fill="#c0abaa" d="M 402.5,802.5 C 451.572,857.236 499.906,912.569 547.5,968.5C 528.205,991.13 508.539,1013.46 488.5,1035.5C 487.833,1035.17 487.167,1034.83 486.5,1034.5C 458.7,957.102 430.7,879.769 402.5,802.5 Z"/></g>
<g><path style="opacity:1" fill="#64a5cd" d="M 1642.5,811.5 C 1676.78,833.782 1710.78,856.449 1744.5,879.5C 1723.69,931.281 1702.69,982.947 1681.5,1034.5C 1680.51,1034.67 1679.84,1034.34 1679.5,1033.5C 1667.65,959.747 1655.32,885.747 1642.5,811.5 Z"/></g>
<g><path style="opacity:1" fill="#6caad0" d="M 1642.5,811.5 C 1655.32,885.747 1667.65,959.747 1679.5,1033.5C 1617.04,1003.77 1554.71,973.773 1492.5,943.5C 1492.5,942.833 1492.5,942.167 1492.5,941.5C 1542.78,898.563 1592.78,855.229 1642.5,811.5 Z"/></g>
<g><path style="opacity:1" fill="#a4cce3" d="M 1365.5,819.5 C 1366.66,860.828 1367.66,902.162 1368.5,943.5C 1366.28,943.822 1364.44,943.155 1363,941.5C 1362.67,941.833 1362.33,942.167 1362,942.5C 1359.71,941.526 1357.71,940.193 1356,938.5C 1355.67,938.833 1355.33,939.167 1355,939.5C 1351.51,938.089 1348.18,936.423 1345,934.5C 1343,935.271 1341.34,934.605 1340,932.5C 1337.68,933.367 1335.68,932.701 1334,930.5C 1333.67,930.833 1333.33,931.167 1333,931.5C 1322.83,927.64 1312.5,923.307 1302,918.5C 1301.67,918.833 1301.33,919.167 1301,919.5C 1297.67,917.296 1294.33,915.962 1291,915.5C 1287.37,914.402 1284.04,912.736 1281,910.5C 1280.67,910.833 1280.33,911.167 1280,911.5C 1276.15,909.946 1272.15,907.946 1268,905.5C 1264.15,905.445 1260.49,904.112 1257,901.5C 1255.98,902.634 1255.32,902.301 1255,900.5C 1254.67,900.833 1254.33,901.167 1254,901.5C 1252.33,900.5 1250.67,899.5 1249,898.5C 1248.67,898.833 1248.33,899.167 1248,899.5C 1244.67,897.296 1241.33,895.962 1238,895.5C 1235.44,894.458 1233.11,893.125 1231,891.5C 1230.67,891.833 1230.33,892.167 1230,892.5C 1225,890.167 1220,887.833 1215,885.5C 1211.15,885.445 1207.49,884.112 1204,881.5C 1202.98,882.634 1202.32,882.301 1202,880.5C 1201.67,880.833 1201.33,881.167 1201,881.5C 1186.16,875.07 1171.66,869.736 1157.5,865.5C 1157.5,865.167 1157.5,864.833 1157.5,864.5C 1226.78,849.286 1296.12,834.286 1365.5,819.5 Z"/></g>
<g><path style="opacity:1" fill="#c4bec1" d="M 612.5,821.5 C 651.492,865.158 690.826,908.492 730.5,951.5C 730.5,951.833 730.5,952.167 730.5,952.5C 730.5,952.833 730.5,953.167 730.5,953.5C 669.845,958.61 609.178,963.61 548.5,968.5C 569.074,919.093 590.407,870.093 612.5,821.5 Z"/></g>
<g><path style="opacity:1" fill="#b5d4e6" d="M 1051.5,851.5 C 1086.45,856.078 1121.45,860.411 1156.5,864.5C 1156.83,864.5 1157.17,864.5 1157.5,864.5C 1157.5,864.833 1157.5,865.167 1157.5,865.5C 1110.56,905.771 1063.89,946.438 1017.5,987.5C 1028.52,942.067 1039.86,896.733 1051.5,851.5 Z"/></g>
<g><path style="opacity:1" fill="#9fc6df" d="M 1157.5,865.5 C 1171.66,869.736 1186.16,875.07 1201,881.5C 1201.33,881.167 1201.67,880.833 1202,880.5C 1202.32,882.301 1202.98,882.634 1204,881.5C 1207.49,884.112 1211.15,885.445 1215,885.5C 1220,887.833 1225,890.167 1230,892.5C 1230.33,892.167 1230.67,891.833 1231,891.5C 1233.11,893.125 1235.44,894.458 1238,895.5C 1241.33,895.962 1244.67,897.296 1248,899.5C 1248.33,899.167 1248.67,898.833 1249,898.5C 1250.67,899.5 1252.33,900.5 1254,901.5C 1254.33,901.167 1254.67,900.833 1255,900.5C 1255.32,902.301 1255.98,902.634 1257,901.5C 1260.49,904.112 1264.15,905.445 1268,905.5C 1272.15,907.946 1276.15,909.946 1280,911.5C 1280.33,911.167 1280.67,910.833 1281,910.5C 1284.04,912.736 1287.37,914.402 1291,915.5C 1294.33,915.962 1297.67,917.296 1301,919.5C 1301.33,919.167 1301.67,918.833 1302,918.5C 1312.5,923.307 1322.83,927.64 1333,931.5C 1333.33,931.167 1333.67,930.833 1334,930.5C 1335.68,932.701 1337.68,933.367 1340,932.5C 1341.34,934.605 1343,935.271 1345,934.5C 1348.18,936.423 1351.51,938.089 1355,939.5C 1355.33,939.167 1355.67,938.833 1356,938.5C 1357.71,940.193 1359.71,941.526 1362,942.5C 1362.33,942.167 1362.67,941.833 1363,941.5C 1364.44,943.155 1366.28,943.822 1368.5,943.5C 1368.5,943.833 1368.5,944.167 1368.5,944.5C 1368.5,944.833 1368.5,945.167 1368.5,945.5C 1291.17,974.833 1213.83,1004.17 1136.5,1033.5C 1135.51,1033.67 1134.84,1033.34 1134.5,1032.5C 1136.2,1030.69 1137.03,1028.36 1137,1025.5C 1143.51,972.074 1150.34,918.741 1157.5,865.5 Z"/></g>
<g><path style="opacity:1" fill="#a6cae1" d="M 1157.5,865.5 C 1150.34,918.741 1143.51,972.074 1137,1025.5C 1137.03,1028.36 1136.2,1030.69 1134.5,1032.5C 1096.42,1018.3 1058.42,1003.8 1020.5,989C 1019.25,988.26 1018.25,988.427 1017.5,989.5C 1016.83,989.5 1016.5,989.167 1016.5,988.5C 1016.5,988.167 1016.5,987.833 1016.5,987.5C 1016.83,987.5 1017.17,987.5 1017.5,987.5C 1063.89,946.438 1110.56,905.771 1157.5,865.5 Z"/></g>
<g><path style="opacity:1" fill="#b8888a" d="M 285.5,879.5 C 286.338,879.842 286.672,880.508 286.5,881.5C 286.5,881.833 286.5,882.167 286.5,882.5C 248.888,917.11 211.888,952.443 175.5,988.5C 175.167,988.5 174.833,988.5 174.5,988.5C 146.782,955.39 119.782,921.723 93.5,887.5C 154.166,885.381 214.832,883.214 275.5,881C 279.025,880.821 282.359,880.321 285.5,879.5 Z"/></g>
<g><path style="opacity:1" fill="#5397c5" d="M 1744.5,879.5 C 1745.17,879.5 1745.83,879.5 1746.5,879.5C 1746.5,879.833 1746.5,880.167 1746.5,880.5C 1773.83,906.833 1801.17,933.167 1828.5,959.5C 1779.98,985.263 1730.98,1010.26 1681.5,1034.5C 1702.69,982.947 1723.69,931.281 1744.5,879.5 Z"/></g>
<g><path style="opacity:1" fill="#5995c5" d="M 1746.5,880.5 C 1795.54,897.959 1844.54,915.626 1893.5,933.5C 1894.47,931.257 1894.81,928.924 1894.5,926.5C 1895.47,928.948 1895.81,931.615 1895.5,934.5C 1895.5,934.833 1895.5,935.167 1895.5,935.5C 1873.57,943.699 1851.57,951.699 1829.5,959.5C 1829.17,959.5 1828.83,959.5 1828.5,959.5C 1801.17,933.167 1773.83,906.833 1746.5,880.5 Z"/></g>
<g><path style="opacity:1" fill="#b58a8f" d="M 286.5,882.5 C 290.762,921.121 294.762,959.788 298.5,998.5C 257.536,995.32 216.536,991.987 175.5,988.5C 211.888,952.443 248.888,917.11 286.5,882.5 Z"/></g>
<g><path style="opacity:1" fill="#ad737c" d="M -0.5,883.5 C 30.4917,884.984 61.4917,886.318 92.5,887.5C 62.0703,910.888 31.0703,933.555 -0.5,955.5C -0.5,931.5 -0.5,907.5 -0.5,883.5 Z"/></g>
<g><path style="opacity:1" fill="#aa757e" d="M 92.5,887.5 C 92.8333,887.5 93.1667,887.5 93.5,887.5C 119.782,921.723 146.782,955.39 174.5,988.5C 174.5,988.833 174.5,989.167 174.5,989.5C 174.167,989.5 173.833,989.5 173.5,989.5C 115.5,989.5 57.5,989.5 -0.5,989.5C -0.5,978.167 -0.5,966.833 -0.5,955.5C 31.0703,933.555 62.0703,910.888 92.5,887.5 Z"/></g>
<g><path style="opacity:1" fill="#477aac" d="M 1919.5,929.5 C 1919.5,935.167 1919.5,940.833 1919.5,946.5C 1911.51,942.857 1903.84,938.857 1896.5,934.5C 1904.2,932.99 1911.87,931.324 1919.5,929.5 Z"/></g>
<g><path style="opacity:1" fill="#397bb4" d="M 1895.5,934.5 C 1895.83,934.5 1896.17,934.5 1896.5,934.5C 1903.84,938.857 1911.51,942.857 1919.5,946.5C 1919.5,971.833 1919.5,997.167 1919.5,1022.5C 1910.53,992.868 1902.53,963.868 1895.5,935.5C 1895.5,935.167 1895.5,934.833 1895.5,934.5 Z"/></g>
<g><path style="opacity:1" fill="#4284bb" d="M 1895.5,935.5 C 1902.53,963.868 1910.53,992.868 1919.5,1022.5C 1919.5,1038.5 1919.5,1054.5 1919.5,1070.5C 1889.5,1034.17 1859.5,997.833 1829.5,961.5C 1829.5,960.833 1829.5,960.167 1829.5,959.5C 1851.57,951.699 1873.57,943.699 1895.5,935.5 Z"/></g>
<g><path style="opacity:1" fill="#cdbbb6" d="M 402.5,800.5 C 403.167,800.5 403.833,800.5 404.5,800.5C 473.305,806.886 542.305,813.553 611.5,820.5C 611.833,820.5 612.167,820.5 612.5,820.5C 612.5,820.833 612.5,821.167 612.5,821.5C 590.407,870.093 569.074,919.093 548.5,968.5C 548.167,968.5 547.833,968.5 547.5,968.5C 499.906,912.569 451.572,857.236 402.5,802.5C 402.5,801.833 402.5,801.167 402.5,800.5 Z"/></g>
<g><path style="opacity:1" fill="#73aed2" d="M 1492.5,943.5 C 1498.17,988.833 1503.83,1034.17 1509.5,1079.5C 1502.5,1079.5 1495.5,1079.5 1488.5,1079.5C 1448.84,1034.51 1408.84,989.843 1368.5,945.5C 1368.5,945.167 1368.5,944.833 1368.5,944.5C 1409.84,944.516 1451.17,944.182 1492.5,943.5 Z"/></g>
<g><path style="opacity:1" fill="#5ba0ca" d="M 1492.5,943.5 C 1554.71,973.773 1617.04,1003.77 1679.5,1033.5C 1679.84,1034.34 1680.51,1034.67 1681.5,1034.5C 1681.5,1035.17 1681.17,1035.5 1680.5,1035.5C 1646.34,1049.43 1612.67,1064.1 1579.5,1079.5C 1556.17,1079.5 1532.83,1079.5 1509.5,1079.5C 1503.83,1034.17 1498.17,988.833 1492.5,943.5 Z"/></g>
<g><path style="opacity:1" fill="#85b5d6" d="M 1368.5,945.5 C 1360.05,990.21 1351.38,1034.88 1342.5,1079.5C 1296.83,1079.5 1251.17,1079.5 1205.5,1079.5C 1182.79,1064.14 1159.79,1049.14 1136.5,1034.5C 1136.5,1034.17 1136.5,1033.83 1136.5,1033.5C 1213.83,1004.17 1291.17,974.833 1368.5,945.5 Z"/></g>
<g><path style="opacity:1" fill="#71a9d0" d="M 1368.5,945.5 C 1408.84,989.843 1448.84,1034.51 1488.5,1079.5C 1439.83,1079.5 1391.17,1079.5 1342.5,1079.5C 1351.38,1034.88 1360.05,990.21 1368.5,945.5 Z"/></g>
<g><path style="opacity:1" fill="#b0c0cf" d="M 833.5,957.5 C 834.167,957.5 834.5,957.833 834.5,958.5C 834.5,959.167 834.5,959.833 834.5,960.5C 838.065,1000.09 841.065,1039.76 843.5,1079.5C 839.5,1079.5 835.5,1079.5 831.5,1079.5C 798.396,1037.61 765.063,995.945 731.5,954.5C 731.5,953.833 731.5,953.167 731.5,952.5C 731.435,952.062 731.601,951.728 732,951.5C 748.947,952.804 765.614,954.138 782,955.5C 782.414,955.043 782.914,954.709 783.5,954.5C 800.048,956.062 816.715,957.062 833.5,957.5 Z"/></g>
<g><path style="opacity:1" fill="#a9adbd" d="M 730.5,952.5 C 730.833,952.5 731.167,952.5 731.5,952.5C 731.5,953.167 731.5,953.833 731.5,954.5C 726.222,996.337 721.555,1038 717.5,1079.5C 695.5,1079.5 673.5,1079.5 651.5,1079.5C 677.833,1037.5 704.167,995.5 730.5,953.5C 730.5,953.167 730.5,952.833 730.5,952.5 Z"/></g>
<g><path style="opacity:1" fill="#b1b1ba" d="M 730.5,953.5 C 704.167,995.5 677.833,1037.5 651.5,1079.5C 637.167,1079.5 622.833,1079.5 608.5,1079.5C 588.754,1042.34 568.754,1005.34 548.5,968.5C 609.178,963.61 669.845,958.61 730.5,953.5 Z"/></g>
<g><path style="opacity:1" fill="#a8b4c7" d="M 731.5,954.5 C 765.063,995.945 798.396,1037.61 831.5,1079.5C 793.5,1079.5 755.5,1079.5 717.5,1079.5C 721.555,1038 726.222,996.337 731.5,954.5 Z"/></g>
<g><path style="opacity:1" fill="#abc3d8" d="M 1014.5,987.5 C 1015.17,987.5 1015.83,987.5 1016.5,987.5C 1016.5,987.833 1016.5,988.167 1016.5,988.5C 967.962,1018.6 919.629,1048.93 871.5,1079.5C 862.167,1079.5 852.833,1079.5 843.5,1079.5C 841.065,1039.76 838.065,1000.09 834.5,960.5C 837.408,959.431 840.408,959.264 843.5,960C 900.544,969.03 957.544,978.196 1014.5,987.5 Z"/></g>
<g><path style="opacity:1" fill="#3c87bd" d="M 1828.5,959.5 C 1828.83,959.5 1829.17,959.5 1829.5,959.5C 1829.5,960.167 1829.5,960.833 1829.5,961.5C 1828.36,968.864 1827.36,976.697 1826.5,985C 1826.83,986 1827.17,987 1827.5,988C 1826.83,990.667 1826.17,993.333 1825.5,996C 1825.83,997 1826.17,998 1826.5,999C 1825.83,1002 1825.17,1005 1824.5,1008C 1824.83,1009 1825.17,1010 1825.5,1011C 1824.83,1013.67 1824.17,1016.33 1823.5,1019C 1823.83,1020 1824.17,1021 1824.5,1022C 1822.97,1026.57 1822.63,1030.9 1823.5,1035C 1822.02,1040.86 1821.02,1046.86 1820.5,1053C 1821.36,1056.38 1821.02,1060.04 1819.5,1064C 1819.76,1068.9 1819.76,1074.07 1819.5,1079.5C 1763.17,1079.5 1706.83,1079.5 1650.5,1079.5C 1660.5,1064.83 1670.5,1050.17 1680.5,1035.5C 1681.17,1035.5 1681.5,1035.17 1681.5,1034.5C 1730.98,1010.26 1779.98,985.263 1828.5,959.5 Z"/></g>
<g><path style="opacity:1" fill="#357cb7" d="M 1829.5,961.5 C 1859.5,997.833 1889.5,1034.17 1919.5,1070.5C 1919.5,1073.5 1919.5,1076.5 1919.5,1079.5C 1886.17,1079.5 1852.83,1079.5 1819.5,1079.5C 1819.76,1074.07 1819.76,1068.9 1819.5,1064C 1821.02,1060.04 1821.36,1056.38 1820.5,1053C 1821.02,1046.86 1822.02,1040.86 1823.5,1035C 1822.63,1030.9 1822.97,1026.57 1824.5,1022C 1824.17,1021 1823.83,1020 1823.5,1019C 1824.17,1016.33 1824.83,1013.67 1825.5,1011C 1825.17,1010 1824.83,1009 1824.5,1008C 1825.17,1005 1825.83,1002 1826.5,999C 1826.17,998 1825.83,997 1825.5,996C 1826.17,993.333 1826.83,990.667 1827.5,988C 1827.17,987 1826.83,986 1826.5,985C 1827.36,976.697 1828.36,968.864 1829.5,961.5 Z"/></g>
<g><path style="opacity:1" fill="#aea3ac" d="M 547.5,968.5 C 547.833,968.5 548.167,968.5 548.5,968.5C 568.754,1005.34 588.754,1042.34 608.5,1079.5C 593.833,1079.5 579.167,1079.5 564.5,1079.5C 539.526,1064.68 514.193,1050.34 488.5,1036.5C 488.5,1036.17 488.5,1035.83 488.5,1035.5C 508.539,1013.46 528.205,991.13 547.5,968.5 Z"/></g>
<g><path style="opacity:1" fill="#a77c88" d="M 174.5,988.5 C 174.833,988.5 175.167,988.5 175.5,988.5C 216.536,991.987 257.536,995.32 298.5,998.5C 298.833,998.5 299.167,998.5 299.5,998.5C 299.5,998.833 299.5,999.167 299.5,999.5C 291.565,1025.9 284.231,1052.57 277.5,1079.5C 264.167,1079.5 250.833,1079.5 237.5,1079.5C 216.47,1049.48 195.47,1019.48 174.5,989.5C 174.5,989.167 174.5,988.833 174.5,988.5 Z"/></g>
<g><path style="opacity:1" fill="#9bbeda" d="M 1134.5,1032.5 C 1134.84,1033.34 1135.51,1033.67 1136.5,1033.5C 1136.5,1033.83 1136.5,1034.17 1136.5,1034.5C 1122.51,1048.66 1108.34,1062.66 1094,1076.5C 1093.49,1077.53 1092.99,1078.53 1092.5,1079.5C 1079.5,1079.5 1066.5,1079.5 1053.5,1079.5C 1041.98,1052.09 1029.98,1022.09 1017.5,989.5C 1018.25,988.427 1019.25,988.26 1020.5,989C 1058.42,1003.8 1096.42,1018.3 1134.5,1032.5 Z"/></g>
<g><path style="opacity:1" fill="#9f6c7b" d="M -0.5,989.5 C 57.5,989.5 115.5,989.5 173.5,989.5C 156.533,1020.05 139.533,1049.55 122.5,1078C 123.056,1078.38 123.389,1078.88 123.5,1079.5C 108.167,1079.5 92.8333,1079.5 77.5,1079.5C 51.538,1060.51 25.538,1041.51 -0.5,1022.5C -0.5,1011.5 -0.5,1000.5 -0.5,989.5 Z"/></g>
<g><path style="opacity:1" fill="#a17181" d="M 173.5,989.5 C 173.833,989.5 174.167,989.5 174.5,989.5C 195.47,1019.48 216.47,1049.48 237.5,1079.5C 199.5,1079.5 161.5,1079.5 123.5,1079.5C 123.389,1078.88 123.056,1078.38 122.5,1078C 139.533,1049.55 156.533,1020.05 173.5,989.5 Z"/></g>
<g><path style="opacity:1" fill="#aa8993" d="M 299.5,999.5 C 361.745,1011.18 423.911,1023.18 486,1035.5C 486.399,1035.27 486.565,1034.94 486.5,1034.5C 487.167,1034.83 487.833,1035.17 488.5,1035.5C 488.5,1035.83 488.5,1036.17 488.5,1036.5C 449.86,1050.27 411.527,1064.6 373.5,1079.5C 341.5,1079.5 309.5,1079.5 277.5,1079.5C 284.231,1052.57 291.565,1025.9 299.5,999.5 Z"/></g>
<g><path style="opacity:1" fill="#a2c0da" d="M 1016.5,988.5 C 1016.5,989.167 1016.83,989.5 1017.5,989.5C 1029.98,1022.09 1041.98,1052.09 1053.5,1079.5C 992.833,1079.5 932.167,1079.5 871.5,1079.5C 919.629,1048.93 967.962,1018.6 1016.5,988.5 Z"/></g>
<g><path style="opacity:1" fill="#955c71" d="M -0.5,1022.5 C 25.538,1041.51 51.538,1060.51 77.5,1079.5C 51.5,1079.5 25.5,1079.5 -0.5,1079.5C -0.5,1060.5 -0.5,1041.5 -0.5,1022.5 Z"/></g>
<g><path style="opacity:1" fill="#8fb1d4" d="M 1136.5,1034.5 C 1145.47,1048.96 1154.47,1063.96 1163.5,1079.5C 1139.83,1079.5 1116.17,1079.5 1092.5,1079.5C 1092.99,1078.53 1093.49,1077.53 1094,1076.5C 1108.34,1062.66 1122.51,1048.66 1136.5,1034.5 Z"/></g>
<g><path style="opacity:1" fill="#84aad1" d="M 1136.5,1034.5 C 1159.79,1049.14 1182.79,1064.14 1205.5,1079.5C 1191.5,1079.5 1177.5,1079.5 1163.5,1079.5C 1154.47,1063.96 1145.47,1048.96 1136.5,1034.5 Z"/></g>
<g><path style="opacity:1" fill="#a58896" d="M 488.5,1036.5 C 487.609,1050.81 487.275,1065.14 487.5,1079.5C 449.5,1079.5 411.5,1079.5 373.5,1079.5C 411.527,1064.6 449.86,1050.27 488.5,1036.5 Z"/></g>
<g><path style="opacity:1" fill="#a996a5" d="M 488.5,1036.5 C 514.193,1050.34 539.526,1064.68 564.5,1079.5C 538.833,1079.5 513.167,1079.5 487.5,1079.5C 487.275,1065.14 487.609,1050.81 488.5,1036.5 Z"/></g>
<g><path style="opacity:1" fill="#4e92c3" d="M 1680.5,1035.5 C 1670.5,1050.17 1660.5,1064.83 1650.5,1079.5C 1626.83,1079.5 1603.17,1079.5 1579.5,1079.5C 1612.67,1064.1 1646.34,1049.43 1680.5,1035.5 Z"/></g>
</svg>
