<?xml version="1.0" encoding="UTF-8"?>
<!DOCTYPE svg  PUBLIC '-//W3C//DTD SVG 1.1//EN'  'http://www.w3.org/Graphics/SVG/1.1/DTD/svg11.dtd'>
<svg transform="rotate(180)" clip-rule="evenodd" fill-rule="evenodd" image-rendering="optimizeQuality" shape-rendering="geometricPrecision" text-rendering="geometricPrecision" version="1.1" viewBox="0 0 1920 1080" xmlns="http://www.w3.org/2000/svg">
<path d="m-0.5-0.5h21c-6.6754 6.6746-13.675 13.008-21 19v-19z" fill="#bd3133"/>
<path d="m20.5-0.5h106c14.169 47.006 28.836 93.84 44 140.5-0.594 0.464-1.261 0.631-2 0.5-56.425-24.377-112.76-49.044-169-74v-48c7.3246-5.9921 14.325-12.325 21-19z" fill="#ca4a41"/>
<path d="m126.5-0.5h55c15.757 17.093 32.423 33.093 50 48v1c-0.667 0-1 0.3333-1 1-18.637 28.826-37.137 57.826-55.5 87-1.049 2.118-2.549 3.784-4.5 5-0.992 0.172-1.658-0.162-2-1 0.739 0.131 1.406-0.036 2-0.5-15.164-46.66-29.831-93.494-44-140.5z" fill="#d05647"/>
<path d="m181.5-0.5h103c-17.436 16.224-35.103 32.224-53 48-17.577-14.907-34.243-30.907-50-48z" fill="#ce5245"/>
<path d="m284.5-0.5h127c-5.341 38.378-11.007 76.711-17 115-54.255-21.851-108.59-43.851-163-66v-1c17.897-15.776 35.564-31.776 53-48z" fill="#da6b56"/>
<path d="m411.5-0.5h103c19.904 22.814 39.57 45.814 59 69-59.642 15.161-119.31 30.494-179 46 5.993-38.289 11.659-76.622 17-115z" fill="#e27d62"/>
<path d="m514.5-0.5h80c-7.072 22.883-13.739 45.883-20 69h-1c-19.43-23.186-39.096-46.186-59-69z" fill="#e27f67"/>
<path d="m594.5-0.5h25c33.498 41.405 67.165 82.738 101 124-48.667-18.333-97.333-36.667-146-55 6.261-23.117 12.928-46.117 20-69z" fill="#ec977d"/>
<path d="m619.5-0.5h97c1.425 41.343 3.091 82.677 5 124h-1c-33.835-41.262-67.502-82.595-101-124z" fill="#ea957f"/>
<path d="m716.5-0.5h66c26.219 20.841 52.885 41.508 80 62v1c-46.667 20.667-93.333 41.333-140 62-0.667 0-1-0.333-1-1-1.909-41.323-3.575-82.657-5-124z" fill="#eea08b"/>
<path d="m782.5-0.5h67c4.226 20.435 8.559 41.102 13 62-27.115-20.492-53.781-41.159-80-62z" fill="#e99787"/>
<path d="m849.5-0.5h72c-18.93 21.266-38.597 41.933-59 62-4.441-20.898-8.774-41.565-13-62z" fill="#e6998f"/>
<path d="m958.5-0.5h132c18.67 37.333 37.33 74.667 56 112-1.29 0.658-2.79 0.992-4.5 1-52.82-2.273-105.66-4.273-158.5-6-2-0.667-4-1.333-6-2-0.251-1.67-0.918-3.17-2-4.5 1.667-1.6667 3.333-3.3333 5-5-1.254-1.6872-2.92-3.6872-5-6 2.069-0.3242 2.402-1.1575 1-2.5 1.022-0.854 1.855-1.854 2.5-3 0.718 0.9506 1.551 1.1172 2.5 0.5-1.579-1.954-2.579-4.454-3-7.5 1.731-2.7388 2.897-2.4055 3.5 1 0.17-2.2148 0.837-4.2148 2-6 1.756 0.9213 1.923 2.088 0.5 3.5 0.362 1.2247 0.862 2.3914 1.5 3.5 0.5-1.1667 1.333-2 2.5-2.5-0.667-0.3333-1.333-0.6667-2-1 3.263-0.8695 3.596-2.2028 1-4 0.667-0.3333 1.333-0.6667 2-1-0.674-1.7506-1.007-3.4173-1-5 3.876-1.9596 4.709-4.7929 2.5-8.5-0.333 0.3333-0.667 0.6667-1 1-1.046-1.5905-2.213-3.0905-3.5-4.5 0.808-0.3076 1.475-0.8076 2-1.5-1.481-0.9803-2.815-2.147-4-3.5 2.322-1.6922 2.822-3.5256 1.5-5.5-1.044 1.1226-1.71 2.4559-2 4-1.362 1.4247-2.862 2.258-4.5 2.5 4.657 3.2964 4.657 6.1298 0 8.5-1.871-0.3588-3.371-1.3588-4.5-3-1.866 2.6591-3.033 2.3258-3.5-1 1.941-1.1378 2.108-2.8045 0.5-5-0.333 1-0.667 2-1 3-1.333-1.6667-2.667-3.3333-4-5-2.558 2.4434-3.392 1.9434-2.5-1.5-2.964-2.9019-4.798-6.4019-5.5-10.5-0.853 1.6247-1.853 1.9581-3 1-0.915 0.8279-1.581 1.8279-2 3l-1.5-3c-0.774-1.2112-1.607-1.2112-2.5 0-1.852-1.7297-1.686-2.8964 0.5-3.5-0.333-0.3333-0.667-0.6667-1-1 1.073-1.3129 1.74-2.8129 2-4.5 0.05-3.6464-0.284-7.1464-1-10.5 0.753-1.487 1.586-1.6537 2.5-0.5 2.421 2.5391 3.921 5.2058 4.5 8 1-0.3333 1.667-1 2-2-0.746-1.2362-1.079-2.5695-1-4-1.052 0.1495-2.052-0.0172-3-0.5 1.984-1.8029 3.984-2.8029 6-3-1.929-0.3501-3.929-1.0168-6-2 1.172-0.4186 2.172-1.0853 3-2-2.835-1.44-3.335-3.2733-1.5-5.5 0.333 0.66667 0.667 1.3333 1 2 0.465-1.4308 1.299-2.5975 2.5-3.5-0.753-1.487-1.586-1.6537-2.5-0.5-0.47-1.0768-0.303-2.0768 0.5-3z" fill="#e8a69b"/>
<path d="m1090.5-0.5h105c-15.67 37.333-31.33 74.667-47 112v1c-0.67-0.333-1.33-0.667-2-1-18.67-37.333-37.33-74.667-56-112z" fill="#de9c95"/>
<path d="m1195.5-0.5h51c28.72 38.72 57.05 77.72 85 117-60.91-1.424-121.91-3.091-183-5 15.67-37.333 31.33-74.667 47-112z" fill="#dba49c"/>
<path d="m1246.5-0.5h112c-8.34 39.342-16.67 78.676-25 118v1c-0.67-0.667-1.33-1.333-2-2-27.95-39.28-56.28-78.28-85-117z" fill="#ce9591"/>
<path d="m1358.5-0.5h66c9.06 19.128 18.4 38.128 28 57v1c-39.8 19.731-79.46 39.731-119 60 8.33-39.324 16.66-78.658 25-118z" fill="#c79592"/>
<path d="m1424.5-0.5h48c-6.14 19.085-12.47 38.085-19 57h-1c-9.6-18.872-18.94-37.872-28-57z" fill="#bc8889"/>
<path d="m1472.5-0.5h83c19.42 25.151 39.08 50.151 59 75-53.76-5.5951-107.42-11.595-161-18 6.53-18.915 12.86-37.915 19-57z" fill="#b7888b"/>
<path d="m1555.5-0.5h63c-1.27 24.494-2.27 49.494-3 75v2c-0.67 0-1-0.3333-1-1v-1c-19.92-24.849-39.58-49.849-59-75z" fill="#ae7d85"/>
<path d="m1618.5-0.5h96c-32.67 25-65.33 50-98 75h-1c0.73-25.506 1.73-50.506 3-75z" fill="#a47782"/>
<path d="m1714.5-0.5h34c2.09 40.926 4.42 81.593 7 122-46.6-15.089-92.93-30.756-139-47 32.67-25 65.33-50 98-75z" fill="#a67c89"/>
<path d="m1748.5-0.5h46c41.47 22.572 83.14 44.905 125 67v26c-54.18 9.445-108.51 19.445-163 30h-1v-1c-2.58-40.407-4.91-81.074-7-122z" fill="#9f7182"/>
<path d="m1794.5-0.5h125v67c-41.86-22.095-83.53-44.428-125-67z" fill="#976279"/>
<path d="m970.5 2.5c1.568 2.4312 3.068 2.4312 4.5 0 1.161 1.4953 2.327 2.9953 3.5 4.5-2.66 1.6759-2.66 3.3426 0 5-2.391 0.6914-2.391 1.6914 0 3-1.165 1.0836-2.498 1.9169-4 2.5-1.326-3.5638-3.16-6.8971-5.5-10-0.64-2.0432-0.14-3.7099 1.5-5z" fill="#eca799"/>
<path d="m982.5 2.5c1.29 0.55773 2.123 1.5577 2.5 3 0.869-3.2626 2.203-3.5959 4-1 1.458-2.024 3.291-2.1907 5.5-0.5-0.813 1.3139-1.813 2.4805-3 3.5-0.097 2.2485 0.07 4.5819 0.5 7-0.414-0.4574-0.914-0.7907-1.5-1-0.781 1.2366-1.781 2.2366-3 3-1.667-0.8333-3.333-1.6667-5-2.5 1.016-1.6768 2.016-3.3435 3-5-1.224-3.1837-2.391-3.017-3.5 0.5-1.505-2.7276-1.338-5.0609 0.5-7z" fill="#eca799"/>
<path d="m986.5 22.5c3.629 1.0016 3.629 2.5016 0 4.5l6 6c-0.647 1.6095-1.48 3.1095-2.5 4.5-2.075-2.5281-2.908-2.3614-2.5 0.5-2 2-4 2-6 0 0.958-1.1475 0.625-2.1475-1-3 2.013-1.7913 2.013-3.1247 0-4 1.07-3.0002 3.07-5.8335 6-8.5z" fill="#eba699"/>
<path d="m994.5 25.5c1.725 0.778 3.391 1.1114 5 1-1.832 1.7982-2.165 3.6315-1 5.5-0.667 0.6667-1.333 0.6667-2 0-0.953-1.9552-2.287-3.6218-4-5 0.916-0.2784 1.582-0.7784 2-1.5z" fill="#eca698"/>
<path d="m921.5-0.5h37c-0.803 0.92318-0.97 1.9232-0.5 3 0.914-1.1537 1.747-0.98701 2.5 0.5-1.201 0.90252-2.035 2.0692-2.5 3.5-0.333-0.66667-0.667-1.3333-1-2-1.835 2.2267-1.335 4.06 1.5 5.5-0.828 0.9147-1.828 1.5814-3 2 2.071 0.9832 4.071 1.6499 6 2-2.016 0.1971-4.016 1.1971-6 3 0.948 0.4828 1.948 0.6495 3 0.5-0.079 1.4305 0.254 2.7638 1 4-0.333 1-1 1.6667-2 2-0.579-2.7942-2.079-5.4609-4.5-8-0.914-1.1537-1.747-0.987-2.5 0.5 0.716 3.3536 1.05 6.8536 1 10.5-0.26 1.6871-0.927 3.1871-2 4.5 0.333 0.3333 0.667 0.6667 1 1-2.186 0.6036-2.352 1.7703-0.5 3.5 0.893-1.2112 1.726-1.2112 2.5 0l1.5 3c0.419-1.1721 1.085-2.1721 2-3 1.147 0.9581 2.147 0.6247 3-1 0.702 4.0981 2.536 7.5981 5.5 10.5-0.892 3.4434-0.058 3.9434 2.5 1.5 1.333 1.6667 2.667 3.3333 4 5 0.333-1 0.667-2 1-3 1.608 2.1955 1.441 3.8622-0.5 5-2.57 0.984-2.57 2.1507 0 3.5 0.037 1.949-0.463 3.7824-1.5 5.5-1.333-1.3333-2.667-2.6667-4-4 0.617-1.5948 0.284-2.9281-1-4-7e-3 2.1193-1.174 3.9526-3.5 5.5 1.215 2.0955 2.049 1.9288 2.5-0.5 0.645 1.146 1.478 2.146 2.5 3-1.017 2.528-2.184 2.528-3.5 0-1.634 1.4904-1.301 2.8237 1 4 0.72 1.6124 0.554 3.1124-0.5 4.5 4.89 1.0952 4.89 1.7619 0 2-2 2.6667-4 5.3333-6 8 3.21 1.1815 3.71 3.0148 1.5 5.5-0.637-1.8031-1.803-3.1364-3.5-4-0.692 0.5253-1.192 1.1919-1.5 2-0.84-2.9637-1.84-3.297-3-1-0.93-2.0453-2.43-2.8787-4.5-2.5 2.982 3.8089 6.649 6.6423 11 8.5-0.598 3.1183 0.735 5.4516 4 7 0.743-1.4079 1.577-2.7412 2.5-4 5.123 5.2652 5.623 4.7652 1.5-1.5 0.953-1.9552 2.287-3.6218 4-5-1.887-0.1626-3.387 0.6707-4.5 2.5-2.021-2.1512-1.521-3.6512 1.5-4.5-0.667-1-1.333-2-2-3 1.963-2.7124 4.796-5.2124 8.5-7.5 1.631-2.4554 1.797-4.9554 0.5-7.5 3.42-1.9069 5.42-4.7403 6-8.5 4.657-2.3702 4.657-5.2036 0-8.5 1.638-0.242 3.138-1.0753 4.5-2.5 0.29-1.5441 0.956-2.8774 2-4 1.322 1.9744 0.822 3.8078-1.5 5.5 1.185 1.353 2.519 2.5197 4 3.5-0.525 0.6924-1.192 1.1924-2 1.5 1.287 1.4095 2.454 2.9095 3.5 4.5 0.333-0.3333 0.667-0.6667 1-1 2.209 3.7071 1.376 6.5404-2.5 8.5-7e-3 1.5827 0.326 3.2494 1 5-0.667 0.3333-1.333 0.6667-2 1 2.596 1.7972 2.263 3.1305-1 4 0.667 0.3333 1.333 0.6667 2 1-1.167 0.5-2 1.3333-2.5 2.5-0.638-1.1086-1.138-2.2753-1.5-3.5 1.423-1.412 1.256-2.5787-0.5-3.5-1.163 1.7852-1.83 3.7852-2 6-0.603-3.4055-1.769-3.7388-3.5-1 0.421 3.046 1.421 5.546 3 7.5-0.949 0.6172-1.782 0.4506-2.5-0.5-0.645 1.146-1.478 2.146-2.5 3 1.402 1.3425 1.069 2.1758-1 2.5 2.08 2.3128 3.746 4.3128 5 6-1.667 1.6667-3.333 3.3333-5 5 1.082 1.33 1.749 2.83 2 4.5-38.209-14.402-76.542-28.402-115-42v-1c20.403-20.067 40.07-40.734 59-62z" fill="#eba79a"/>
<path d="m231.5 48.5c54.412 22.149 108.74 44.149 163 66v1c-36.228 42.775-72.228 85.775-108 129-0.617 0.111-1.117 0.444-1.5 1-43.501-8.267-87.001-16.6-130.5-25 6.095-25.472 11.428-51.139 16-77 0.617-0.111 1.117-0.444 1.5-1 15.943 14.805 31.777 29.138 47.5 43 21.056 18.545 42.056 37.378 63 56.5 0.832 0.688 1.498 0.521 2-0.5-4.006-13.241-7.506-26.574-10.5-40-1.76-4.556-3.594-9.056-5.5-13.5 1.134-1.016 0.801-1.683-1-2 0.522-0.561 0.855-1.228 1-2-9.022-31.088-17.689-62.088-26-93-3.695-13.324-7.695-27.157-12-41.5 0-0.6667 0.333-1 1-1z" fill="#e27c62"/>
<path d="m230.5 49.5c4.305 14.343 8.305 28.176 12 41.5 8.311 30.912 16.978 61.912 26 93-0.145 0.772-0.478 1.439-1 2 1.801 0.317 2.134 0.984 1 2 1.906 4.444 3.74 8.944 5.5 13.5 2.994 13.426 6.494 26.759 10.5 40-0.502 1.021-1.168 1.188-2 0.5-20.944-19.122-41.944-37.955-63-56.5-15.723-13.862-31.557-28.195-47.5-43-0.383 0.556-0.883 0.889-1.5 1v-1-1c1.951-1.216 3.451-2.882 4.5-5 18.363-29.174 36.863-58.174 55.5-87z" fill="#dd745d"/>
<path d="m1452.5 56.5h1c53.58 6.4049 107.24 12.405 161 18v1c-52 36.667-104 73.333-156 110h-1v-1c-1.87-41.753-3.54-84.086-5-127v-1z" fill="#bf9a9a"/>
<path d="m1452.5 57.5c1.46 42.914 3.13 85.247 5 127-41.35-22.01-82.69-44.01-124-66v-1c39.54-20.269 79.2-40.269 119-60z" fill="#caa4a0"/>
<path d="m862.5 62.5c38.458 13.598 76.791 27.598 115 42 2 0.667 4 1.333 6 2v1c-34.082 53.155-67.415 106.82-100 161 0 0.667-0.333 1-1 1s-1-0.333-1-1c-6.28-69.698-12.613-138.03-19-205v-1z" fill="#f4bdaa"/>
<path d="m862.5 62.5v1c-32.984 61.299-65.984 122.63-99 184h-1c-13.864-40.259-27.531-80.592-41-121 0.333-0.667 0.667-1.333 1-2 46.667-20.667 93.333-41.333 140-62z" fill="#f5b59e"/>
<path d="m862.5 63.5c6.387 66.969 12.72 135.3 19 205-39.193-6.433-78.526-13.433-118-21 33.016-61.368 66.016-122.7 99-184z" fill="#f9c2ab"/>
<path d="m-0.5 66.5c56.242 24.956 112.58 49.623 169 74 0.342 0.838 1.008 1.172 2 1v1c-51.145 21.075-102.15 42.408-153 64h-1c0-0.667-0.3333-1-1-1-4.7613-16.284-10.095-32.284-16-48v-91z" fill="#d15b4c"/>
<path d="m573.5 68.5h1c-2.924 70.627-5.258 141.29-7 212v1c-0.667 0-1-0.333-1-1-57.307-54.972-114.64-109.97-172-165v-1c59.691-15.506 119.36-30.839 179-46z" fill="#f09c7c"/>
<path d="m574.5 68.5c48.667 18.333 97.333 36.667 146 55h1c0 0.667 0.333 1 1 1-0.333 0.667-0.667 1.333-1 2-51.695 50.695-102.7 102.03-153 154h-1c1.742-70.706 4.076-141.37 7-212z" fill="#f3aa8c"/>
<path d="m971.5 53.5c0.467 3.3258 1.634 3.6591 3.5 1 1.129 1.6412 2.629 2.6412 4.5 3-0.58 3.7597-2.58 6.5931-6 8.5 1.297 2.5446 1.131 5.0446-0.5 7.5-3.704 2.2876-6.537 4.7876-8.5 7.5 0.667 1 1.333 2 2 3-3.021 0.8488-3.521 2.3488-1.5 4.5 1.113-1.8293 2.613-2.6626 4.5-2.5-1.713 1.3782-3.047 3.0448-4 5 4.123 6.2652 3.623 6.7652-1.5 1.5-0.923 1.2588-1.757 2.5921-2.5 4-3.265-1.5484-4.598-3.8817-4-7-4.351-1.8577-8.018-4.6911-11-8.5 2.07-0.3787 3.57 0.4547 4.5 2.5 1.16-2.297 2.16-1.9637 3 1 0.308-0.8081 0.808-1.4747 1.5-2 1.697 0.8636 2.863 2.1969 3.5 4 2.21-2.4852 1.71-4.3185-1.5-5.5 2-2.6667 4-5.3333 6-8 4.89-0.2381 4.89-0.9048 0-2 1.054-1.3876 1.22-2.8876 0.5-4.5-2.301-1.1763-2.634-2.5096-1-4 1.316 2.528 2.483 2.528 3.5 0-1.022-0.854-1.855-1.854-2.5-3-0.451 2.4288-1.285 2.5955-2.5 0.5 2.326-1.5474 3.493-3.3807 3.5-5.5 1.284 1.0719 1.617 2.4052 1 4 1.333 1.3333 2.667 2.6667 4 4 1.037-1.7176 1.537-3.551 1.5-5.5-2.57-1.3493-2.57-2.516 0-3.5z" fill="#eba699"/>
<path d="m1614.5 75.5c0 0.6667 0.33 1 1 1-6.94 49.256-13.61 98.59-20 148-45.73-12.69-91.39-25.357-137-38v-1c52-36.667 104-73.333 156-110z" fill="#bb9fa1"/>
<path d="m1615.5 74.5h1c46.07 16.244 92.4 31.911 139 47v1c-52.83 34.249-105.83 68.249-159 102h-1c6.39-49.41 13.06-98.744 20-148v-2z" fill="#ae9198"/>
<path d="m1919.5 92.5v21c-31.67 23.333-63.33 46.667-95 70h-1c-22.63-19.964-44.97-40.298-67-61 54.49-10.555 108.82-20.555 163-30z" fill="#a17d8f"/>
<path d="m983.5 106.5c52.84 1.727 105.68 3.727 158.5 6 1.71-8e-3 3.21-0.342 4.5-1 0.67 0.333 1.33 0.667 2 1v1h-1c-47.26 25.466-94.93 50.132-143 74-7.313-26.587-14.313-53.254-21-80v-1z" fill="#eebbad"/>
<path d="m983.5 107.5c6.687 26.746 13.687 53.413 21 80v1c-40.19 26.925-80.524 53.592-121 80 32.585-54.178 65.918-107.84 100-161z" fill="#f8c8b6"/>
<path d="m1148.5 111.5c61.09 1.909 122.09 3.576 183 5 0.67 0.667 1.33 1.333 2 2 0.94 13.465 2.94 26.965 6 40.5 1.63 13.703 3.63 27.87 6 42.5-65.54-29.605-131.21-58.939-197-88v-1-1z" fill="#dcb3a9"/>
<path d="m1147.5 113.5c13.78 53.342 27.78 106.68 42 160-59.18-26.919-118.18-54.419-177-82.5-2.6-1.136-5.26-1.969-8-2.5v-1c48.07-23.868 95.74-48.534 143-74z" fill="#edc5b6"/>
<path d="m1147.5 113.5h1c65.79 29.061 131.46 58.395 197 88v1c-51.54 24.271-103.21 48.271-155 72h-1v-1c-14.22-53.325-28.22-106.66-42-160z" fill="#e4c1b5"/>
<path d="m1919.5 113.5v125c-31.65-17.972-63.32-35.972-95-54v-1c31.67-23.333 63.33-46.667 95-70z" fill="#a07f94"/>
<path d="m394.5 115.5c57.36 55.028 114.69 110.03 172 165-39.351 4.502-78.684 9.169-118 14-18.399-59.532-36.399-119.2-54-179z" fill="#f5a785"/>
<path d="m394.5 115.5c17.601 59.802 35.601 119.47 54 179v1c-54.149-16.606-108.15-33.606-162-51 35.772-43.225 71.772-86.225 108-129z" fill="#ee9878"/>
<path d="m1333.5 118.5c41.31 21.99 82.65 43.99 124 66v1c-36.76 6.061-73.76 11.395-111 16h-1c-2.37-14.63-4.37-28.797-6-42.5-3.06-13.535-5.06-27.035-6-40.5z" fill="#d2b0aa"/>
<path d="m1755.5 122.5h1c22.03 20.702 44.37 41.036 67 61-0.34 0.838-1.01 1.172-2 1-74.98 13.441-149.98 26.774-225 40 53.17-33.751 106.17-67.751 159-102z" fill="#aa919b"/>
<path d="m721.5 126.5c13.469 40.408 27.136 80.741 41 121-64.431 11.628-129.1 22.628-194 33 50.305-51.972 101.3-103.3 153-154z" fill="#f8bc9f"/>
<path d="m170.5 142.5v1c-4.572 25.861-9.905 51.528-16 77h-1c-44.703-4.55-90.037-8.884-136-13v-1c50.855-21.592 101.86-42.925 153-64z" fill="#da6f59"/>
<path d="m-0.5 157.5c5.9054 15.716 11.239 31.716 16 48-5.3823-1.127-10.716-2.461-16-4v-44z" fill="#c15246"/>
<path d="m1823.5 183.5h1v1c-0.91 14.099-1.91 28.266-3 42.5 0.55 1.398 0.88 2.732 1 4-1.37 20.998-2.7 41.998-4 63 0.55 1.398 0.88 2.732 1 4-2.33 36.134-3.99 72.634-5 109.5v1h-1c-61.54-19.846-123.21-39.513-185-59h-1v-1c4.79-3.239 9.45-6.739 14-10.5 59.9-51.406 119.9-102.57 180-153.5 0.99 0.172 1.66-0.162 2-1z" fill="#aaa5b6"/>
<path d="m1824.5 184.5c31.68 18.028 63.35 36.028 95 54v82c-34.93 27.963-69.26 56.629-103 86-0.67 0.333-1.33 0.667-2 1 1.01-36.866 2.67-73.366 5-109.5-0.12-1.268-0.45-2.602-1-4 1.3-21.002 2.63-42.002 4-63-0.12-1.268-0.45-2.602-1-4 1.09-14.234 2.09-28.401 3-42.5z" fill="#a595ab"/>
<path d="m1821.5 184.5c-60.1 50.927-120.1 102.09-180 153.5-4.55 3.761-9.21 7.261-14 10.5-11.13-40.862-21.8-81.862-32-123v-1h1c75.02-13.226 150.02-26.559 225-40z" fill="#aea2ab"/>
<path d="m1457.5 185.5h1v1c-2.54 56.092-4.87 112.42-7 169-0.67-0.333-1.33-0.667-2-1-33.28-49.119-66.78-98.119-100.5-147-1.56-1.717-2.39-3.717-2.5-6 37.24-4.605 74.24-9.939 111-16z" fill="#d0bdb8"/>
<path d="m1458.5 186.5c45.61 12.643 91.27 25.31 137 38v1c-48.33 42.998-96.33 86.332-144 130 2.13-56.575 4.46-112.91 7-169z" fill="#c4b6b5"/>
<path d="m1004.5 188.5c5.57 54.776 10.91 108.78 16 162-46-26.667-92-53.333-138-80v-1c0.667 0 1-0.333 1-1 40.476-26.408 80.81-53.075 121-80z" fill="#fad7c8"/>
<path d="m1004.5 188.5c2.74 0.531 5.4 1.364 8 2.5 58.82 28.081 117.82 55.581 177 82.5v1 1c-55.99 24.999-111.99 49.999-168 75h-1c-5.09-53.224-10.43-107.22-16-162z" fill="#f2d3c6"/>
<path d="m-0.5 201.5c5.2844 1.539 10.618 2.873 16 4 0.6667 0 1 0.333 1 1-6.2982 0.011-11.965 0.344-17 1v-6z" fill="#bf5b4d"/>
<path d="m1345.5 202.5c-13.8 43.395-27.8 86.728-42 130-37.79-19.064-75.46-38.398-113-58 51.79-23.729 103.46-47.729 155-72z" fill="#dfc9c1"/>
<path d="m1345.5 201.5h1c0.11 2.283 0.94 4.283 2.5 6 33.72 48.881 67.22 97.881 100.5 147-48.7-7.116-97.36-14.449-146-22 14.2-43.272 28.2-86.605 42-130v-1z" fill="#d6c7c4"/>
<path d="m16.5 206.5h1v1c-6.1553 20.288-12.155 40.621-18 61v-61c5.0352-0.656 10.702-0.989 17-1z" fill="#cc6a5a"/>
<path d="m17.5 207.5c45.963 4.116 91.297 8.45 136 13-50.905 34.851-102.24 69.851-154 105v-57c5.8447-20.379 11.845-40.712 18-61z" fill="#dc745e"/>
<path d="m153.5 220.5h1v1c-22.531 65.592-44.864 131.26-67 197h-1c-29.14-21.412-58.14-43.078-87-65v-28c51.762-35.149 103.1-70.149 154-105z" fill="#df8370"/>
<path d="m154.5 221.5v-1c43.499 8.4 86.999 16.733 130.5 25 0.383-0.556 0.883-0.889 1.5-1v2c-15.289 54.48-30.289 109.15-45 164h-1c-28.303-63.275-56.97-126.28-86-189z" fill="#e98f76"/>
<path d="m154.5 221.5c29.03 62.725 57.697 125.72 86 189-51.015 2.457-102.02 5.124-153 8 22.136-65.741 44.469-131.41 67-197z" fill="#e7917b"/>
<path d="m1595.5 225.5c10.2 41.138 20.87 82.138 32 123v1 1c-58.7 1.468-117.37 3.468-176 6v-1c47.67-43.668 95.67-87.002 144-130z" fill="#bdb8be"/>
<path d="m286.5 244.5c53.851 17.394 107.85 34.394 162 51-12.644 27.292-25.311 54.625-38 82h-1c-4.771-6.606-10.437-12.439-17-17.5l1-1c-35.82-37.971-71.486-75.471-107-112.5v-2z" fill="#f2a78a"/>
<path d="m286.5 246.5c35.514 37.029 71.18 74.529 107 112.5l-1 1c6.563 5.061 12.229 10.894 17 17.5h-1c-56 11.264-111.67 22.597-167 34v-1c14.711-54.854 29.711-109.52 45-164z" fill="#f0a28a"/>
<path d="m762.5 247.5h1c-0.259 37.322-0.925 75.488-2 114.5 0.211 3.748 0.545 7.915 1 12.5v1c0 0.667-0.333 1-1 1-63.714 5.368-127.38 11.035-191 17-0.667 0.333-1.333 0.667-2 1v-1c-1.145-37.399-1.478-74.733-1-112v-1h1c64.903-10.372 129.57-21.372 194-33z" fill="#fbccb3"/>
<path d="m763.5 247.5c39.474 7.567 78.807 14.567 118 21 0 0.667 0.333 1 1 1v1c-40.295 34.293-80.295 68.96-120 104-0.455-4.585-0.789-8.752-1-12.5 1.075-39.012 1.741-77.178 2-114.5z" fill="#fbd2bd"/>
<path d="m882.5 270.5c46 26.667 92 53.333 138 80v1l-171 66c10.533-49.13 21.533-98.13 33-147z" fill="#fae2d4"/>
<path d="m882.5 270.5c-11.467 48.87-22.467 97.87-33 147-29.507-13.927-58.507-27.927-87-42v-1c39.705-35.04 79.705-69.707 120-104z" fill="#fcddcd"/>
<path d="m1189.5 274.5h1c37.54 19.602 75.21 38.936 113 58 0 0.667-0.33 1-1 1-33.83 16.053-67.83 31.719-102 47-0.79-0.283-1.46-0.783-2-1.5 0.24-5.123 0.24-10.456 0-16-0.67-1.667-1.33-3.333-2-5 0.67-1.751 1.01-3.417 1-5-1.17-9.024-2.5-18.024-4-27 0.67-1.751 1.01-3.417 1-5-1.84-14.88-3.5-30.047-5-45.5v-1z" fill="#e5d6d0"/>
<path d="m1189.5 275.5c1.5 15.453 3.16 30.62 5 45.5 0.01 1.583-0.33 3.249-1 5 1.5 8.976 2.83 17.976 4 27 0.01 1.583-0.33 3.249-1 5 0.67 1.667 1.33 3.333 2 5 0.24 5.544 0.24 10.877 0 16 0.54 0.717 1.21 1.217 2 1.5v1h-1c-56.63-9.605-113.29-19.105-170-28.5-2.96-0.279-5.62-1.113-8-2.5 56.01-25.001 112.01-50.001 168-75z" fill="#eedcd4"/>
<path d="m566.5 280.5c0 0.667 0.333 1 1 1-0.478 37.267-0.145 74.601 1 112-52.646-5.465-105.31-10.798-158-16 12.689-27.375 25.356-54.708 38-82v-1c39.316-4.831 78.649-9.498 118-14z" fill="#f8bc9f"/>
<path d="m1919.5 320.5v54c-34.04 10.561-68.37 21.228-103 32 33.74-29.371 68.07-58.037 103-86z" fill="#9f99b2"/>
<path d="m1302.5 333.5c0.29 61.427 0.95 122.76 2 184-35.02-45.025-69.69-90.358-104-136v-1c34.17-15.281 68.17-30.947 102-47z" fill="#dedede"/>
<path d="m1303.5 332.5c48.64 7.551 97.3 14.884 146 22 0.67 0.333 1.33 0.667 2 1v1c0 0.667-0.33 1-1 1-48.67 53.342-97.01 107.01-145 161h-1v-1c-1.05-61.239-1.71-122.57-2-184 0.67 0 1-0.333 1-1z" fill="#d6d8d9"/>
<path d="m1627.5 350.5c-47.36 50.36-94.69 100.69-142 151h-1c-11.02-48.094-22.36-96.094-34-144 0.67 0 1-0.333 1-1 58.63-2.532 117.3-4.532 176-6z" fill="#bfc9d1"/>
<path d="m1628.5 349.5c61.79 19.487 123.46 39.154 185 59-20.33 48-40.67 96-61 144-41.33-67-82.67-134-124-201v-2z" fill="#a7b5cb"/>
<path d="m1020.5 351.5v1c-11.12 70.032-22.45 140.03-34 210-46.298-47.334-91.964-95.334-137-144v-1l171-66z" fill="#f9ede7"/>
<path d="m1020.5 350.5h1c2.38 1.387 5.04 2.221 8 2.5 56.71 9.395 113.37 18.895 170 28.5-19.33 54.988-38.66 109.99-58 165h-1c-37.16-60.981-74.33-121.98-111.5-183-2.39-4.151-5.22-7.817-8.5-11v-1-1z" fill="#eee8e4"/>
<path d="m1627.5 349.5h1v2c-5.89 71.971-11.55 143.97-17 216h-1c-41.55-21.852-83.21-43.519-125-65v-1c47.31-50.307 94.64-100.64 142-151v-1z" fill="#b6c9d9"/>
<path d="m1020.5 352.5c3.28 3.183 6.11 6.849 8.5 11 37.17 61.019 74.34 122.02 111.5 183-51.38 5.071-102.71 10.405-154 16 11.55-69.968 22.88-139.97 34-210z" fill="#f1eeed"/>
<path d="m1628.5 351.5c41.33 67 82.67 134 124 201v1h-1c-46.69 4.447-93.35 9.113-140 14 5.45-72.029 11.11-144.03 17-216z" fill="#a9c1d6"/>
<path d="m-0.5 353.5c28.86 21.922 57.86 43.588 87 65-0.3333 0.667-0.6667 1.333-1 2-28.639 17.322-57.306 34.655-86 52v-119z" fill="#db867a"/>
<path d="m1450.5 357.5c11.64 47.906 22.98 95.906 34 144-17.78 1.993-35.28 3.993-52.5 6-6.21 0.375-12.54 0.375-19 0-3.86 1.505-7.86 2.505-12 3-0.33-0.667-0.67-1.333-1-2-3.08 1.615-6.41 2.615-10 3-6.54 0.341-13.21 0.341-20 0-0.32 1.801-0.98 2.134-2 1-20.73 2.61-41.56 4.61-62.5 6 47.99-53.991 96.33-107.66 145-161z" fill="#cdd8df"/>
<path d="m1919.5 374.5v87c-4.99 7.964-9.99 15.964-15 24-30-25.667-60-51.333-90-77v-1c0.67-0.333 1.33-0.667 2-1 34.63-10.772 68.96-21.439 103-32z" fill="#9ea3c0"/>
<path d="m761.5 376.5c6.171 50.701 12.504 101.37 19 152-70.514-44.177-140.51-89.177-210-135 63.619-5.965 127.29-11.632 191-17z" fill="#fcddcc"/>
<path d="m762.5 375.5c28.493 14.073 57.493 28.073 87 42v1c-22.903 36.797-45.57 73.797-68 111h-1v-1c-6.496-50.633-12.829-101.3-19-152 0.667 0 1-0.333 1-1z" fill="#fbe4d7"/>
<path d="m408.5 377.5c-56.417 45.379-113.42 90.046-171 134 1.147-33.344 2.48-66.677 4-100 55.334-11.403 111-22.736 167-34z" fill="#f1ab96"/>
<path d="m409.5 377.5h1c52.687 5.202 105.35 10.535 158 16v1c-10.448 36.783-20.448 73.783-30 111h-1c-41.917-42.417-84.084-84.751-126.5-127-0.483 0.948-0.649 1.948-0.5 3-0.934-1.068-1.268-2.401-1-4z" fill="#fac7ae"/>
<path d="m408.5 377.5h1c-0.268 1.599 0.066 2.932 1 4 5.391 68.356 11.057 136.69 17 205-63.255-24.863-126.59-49.529-190-74v-1c57.583-43.954 114.58-88.621 171-134z" fill="#f3b9a6"/>
<path d="m537.5 505.5c-36.155 27.244-72.488 54.244-109 81h-1c-5.943-68.311-11.609-136.64-17-205-0.149-1.052 0.017-2.052 0.5-3 42.416 42.249 84.583 84.583 126.5 127z" fill="#f8c5b1"/>
<path d="m1199.5 381.5h1c34.31 45.642 68.98 90.975 104 136v1 1c-54.32 9.093-108.65 18.093-163 27 19.34-55.012 38.67-110.01 58-165z" fill="#e3e7ea"/>
<path d="m570.5 393.5c69.486 45.823 139.49 90.823 210 135v1c0 0.667-0.333 1-1 1-80.296-8.53-160.63-16.863-241-25 9.552-37.217 19.552-74.217 30-111 0.667-0.333 1.333-0.667 2-1z" fill="#fbd8c7"/>
<path d="m1813.5 408.5h1c30 25.667 60 51.333 90 77v1h-1c-50.22 22.275-100.55 44.275-151 66 20.33-48 40.67-96 61-144z" fill="#a0afcd"/>
<path d="m240.5 410.5h1v1c-1.52 33.323-2.853 66.656-4 100v1h-2c-48.99-31.164-98.323-61.831-148-92v-2c50.985-2.876 101.98-5.543 153-8z" fill="#ea9d8c"/>
<path d="m849.5 418.5c45.036 48.666 90.702 96.666 137 144 0 0.667-0.333 1-1 1-30.617 8.206-61.283 16.206-92 24h-1c-14.491-56.298-28.824-112.63-43-169z" fill="#f8f1ee"/>
<path d="m86.5 418.5h1v2c26 50.667 52 101.33 78 152-4.587 0.481-8.754 0.481-12.5 0-6.175 0.595-12.175 1.595-18 3-3.7-0.954-8.033-0.621-13 1-1-0.333-2-0.667-3-1-2.667 0.667-5.333 1.333-8 2-1.268-0.116-2.602-0.449-4-1-2.667 0.667-5.333 1.333-8 2-1-0.333-2-0.667-3-1-2.6667 0.667-5.3333 1.333-8 2-1-0.333-2-0.667-3-1-3 0.667-6 1.333-9 2-1-0.333-2-0.667-3-1-2.6667 0.667-5.3333 1.333-8 2-5.5782 0.145-11.245 0.145-17 0-3.3394 1.512-6.3394 1.846-9 1-4.9212 1.633-9.5879 1.967-14 1-3.3394 1.512-6.3394 1.846-9 1-5.833 1.728-11.333 2.395-16.5 2v-28c29.164-45.656 57.831-91.656 86-138 0.3333-0.667 0.6667-1.333 1-2z" fill="#e5978f"/>
<path d="m85.5 420.5c-28.169 46.344-56.836 92.344-86 138v-86c28.694-17.345 57.361-34.678 86-52z" fill="#dc8d85"/>
<path d="m87.5 420.5c49.677 30.169 99.01 60.836 148 92-22.439 20.708-45.439 40.708-69 60h-1c-26-50.667-52-101.33-78-152z" fill="#eaa093"/>
<path d="m849.5 418.5c14.176 56.369 28.509 112.7 43 169-36.87-19.268-73.87-38.268-111-57v-1c22.43-37.203 45.097-74.203 68-111z" fill="#f9ede7"/>
<path d="m1919.5 461.5v32c-4.85-2.59-9.85-4.924-15-7v-1c5.01-8.036 10.01-16.036 15-24z" fill="#959dbc"/>
<path d="m1903.5 486.5c5.29 29.422 10.62 58.422 16 87v65c-55.54-28.602-111.2-56.935-167-85v-1c50.45-21.725 100.78-43.725 151-66z" fill="#98afd4"/>
<path d="m1903.5 486.5h1c5.15 2.076 10.15 4.41 15 7v80c-5.38-28.578-10.71-57.578-16-87z" fill="#90a3c8"/>
<path d="m1484.5 501.5h1v1c-0.84 0.342-1.17 1.008-1 2-40.23 68.12-80.23 136.45-120 205h-1v-1c-19.75-62.778-39.41-125.44-59-188v-1-1h1c20.94-1.39 41.77-3.39 62.5-6 1.02 1.134 1.68 0.801 2-1 6.79 0.341 13.46 0.341 20 0 3.59-0.385 6.92-1.385 10-3 0.33 0.667 0.67 1.333 1 2 4.14-0.495 8.14-1.495 12-3 6.46 0.375 12.79 0.375 19 0 17.22-2.007 34.72-4.007 52.5-6z" fill="#c9dfec"/>
<path d="m1485.5 502.5c41.79 21.481 83.45 43.148 125 65-27.74 53.824-55.74 107.49-84 161h-1c-13.67-74.683-27.34-149.35-41-224-0.17-0.992 0.16-1.658 1-2z" fill="#b1d0e4"/>
<path d="m1484.5 504.5c13.66 74.651 27.33 149.32 41 224v1c-51.95-6.365-103.95-12.365-156-18-1.21-0.734-2.54-1.067-4-1 0-0.667-0.33-1-1-1 39.77-68.547 79.77-136.88 120-205z" fill="#b6d5e6"/>
<path d="m538.5 505.5c80.371 8.137 160.7 16.47 241 25-59.801 58.3-119.8 116.47-180 174.5-1.641 1.129-2.641 2.629-3 4.5h-1-1c0-0.667-0.333-1-1-1v-1c-18.333-67.333-36.667-134.67-55-202z" fill="#f5dcd1"/>
<path d="m537.5 505.5h1c18.333 67.333 36.667 134.67 55 202-2.774-1.223-5.441-2.723-8-4.5-52.007-38.998-104.34-77.498-157-115.5v-1c36.512-26.756 72.845-53.756 109-81z" fill="#f3cfc0"/>
<path d="m235.5 512.5h2c24.393 53.786 49.06 107.45 74 161-48.333-33.333-96.667-66.667-145-100v-1c23.561-19.292 46.561-39.292 69-60z" fill="#e9a99d"/>
<path d="m237.5 512.5c63.412 24.471 126.74 49.137 190 74h1v1h-1l-114 87h-1c0-0.667-0.333-1-1-1-24.94-53.547-49.607-107.21-74-161z" fill="#edb4a7"/>
<path d="m1304.5 519.5v1c-29.66 37.961-59.32 75.961-89 114-67.55 21.073-135.22 41.74-203 62 43.05-50.045 86.05-100.04 129-150 54.35-8.907 108.68-17.907 163-27z" fill="#dfebf2"/>
<path d="m1304.5 520.5c19.59 62.556 39.25 125.22 59 188-9.87-3.936-19.54-8.436-29-13.5-39-20.167-78-40.333-117-60.5-0.68 0.363-1.35 0.696-2 1v-1c29.68-38.039 59.34-76.039 89-114z" fill="#cee2ee"/>
<path d="m780.5 529.5h1v1 2c-9.367 67.917-18.367 136.25-27 205v1h-1c-52.172-9.975-104.51-19.642-157-29 0.359-1.871 1.359-3.371 3-4.5 60.199-58.034 120.2-116.2 180-174.5 0.667 0 1-0.333 1-1z" fill="#eee1da"/>
<path d="m781.5 530.5c37.13 18.732 74.13 37.732 111 57h1v1c-19.845 45.034-39.178 90.367-58 136h-1c-17.416-64.086-35.083-128.09-53-192v-2z" fill="#f0ece8"/>
<path d="m781.5 532.5c17.917 63.914 35.584 127.91 53 192-1.384 1.301-2.884 1.301-4.5 0-0.333 0.667-0.667 1.333-1 2-1.907 0.079-3.907-0.254-6-1-2.629 1.163-5.295 2.163-8 3-3.169 0.735-6.502 0.735-10 0-5.15 2.061-10.483 3.394-16 4l-1-1c-1.555 1.646-3.221 1.979-5 1-5.252 1.99-10.586 2.657-16 2-3.838 2.007-8.005 3.007-12.5 3 8.633-68.75 17.633-137.08 27-205z" fill="#ece6e3"/>
<path d="m1140.5 546.5h1c-42.95 49.955-85.95 99.955-129 150h-1v-1c-9.29-43.836-17.957-87.836-26-132 0.667 0 1-0.333 1-1 51.29-5.595 102.62-10.929 154-16z" fill="#e9f1f3"/>
<path d="m1751.5 553.5c-37.67 55.333-75.33 110.67-113 166h-1c0.09-0.996-0.25-1.829-1-2.5 0.67-0.333 1.33-0.667 2-1-1.19-2.057-2.19-4.057-3-6-0.01-1.583 0.33-3.249 1-5-1.37-1.441-2.37-3.108-3-5-0.42-3.303-0.42-6.303 0-9-2.39-1.309-2.39-2.309 0-3-1.39-1.171-2.23-2.671-2.5-4.5-0.59-6.315-1.76-12.815-3.5-19.5 0.09-1.107 0.42-2.107 1-3-2.6-3.804-3.94-7.804-4-12-0.08-1.907 0.25-3.907 1-6-1.37-1.441-2.37-3.108-3-5-0.01-1.583 0.33-3.249 1-5-0.67-0.333-1.33-0.667-2-1 0.74-1.824 1.07-3.824 1-6-1.24-1.154-2.24-2.488-3-4 0.87-2.035 1.21-4.368 1-7-1.5-1.337-2.5-3.004-3-5-0.09-1.716 0.24-3.549 1-5.5-1.37-1.99-2.37-4.157-3-6.5 0.67-0.333 1.33-0.667 2-1-1.77-2.383-3.11-5.05-4-8 2.67-0.667 2.67-1.333 0-2 0.33-0.333 0.67-0.667 1-1-2.19-5.945-3.19-12.111-3-18.5 46.65-4.887 93.31-9.553 140-14z" fill="#9ec1dc"/>
<path d="m1751.5 553.5h1c16.8 54.399 33.8 108.73 51 163-54.83 1.499-109.83 2.499-165 3 37.67-55.333 75.33-110.67 113-166z" fill="#92b8d8"/>
<path d="m1752.5 553.5c55.8 28.065 111.46 56.398 167 85v14c-38.03 21.679-76.03 43.345-114 65h-1c0-0.667-0.33-1-1-1-17.2-54.268-34.2-108.6-51-163z" fill="#90afd4"/>
<path d="m985.5 563.5c8.043 44.164 16.71 88.164 26 132-39.68-35.192-79.013-70.859-118-107v-1c30.717-7.794 61.383-15.794 92-24z" fill="#edf2f5"/>
<path d="m1610.5 567.5h1c-0.19 6.389 0.81 12.555 3 18.5-0.33 0.333-0.67 0.667-1 1 2.67 0.667 2.67 1.333 0 2 0.89 2.95 2.23 5.617 4 8-0.67 0.333-1.33 0.667-2 1 0.63 2.343 1.63 4.51 3 6.5-0.76 1.951-1.09 3.784-1 5.5 0.5 1.996 1.5 3.663 3 5 0.21 2.632-0.13 4.965-1 7 0.76 1.512 1.76 2.846 3 4 0.07 2.176-0.26 4.176-1 6 0.67 0.333 1.33 0.667 2 1-0.67 1.751-1.01 3.417-1 5 0.63 1.892 1.63 3.559 3 5-0.75 2.093-1.08 4.093-1 6 0.06 4.196 1.4 8.196 4 12-0.58 0.893-0.91 1.893-1 3 1.74 6.685 2.91 13.185 3.5 19.5 0.27 1.829 1.11 3.329 2.5 4.5-2.39 0.691-2.39 1.691 0 3-0.42 2.697-0.42 5.697 0 9 0.63 1.892 1.63 3.559 3 5-0.67 1.751-1.01 3.417-1 5 0.81 1.943 1.81 3.943 3 6-0.67 0.333-1.33 0.667-2 1 0.75 0.671 1.09 1.504 1 2.5h-2c-36.31 3.165-72.64 6.165-109 9 28.26-53.509 56.26-107.18 84-161z" fill="#a1c6df"/>
<path d="m165.5 572.5h1v1c-26.019 33.358-51.686 67.025-77 101h-1c-29.311-23.962-58.977-47.629-89-71v-17c5.167 0.395 10.667-0.272 16.5-2 2.6606 0.846 5.6606 0.512 9-1 4.4121 0.967 9.0788 0.633 14-1 2.6606 0.846 5.6606 0.512 9-1 5.7552 0.145 11.422 0.145 17 0 2.6667-0.667 5.3333-1.333 8-2 1 0.333 2 0.667 3 1 3-0.667 6-1.333 9-2 1 0.333 2 0.667 3 1 2.6667-0.667 5.3333-1.333 8-2 1 0.333 2 0.667 3 1 2.667-0.667 5.333-1.333 8-2 1.398 0.551 2.732 0.884 4 1 2.667-0.667 5.333-1.333 8-2 1 0.333 2 0.667 3 1 4.967-1.621 9.3-1.954 13-1 5.825-1.405 11.825-2.405 18-3 3.746 0.481 7.913 0.481 12.5 0z" fill="#de9690"/>
<path d="m166.5 573.5c48.333 33.333 96.667 66.667 145 100 0.667 0 1 0.333 1 1-73.758 0.097-147.76 0.097-222 0h-1c25.314-33.975 50.981-67.642 77-101z" fill="#e1a098"/>
<path d="m427.5 587.5c-14.993 41.989-29.993 83.989-45 126-0.667-0.333-1.333-0.667-2-1-22.173-12.587-44.506-24.92-67-37v-1l114-87z" fill="#e9b9ac"/>
<path d="m427.5 587.5h1c52.659 38.002 104.99 76.502 157 115.5 2.559 1.777 5.226 3.277 8 4.5v1c-11.069 0.677-22.235 1.343-33.5 2-4.125-0.708-8.125-1.041-12-1-13.667 0.667-27.333 1.333-41 2-3.875 0.041-7.875-0.292-12-1-37.722 1.097-75.222 2.097-112.5 3 15.007-42.011 30.007-84.011 45-126z" fill="#ecc5b6"/>
<path d="m893.5 588.5c38.987 36.141 78.32 71.808 118 107v1c-58.496 9.158-117.16 18.491-176 28 18.822-45.633 38.155-90.966 58-136z" fill="#e8eeef"/>
<path d="m-0.5 603.5c30.023 23.371 59.689 47.038 89 71-7.2243-0.449-14.391-0.449-21.5 0-5.6667-0.667-11.333-1.333-17-2-7.161 0.679-14.494 1.012-22 1-3.6667-0.667-7.3333-1.333-11-2-0.6708 0.752-1.5041 1.086-2.5 1-4.8228-11.82-9.8228-23.487-15-35v-34z" fill="#d68f8a"/>
<path d="m1215.5 634.5v1c-19.31 75.255-38.31 150.59-57 226-0.61 0.891-0.94 1.891-1 3h-1c-48.27-54.463-96.1-109.46-143.5-165 12.48 50.584 24.98 101.25 37.5 152-52.223-18.628-104.22-37.628-156-57 39.042-33.044 78.375-65.71 118-98 67.78-20.26 135.45-40.927 203-62z" fill="#d2e4ef"/>
<path d="m1363.5 708.5v1c-68.33 50.667-136.67 101.33-205 152 18.69-75.412 37.69-150.74 57-226 0.65-0.304 1.32-0.637 2-1 39 20.167 78 40.333 117 60.5 9.46 5.064 19.13 9.564 29 13.5z" fill="#c6ddeb"/>
<path d="m-0.5 637.5c5.1772 11.513 10.177 23.18 15 35h-1c-4.6667 1.667-9.3333 3.333-14 5v-40z" fill="#cb8787"/>
<path d="m1919.5 652.5v29c-12.51 33.52-24.84 67.187-37 101-26.26-20.964-51.93-42.631-77-65 37.97-21.655 75.97-43.321 114-65z" fill="#83a7d0"/>
<path d="m88.5 674.5c1.8268 70.648 3.1601 141.31 4 212-26.571-71.04-52.571-142.37-78-214 0.9959 0.086 1.8292-0.248 2.5-1 3.6667 0.667 7.3333 1.333 11 2 7.5057 0.012 14.839-0.321 22-1 5.6667 0.667 11.333 1.333 17 2 7.109-0.449 14.276-0.449 21.5 0z" fill="#cc8b8a"/>
<path d="m13.5 672.5c-4.0646 16.936-8.7312 33.603-14 50v-45c4.6667-1.667 9.3333-3.333 14-5z" fill="#bd8083"/>
<path d="m13.5 672.5h1c25.429 71.626 51.429 142.96 78 214v1c-31.008-1.182-62.008-2.516-93-4v-161c5.2688-16.397 9.9354-33.064 14-50z" fill="#bf8183"/>
<path d="m88.5 674.5h1 1c64.635 68.636 129.64 136.97 195 205-3.141 0.821-6.475 1.321-10 1.5-60.668 2.214-121.33 4.381-182 6.5h-1v-1c-0.8399-70.686-2.1732-141.35-4-212z" fill="#c8918f"/>
<path d="m312.5 674.5h1v1c-7.84 65.651-16.173 131.98-25 199-0.841 1.879-1.175 3.879-1 6 0 0.667-0.333 1-1 1 0.172-0.992-0.162-1.658-1-2-65.365-68.031-130.36-136.36-195-205 74.242 0.097 148.24 0.097 222 0z" fill="#d89f98"/>
<path d="m313.5 675.5c22.494 12.08 44.827 24.413 67 37-30.164 54.333-60.831 108.33-92 162 8.827-67.015 17.16-133.35 25-199z" fill="#daaca3"/>
<path d="m1919.5 681.5v86c-12.4 4.801-24.73 9.801-37 15 12.16-33.813 24.49-67.48 37-101z" fill="#809bc4"/>
<path d="m1011.5 696.5h1c-39.625 32.29-78.958 64.956-118 98h-2c0-0.667-0.333-1-1-1-18.915-22.847-37.581-45.847-56-69 58.837-9.509 117.5-18.842 176-28z" fill="#dfe8ed"/>
<path d="m1156.5 864.5c-35.05-4.089-70.05-8.422-105-13h-1c-12.52-50.749-25.02-101.42-37.5-152 47.4 55.537 95.23 110.54 143.5 165z" fill="#c8dfec"/>
<path d="m593.5 708.5c0.667 0 1 0.333 1 1v1c-63.645 29.491-126.98 59.491-190 90h-2-1c-6.278-28.612-12.945-57.112-20-85.5 0.556-0.383 0.889-0.883 1-1.5 37.278-0.903 74.778-1.903 112.5-3 4.125 0.708 8.125 1.041 12 1 13.667-0.667 27.333-1.333 41-2 3.875-0.041 7.875 0.292 12 1 11.265-0.657 22.431-1.323 33.5-2z" fill="#e2bfb3"/>
<path d="m594.5 709.5h1c41.164 26.086 82.831 51.419 125 76v1h-1c-35.666 11.333-71.333 22.666-107 34h-1c-5.295-36.735-10.962-73.402-17-110v-1z" fill="#dcd1cc"/>
<path d="m595.5 709.5h1c52.494 9.358 104.83 19.025 157 29-10.754 15.842-21.754 31.508-33 47-42.169-24.581-83.836-49.914-125-76z" fill="#e1d9d4"/>
<path d="m1363.5 709.5h1c0.67 0 1 0.333 1 1-1.32 2.758-1.98 5.924-2 9.5 0.86 33.166 1.52 65.999 2 98.5v1c-69.38 14.786-138.72 29.786-208 45 0.06-1.109 0.39-2.109 1-3 68.33-50.667 136.67-101.33 205-152z" fill="#b4d4e6"/>
<path d="m594.5 710.5c6.038 36.598 11.705 73.265 17 110-69.195-6.947-138.2-13.614-207-20 63.022-30.509 126.36-60.509 190-90z" fill="#ddc5bc"/>
<path d="m1365.5 710.5c1.46-0.067 2.79 0.266 4 1 10.38 5.601 20.55 10.935 30.5 16 1.4-0.551 2.73-0.884 4-1 0.33 0.667 0.67 1.333 1 2h3c4.45 3.958 8.78 7.292 13 10 6.1 1.7 12.1 4.367 18 8 0.91-3.685 1.58-3.352 2 1 1.02-1.134 1.68-0.801 2 1 0.33-0.333 0.67-0.667 1-1 3.91 4.179 8.25 5.845 13 5 0.92 2.132 2.25 2.799 4 2 0.5 1.167 1.33 2 2.5 2.5-0.33 0.333-0.67 0.667-1 1 11.7 5.366 22.37 10.533 32 15.5 2.38 0.711 4.88 2.044 7.5 4 0.33-0.667 0.67-1.333 1-2 3.42 2.89 7.09 4.556 11 5 1.39 2.202 2.89 4.202 4.5 6-50.97 10.826-101.97 21.493-153 32-0.48-32.501-1.14-65.334-2-98.5 0.02-3.576 0.68-6.742 2-9.5z" fill="#a8cfe4"/>
<path d="m380.5 712.5c0.667 0.333 1.333 0.667 2 1-0.111 0.617-0.444 1.117-1 1.5 7.055 28.388 13.722 56.888 20 85.5-0.333 0.667-0.667 1.333-1 2-37.812 25.743-75.478 51.743-113 78-0.175-2.121 0.159-4.121 1-6 31.169-53.667 61.836-107.67 92-162z" fill="#d4aca5"/>
<path d="m1803.5 716.5c0.67 0 1 0.333 1 1v1c-52.31 30.155-104.64 60.322-157 90.5-1.52 1.009-3.19 1.509-5 1.5-1.33-29.021-3-58.021-5-87 0.12-1.425 0.46-2.758 1-4 55.17-0.501 110.17-1.501 165-3z" fill="#85b4d6"/>
<path d="m1804.5 718.5c-19.33 53.333-38.67 106.67-58 160v1h-2c-33.72-23.051-67.72-45.718-102-68v-1c1.81 9e-3 3.48-0.491 5-1.5 52.36-30.178 104.69-60.345 157-90.5z" fill="#79acd1"/>
<path d="m1804.5 717.5h1c25.07 22.369 50.74 44.036 77 65v1h-1c-45.18 31.421-90.18 63.087-135 95 19.33-53.333 38.67-106.67 58-160v-1z" fill="#78a6ce"/>
<path d="m1635.5 719.5h2 1c-0.54 1.242-0.88 2.575-1 4 2 28.979 3.67 57.979 5 87-41.06-8.183-82.06-16.517-123-25v-2c39-20.829 77.66-42.163 116-64z" fill="#8ebcda"/>
<path d="m1635.5 719.5c-38.34 21.837-77 43.171-116 64 2.16-17.982 4.16-35.982 6-54v-1h1c36.36-2.835 72.69-5.835 109-9z" fill="#98c4de"/>
<path d="m834.5 724.5h1c18.419 23.153 37.085 46.153 56 69-45.746-18.138-91.413-36.471-137-55v-1c4.495 7e-3 8.662-0.993 12.5-3 5.414 0.657 10.748-0.01 16-2 1.779 0.979 3.445 0.646 5-1l1 1c5.517-0.606 10.85-1.939 16-4 3.498 0.735 6.831 0.735 10 0 2.705-0.837 5.371-1.837 8-3 2.093 0.746 4.093 1.079 6 1 0.333-0.667 0.667-1.333 1-2 1.616 1.301 3.116 1.301 4.5 0z" fill="#dee2e4"/>
<path d="m753.5 738.5h1c45.587 18.529 91.254 36.862 137 55 0.667 0 1 0.333 1 1v1c-57.623-3.188-114.96-6.188-172-9v-1c11.246-15.492 22.246-31.158 33-47z" fill="#dcdede"/>
<path d="m1369.5 711.5c52.05 5.635 104.05 11.635 156 18-1.84 18.018-3.84 36.018-6 54v2c0 0.667-0.33 1-1 1-1.61-1.798-3.11-3.798-4.5-6-3.91-0.444-7.58-2.11-11-5-0.33 0.667-0.67 1.333-1 2-2.62-1.956-5.12-3.289-7.5-4-9.63-4.967-20.3-10.134-32-15.5 0.33-0.333 0.67-0.667 1-1-1.17-0.5-2-1.333-2.5-2.5-1.75 0.799-3.08 0.132-4-2-4.75 0.845-9.09-0.821-13-5-0.33 0.333-0.67 0.667-1 1-0.32-1.801-0.98-2.134-2-1-0.42-4.352-1.09-4.685-2-1-5.9-3.633-11.9-6.3-18-8-4.22-2.708-8.55-6.042-13-10h-3c-0.33-0.667-0.67-1.333-1-2-1.27 0.116-2.6 0.449-4 1-9.95-5.065-20.12-10.399-30.5-16z" fill="#a6cee4"/>
<path d="m1919.5 767.5v30c-12.33-4.667-24.67-9.333-37-14v-1c12.27-5.199 24.6-10.199 37-15z" fill="#6c8cb4"/>
<path d="m1881.5 783.5c4.87 47.609 9.21 95.276 13 143 0.31 2.424-0.03 4.757-1 7-48.96-17.874-97.96-35.541-147-53v-1-1c44.82-31.913 89.82-63.579 135-95z" fill="#679bc8"/>
<path d="m1881.5 783.5h1c12.33 4.667 24.67 9.333 37 14v132c-7.63 1.824-15.3 3.49-23 5h-1c0.31-2.885-0.03-5.552-1-8-3.79-47.724-8.13-95.391-13-143z" fill="#5f8ebd"/>
<path d="m1519.5 785.5c40.94 8.483 81.94 16.817 123 25v1c-49.72 43.729-99.72 87.063-150 130 8.93-51.625 17.59-103.29 26-155 0.67 0 1-0.333 1-1z" fill="#86bad9"/>
<path d="m719.5 786.5c3.874 54.982 7.541 109.98 11 165-39.674-43.008-79.008-86.342-118-130v-1c35.667-11.334 71.334-22.667 107-34z" fill="#cfcecf"/>
<path d="m719.5 786.5h1c37.915 56.829 75.582 113.83 113 171-16.785-0.438-33.452-1.438-50-3-0.586 0.209-1.086 0.543-1.5 1-16.386-1.362-33.053-2.696-50-4-0.399 0.228-0.565 0.562-0.5 1h-1v-1c-3.459-55.018-7.126-110.02-11-165z" fill="#c4cdd3"/>
<path d="m720.5 786.5c57.044 2.812 114.38 5.812 172 9v2c-18.961 53.889-38.294 107.56-58 161 0-0.667-0.333-1-1-1-37.418-57.171-75.085-114.17-113-171z" fill="#cdd7de"/>
<path d="m1518.5 786.5c-8.41 51.708-17.07 103.38-26 155v2c-41.33 0.682-82.66 1.016-124 1v-1c-0.84-41.338-1.84-82.672-3-124v-1c51.03-10.507 102.03-21.174 153-32z" fill="#91c3dd"/>
<path d="m892.5 794.5h2c51.777 19.372 103.78 38.372 156 57h1c-11.64 45.233-22.98 90.567-34 136h-1-2c-39.672-64.021-80.339-127.35-122-190v-2-1z" fill="#c1dae9"/>
<path d="m892.5 797.5c41.661 62.646 82.328 125.98 122 190-56.956-9.304-113.96-18.47-171-27.5-3.092-0.736-6.092-0.569-9 0.5v-2c19.706-53.444 39.039-107.11 58-161z" fill="#bed3e2"/>
<path d="m401.5 800.5h1v2c28.2 77.269 56.2 154.6 84 232 0.065 0.44-0.101 0.77-0.5 1-62.089-12.32-124.26-24.32-186.5-36v-1c34.16-64.984 67.826-130.32 101-196 0.333-0.667 0.667-1.333 1-2z" fill="#bb9e9f"/>
<path d="m400.5 802.5c-33.174 65.683-66.84 131.02-101 196h-1c-3.738-38.712-7.738-77.379-12-116v-1c0.667 0 1-0.333 1-1 37.522-26.257 75.188-52.257 113-78z" fill="#c49e9c"/>
<path d="m402.5 802.5c49.072 54.736 97.406 110.07 145 166-19.295 22.63-38.961 44.96-59 67-0.667-0.33-1.333-0.67-2-1-27.8-77.398-55.8-154.73-84-232z" fill="#c0abaa"/>
<path d="m1642.5 811.5c34.28 22.282 68.28 44.949 102 68-20.81 51.781-41.81 103.45-63 155-0.99 0.17-1.66-0.16-2-1-11.85-73.753-24.18-147.75-37-222z" fill="#64a5cd"/>
<path d="m1642.5 811.5c12.82 74.247 25.15 148.25 37 222-62.46-29.73-124.79-59.727-187-90v-2c50.28-42.937 100.28-86.271 150-130z" fill="#6caad0"/>
<path d="m1365.5 819.5c1.16 41.328 2.16 82.662 3 124-2.22 0.322-4.06-0.345-5.5-2-0.33 0.333-0.67 0.667-1 1-2.29-0.974-4.29-2.307-6-4-0.33 0.333-0.67 0.667-1 1-3.49-1.411-6.82-3.077-10-5-2 0.771-3.66 0.105-5-2-2.32 0.867-4.32 0.201-6-2-0.33 0.333-0.67 0.667-1 1-10.17-3.86-20.5-8.193-31-13-0.33 0.333-0.67 0.667-1 1-3.33-2.204-6.67-3.538-10-4-3.63-1.098-6.96-2.764-10-5-0.33 0.333-0.67 0.667-1 1-3.85-1.554-7.85-3.554-12-6-3.85-0.055-7.51-1.388-11-4-1.02 1.134-1.68 0.801-2-1-0.33 0.333-0.67 0.667-1 1-1.67-1-3.33-2-5-3-0.33 0.333-0.67 0.667-1 1-3.33-2.204-6.67-3.538-10-4-2.56-1.042-4.89-2.375-7-4-0.33 0.333-0.67 0.667-1 1-5-2.333-10-4.667-15-7-3.85-0.055-7.51-1.388-11-4-1.02 1.134-1.68 0.801-2-1-0.33 0.333-0.67 0.667-1 1-14.84-6.43-29.34-11.764-43.5-16v-1c69.28-15.214 138.62-30.214 208-45z" fill="#a4cce3"/>
<path d="m612.5 821.5c38.992 43.658 78.326 86.992 118 130v1 1c-60.655 5.11-121.32 10.11-182 15 20.574-49.407 41.907-98.407 64-147z" fill="#c4bec1"/>
<path d="m1051.5 851.5c34.95 4.578 69.95 8.911 105 13h1v1c-46.94 40.271-93.61 80.938-140 122 11.02-45.433 22.36-90.767 34-136z" fill="#b5d4e6"/>
<path d="m1157.5 865.5c14.16 4.236 28.66 9.57 43.5 16 0.33-0.333 0.67-0.667 1-1 0.32 1.801 0.98 2.134 2 1 3.49 2.612 7.15 3.945 11 4 5 2.333 10 4.667 15 7 0.33-0.333 0.67-0.667 1-1 2.11 1.625 4.44 2.958 7 4 3.33 0.462 6.67 1.796 10 4 0.33-0.333 0.67-0.667 1-1 1.67 1 3.33 2 5 3 0.33-0.333 0.67-0.667 1-1 0.32 1.801 0.98 2.134 2 1 3.49 2.612 7.15 3.945 11 4 4.15 2.446 8.15 4.446 12 6 0.33-0.333 0.67-0.667 1-1 3.04 2.236 6.37 3.902 10 5 3.33 0.462 6.67 1.796 10 4 0.33-0.333 0.67-0.667 1-1 10.5 4.807 20.83 9.14 31 13 0.33-0.333 0.67-0.667 1-1 1.68 2.201 3.68 2.867 6 2 1.34 2.105 3 2.771 5 2 3.18 1.923 6.51 3.589 10 5 0.33-0.333 0.67-0.667 1-1 1.71 1.693 3.71 3.026 6 4 0.33-0.333 0.67-0.667 1-1 1.44 1.655 3.28 2.322 5.5 2v1 1c-77.33 29.333-154.67 58.67-232 88-0.99 0.17-1.66-0.16-2-1 1.7-1.81 2.53-4.14 2.5-7 6.51-53.426 13.34-106.76 20.5-160z" fill="#9fc6df"/>
<path d="m1157.5 865.5c-7.16 53.241-13.99 106.57-20.5 160 0.03 2.86-0.8 5.19-2.5 7-38.08-14.2-76.08-28.7-114-43.5-1.25-0.74-2.25-0.573-3 0.5-0.67 0-1-0.333-1-1v-1h1c46.39-41.062 93.06-81.729 140-122z" fill="#a6cae1"/>
<path d="m285.5 879.5c0.838 0.342 1.172 1.008 1 2v1c-37.612 34.61-74.612 69.943-111 106h-1c-27.718-33.11-54.718-66.777-81-101 60.666-2.119 121.33-4.286 182-6.5 3.525-0.179 6.859-0.679 10-1.5z" fill="#b8888a"/>
<path d="m1744.5 879.5h2v1c27.33 26.333 54.67 52.667 82 79-48.52 25.763-97.52 50.76-147 75 21.19-51.553 42.19-103.22 63-155z" fill="#5397c5"/>
<path d="m1746.5 880.5c49.04 17.459 98.04 35.126 147 53 0.97-2.243 1.31-4.576 1-7 0.97 2.448 1.31 5.115 1 8v1c-21.93 8.199-43.93 16.199-66 24h-1c-27.33-26.333-54.67-52.667-82-79z" fill="#5995c5"/>
<path d="m286.5 882.5c4.262 38.621 8.262 77.288 12 116-40.964-3.18-81.964-6.513-123-10 36.388-36.057 73.388-71.39 111-106z" fill="#b58a8f"/>
<path d="m-0.5 883.5c30.992 1.484 61.992 2.818 93 4-30.43 23.388-61.43 46.055-93 68v-72z" fill="#ad737c"/>
<path d="m92.5 887.5h1c26.282 34.223 53.282 67.89 81 101v1h-1-174v-34c31.57-21.945 62.57-44.612 93-68z" fill="#aa757e"/>
<path d="m1919.5 929.5v17c-7.99-3.643-15.66-7.643-23-12 7.7-1.51 15.37-3.176 23-5z" fill="#477aac"/>
<path d="m1895.5 934.5h1c7.34 4.357 15.01 8.357 23 12v76c-8.97-29.632-16.97-58.632-24-87v-1z" fill="#397bb4"/>
<path d="m1895.5 935.5c7.03 28.368 15.03 57.368 24 87v48c-30-36.33-60-72.667-90-109v-2c22.07-7.801 44.07-15.801 66-24z" fill="#4284bb"/>
<path d="m402.5 800.5h2c68.805 6.386 137.8 13.053 207 20h1v1c-22.093 48.593-43.426 97.593-64 147h-1c-47.594-55.931-95.928-111.26-145-166v-2z" fill="#cdbbb6"/>
<path d="m1492.5 943.5c5.67 45.333 11.33 90.67 17 136h-21c-39.66-44.99-79.66-89.657-120-134v-1c41.34 0.016 82.67-0.318 124-1z" fill="#73aed2"/>
<path d="m1492.5 943.5c62.21 30.273 124.54 60.27 187 90 0.34 0.84 1.01 1.17 2 1 0 0.67-0.33 1-1 1-34.16 13.93-67.83 28.6-101 44h-70c-5.67-45.33-11.33-90.667-17-136z" fill="#5ba0ca"/>
<path d="m1368.5 945.5c-8.45 44.71-17.12 89.38-26 134h-137c-22.71-15.36-45.71-30.36-69-45v-1c77.33-29.33 154.67-58.667 232-88z" fill="#85b5d6"/>
<path d="m1368.5 945.5c40.34 44.343 80.34 89.01 120 134h-146c8.88-44.62 17.55-89.29 26-134z" fill="#71a9d0"/>
<path d="m833.5 957.5c0.667 0 1 0.333 1 1v2c3.565 39.59 6.565 79.26 9 119h-12c-33.104-41.89-66.437-83.555-100-125v-2c-0.065-0.438 0.101-0.772 0.5-1 16.947 1.304 33.614 2.638 50 4 0.414-0.457 0.914-0.791 1.5-1 16.548 1.562 33.215 2.562 50 3z" fill="#b0c0cf"/>
<path d="m730.5 952.5h1v2c-5.278 41.837-9.945 83.5-14 125h-66c26.333-42 52.667-84 79-126v-1z" fill="#a9adbd"/>
<path d="m730.5 953.5c-26.333 42-52.667 84-79 126h-43c-19.746-37.16-39.746-74.16-60-111 60.678-4.89 121.34-9.89 182-15z" fill="#b1b1ba"/>
<path d="m731.5 954.5c33.563 41.445 66.896 83.11 100 125h-114c4.055-41.5 8.722-83.163 14-125z" fill="#a8b4c7"/>
<path d="m1014.5 987.5h2v1c-48.538 30.1-96.871 60.43-145 91h-28c-2.435-39.74-5.435-79.41-9-119 2.908-1.069 5.908-1.236 9-0.5 57.044 9.03 114.04 18.196 171 27.5z" fill="#abc3d8"/>
<path d="m1828.5 959.5h1v2c-1.14 7.364-2.14 15.197-3 23.5 0.33 1 0.67 2 1 3-0.67 2.667-1.33 5.333-2 8 0.33 1 0.67 2 1 3-0.67 3-1.33 6-2 9 0.33 1 0.67 2 1 3-0.67 2.67-1.33 5.33-2 8 0.33 1 0.67 2 1 3-1.53 4.57-1.87 8.9-1 13-1.48 5.86-2.48 11.86-3 18 0.86 3.38 0.52 7.04-1 11 0.26 4.9 0.26 10.07 0 15.5h-169c10-14.67 20-29.33 30-44 0.67 0 1-0.33 1-1 49.48-24.24 98.48-49.237 147-75z" fill="#3c87bd"/>
<path d="m1829.5 961.5c30 36.333 60 72.67 90 109v9h-100c0.26-5.43 0.26-10.6 0-15.5 1.52-3.96 1.86-7.62 1-11 0.52-6.14 1.52-12.14 3-18-0.87-4.1-0.53-8.43 1-13-0.33-1-0.67-2-1-3 0.67-2.67 1.33-5.33 2-8-0.33-1-0.67-2-1-3 0.67-3 1.33-6 2-9-0.33-1-0.67-2-1-3 0.67-2.667 1.33-5.333 2-8-0.33-1-0.67-2-1-3 0.86-8.303 1.86-16.136 3-23.5z" fill="#357cb7"/>
<path d="m547.5 968.5h1c20.254 36.84 40.254 73.84 60 111h-44c-24.974-14.82-50.307-29.16-76-43v-1c20.039-22.04 39.705-44.37 59-67z" fill="#aea3ac"/>
<path d="m174.5 988.5h1c41.036 3.487 82.036 6.82 123 10h1v1c-7.935 26.4-15.269 53.07-22 80h-40c-21.03-30.02-42.03-60.02-63-90v-1z" fill="#a77c88"/>
<path d="m1134.5 1032.5c0.34 0.84 1.01 1.17 2 1v1c-13.99 14.16-28.16 28.16-42.5 42-0.51 1.03-1.01 2.03-1.5 3h-39c-11.52-27.41-23.52-57.41-36-90 0.75-1.073 1.75-1.24 3-0.5 37.92 14.8 75.92 29.3 114 43.5z" fill="#9bbeda"/>
<path d="m-0.5 989.5h174c-16.967 30.55-33.967 60.05-51 88.5 0.556 0.38 0.889 0.88 1 1.5h-46c-25.962-18.99-51.962-37.99-78-57v-33z" fill="#9f6c7b"/>
<path d="m173.5 989.5h1c20.97 29.98 41.97 59.98 63 90h-114c-0.111-0.62-0.444-1.12-1-1.5 17.033-28.45 34.033-57.95 51-88.5z" fill="#a17181"/>
<path d="m299.5 999.5c62.245 11.68 124.41 23.68 186.5 36 0.399-0.23 0.565-0.56 0.5-1 0.667 0.33 1.333 0.67 2 1v1c-38.64 13.77-76.973 28.1-115 43h-96c6.731-26.93 14.065-53.6 22-80z" fill="#aa8993"/>
<path d="m1016.5 988.5c0 0.667 0.33 1 1 1 12.48 32.59 24.48 62.59 36 90h-182c48.129-30.57 96.462-60.9 145-91z" fill="#a2c0da"/>
<path d="m-0.5 1022.5c26.038 19.01 52.038 38.01 78 57h-78v-57z" fill="#955c71"/>
<path d="m1136.5 1034.5c8.97 14.46 17.97 29.46 27 45h-71c0.49-0.97 0.99-1.97 1.5-3 14.34-13.84 28.51-27.84 42.5-42z" fill="#8fb1d4"/>
<path d="m1136.5 1034.5c23.29 14.64 46.29 29.64 69 45h-42c-9.03-15.54-18.03-30.54-27-45z" fill="#84aad1"/>
<path d="m488.5 1036.5c-0.891 14.31-1.225 28.64-1 43h-114c38.027-14.9 76.36-29.23 115-43z" fill="#a58896"/>
<path d="m488.5 1036.5c25.693 13.84 51.026 28.18 76 43h-77c-0.225-14.36 0.109-28.69 1-43z" fill="#a996a5"/>
<path d="m1680.5 1035.5c-10 14.67-20 29.33-30 44h-71c33.17-15.4 66.84-30.07 101-44z" fill="#4e92c3"/>
</svg>
