<svg xmlns="http://www.w3.org/2000/svg" width="1920" height="1080" style="shape-rendering:geometricPrecision;text-rendering:geometricPrecision;image-rendering:optimizeQuality;fill-rule:evenodd;clip-rule:evenodd"><path fill="#bd3133" d="M-.5-.5h21a284 284 0 0 1-21 19v-19Z" style="opacity:1"/><path fill="#ca4a41" d="M20.5-.5h106c14.2 47 28.8 93.8 44 140.5-.6.5-1.3.6-2 .5a18785 18785 0 0 1-169-74v-48a284 284 0 0 0 21-19Z" style="opacity:1"/><path fill="#d05647" d="M126.5-.5h55a565 565 0 0 0 50 48v1c-.7 0-1 .3-1 1a8488 8488 0 0 0-55.5 87 12 12 0 0 1-4.5 5c-1 .2-1.7-.2-2-1 .7.1 1.4 0 2-.5a6862.6 6862.6 0 0 1-44-140.5Z" style="opacity:1"/><path fill="#ce5245" d="M181.5-.5h103a2655 2655 0 0 1-53 48 565 565 0 0 1-50-48Z" style="opacity:1"/><path fill="#da6b56" d="M284.5-.5h127c-5.3 38.4-11 76.7-17 115l-163-66v-1a2655 2655 0 0 0 53-48Z" style="opacity:1"/><path fill="#e27d62" d="M411.5-.5h103a4293 4293 0 0 1 59 69c-59.6 15.2-119.3 30.5-179 46 6-38.3 11.7-76.6 17-115Z" style="opacity:1"/><path fill="#e27f67" d="M514.5-.5h80c-7 22.9-13.7 45.9-20 69h-1a4562.7 4562.7 0 0 0-59-69Z" style="opacity:1"/><path fill="#ec977d" d="M594.5-.5h25c33.5 41.4 67.2 82.7 101 124l-146-55c6.3-23.1 13-46.1 20-69Z" style="opacity:1"/><path fill="#ea957f" d="M619.5-.5h97c1.4 41.3 3 82.7 5 124h-1c-33.8-41.3-67.5-82.6-101-124Z" style="opacity:1"/><path fill="#eea08b" d="M716.5-.5h66a4331 4331 0 0 0 80 62v1l-140 62c-.7 0-1-.3-1-1-2-41.3-3.6-82.7-5-124Z" style="opacity:1"/><path fill="#e99787" d="M782.5-.5h67l13 62a4138.5 4138.5 0 0 1-80-62Z" style="opacity:1"/><path fill="#e6998f" d="M849.5-.5h72c-19 21.3-38.6 42-59 62l-13-62Z" style="opacity:1"/><path fill="#e8a69b" d="M958.5-.5h132l56 112c-1.3.7-2.8 1-4.5 1a15349 15349 0 0 0-158.5-6l-6-2c-.3-1.7-1-3.2-2-4.5l5-5-5-6c2-.3 2.4-1.2 1-2.5 1-.9 1.9-1.9 2.5-3 .7 1 1.6 1.1 2.5.5a15 15 0 0 1-3-7.5c1.7-2.7 2.9-2.4 3.5 1 .2-2.2.8-4.2 2-6 1.8 1 2 2 .5 3.5.4 1.2.9 2.4 1.5 3.5.5-1.2 1.3-2 2.5-2.5l-2-1c3.3-.9 3.6-2.2 1-4l2-1c-.7-1.8-1-3.4-1-5 3.9-2 4.7-4.8 2.5-8.5l-1 1a36 36 0 0 0-3.5-4.5c.8-.3 1.5-.8 2-1.5a19 19 0 0 1-4-3.5c2.3-1.7 2.8-3.5 1.5-5.5a7.9 7.9 0 0 0-2 4 7.8 7.8 0 0 1-4.5 2.5c4.7 3.3 4.7 6.1 0 8.5a6.9 6.9 0 0 1-4.5-3c-1.9 2.7-3 2.3-3.5-1 2-1.1 2.1-2.8.5-5l-1 3-4-5c-2.6 2.4-3.4 2-2.5-1.5-3-2.9-4.8-6.4-5.5-10.5-.9 1.6-1.9 2-3 1-1 .8-1.6 1.8-2 3l-1.5-3c-.8-1.2-1.6-1.2-2.5 0-1.9-1.7-1.7-2.9.5-3.5l-1-1c1-1.3 1.7-2.8 2-4.5a47 47 0 0 0-1-10.5c.8-1.5 1.6-1.7 2.5-.5 2.4 2.5 4 5.2 4.5 8a3 3 0 0 0 2-2 8 8 0 0 1-1-4c-1 .1-2 0-3-.5 2-1.8 4-2.8 6-3-2-.4-4-1-6-2 1.2-.4 2.2-1 3-2-2.8-1.4-3.3-3.3-1.5-5.5l1 2a7 7 0 0 1 2.5-3.5c-.8-1.5-1.6-1.7-2.5-.5-.5-1-.3-2 .5-3Z" style="opacity:1"/><path fill="#de9c95" d="M1090.5-.5h105l-47 112v1l-2-1-56-112Z" style="opacity:1"/><path fill="#dba49c" d="M1195.5-.5h51c28.7 38.7 57 77.7 85 117-61-1.4-122-3-183-5l47-112Z" style="opacity:1"/><path fill="#ce9591" d="M1246.5-.5h112l-25 118v1l-2-2c-28-39.3-56.3-78.3-85-117Z" style="opacity:1"/><path fill="#c79592" d="M1358.5-.5h66c9 19.1 18.4 38.1 28 57v1a9912.5 9912.5 0 0 0-119 60l25-118Z" style="opacity:1"/><path fill="#bc8889" d="M1424.5-.5h48c-6.1 19-12.5 38-19 57h-1c-9.6-18.9-19-37.9-28-57Z" style="opacity:1"/><path fill="#b7888b" d="M1472.5-.5h83c19.4 25.2 39 50.2 59 75a10607 10607 0 0 1-161-18c6.5-19 12.9-38 19-57Z" style="opacity:1"/><path fill="#ae7d85" d="M1555.5-.5h63c-1.3 24.5-2.3 49.5-3 75v2c-.7 0-1-.3-1-1v-1c-20-24.8-39.6-49.8-59-75Z" style="opacity:1"/><path fill="#a47782" d="M1618.5-.5h96l-98 75h-1c.7-25.5 1.7-50.5 3-75Z" style="opacity:1"/><path fill="#a67c89" d="M1714.5-.5h34c2 41 4.4 81.6 7 122-46.6-15-93-30.8-139-47l98-75Z" style="opacity:1"/><path fill="#9f7182" d="M1748.5-.5h46c41.5 22.6 83.1 45 125 67v26a8842.1 8842.1 0 0 0-163 30h-1v-1c-2.6-40.4-5-81-7-122Z" style="opacity:1"/><path fill="#976279" d="M1794.5-.5h125v67a11095 11095 0 0 1-125-67Z" style="opacity:1"/><path fill="#eca799" d="M970.5 2.5c1.6 2.4 3 2.4 4.5 0l3.5 4.5c-2.7 1.7-2.7 3.3 0 5-2.4.7-2.4 1.7 0 3-1.2 1-2.5 2-4 2.5a39.3 39.3 0 0 0-5.5-10c-.6-2-.1-3.7 1.5-5Zm12 0c1.3.6 2.1 1.6 2.5 3 .9-3.3 2.2-3.6 4-1 1.5-2 3.3-2.2 5.5-.5a15 15 0 0 1-3 3.5 32 32 0 0 0 .5 7c-.4-.5-1-.8-1.5-1a9.4 9.4 0 0 1-3 3l-5-2.5 3-5c-1.2-3.2-2.4-3-3.5.5-1.5-2.7-1.3-5 .5-7Z" style="opacity:1"/><path fill="#eba699" d="M986.5 22.5c3.6 1 3.6 2.5 0 4.5l6 6c-.6 1.6-1.5 3.1-2.5 4.5-2-2.5-3-2.4-2.5.5-2 2-4 2-6 0 1-1.1.6-2.1-1-3 2-1.8 2-3.1 0-4 1-3 3-5.8 6-8.5Z" style="opacity:1"/><path fill="#eca698" d="M994.5 25.5c1.7.8 3.4 1.1 5 1-1.8 1.8-2.2 3.6-1 5.5-.7.7-1.3.7-2 0a15 15 0 0 0-4-5c1-.3 1.6-.8 2-1.5Z" style="opacity:1"/><path fill="#eba79a" d="M921.5-.5h37c-.8 1-1 2-.5 3 1-1.2 1.7-1 2.5.5a7 7 0 0 0-2.5 3.5l-1-2c-1.8 2.2-1.3 4 1.5 5.5-.8 1-1.8 1.6-3 2 2 1 4 1.6 6 2-2 .2-4 1.2-6 3 1 .5 2 .6 3 .5a8 8 0 0 0 1 4 3 3 0 0 1-2 2c-.6-2.8-2-5.5-4.5-8-1-1.2-1.7-1-2.5.5a47 47 0 0 1 1 10.5c-.3 1.7-1 3.2-2 4.5l1 1c-2.2.6-2.4 1.8-.5 3.5.9-1.2 1.7-1.2 2.5 0l1.5 3c.4-1.2 1-2.2 2-3 1.1 1 2.1.6 3-1 .7 4.1 2.5 7.6 5.5 10.5-.9 3.4 0 4 2.5 1.5l4 5 1-3c1.6 2.2 1.4 3.9-.5 5-2.6 1-2.6 2.2 0 3.5 0 2-.5 3.8-1.5 5.5l-4-4c.6-1.6.3-3-1-4 0 2.1-1.2 4-3.5 5.5 1.2 2.1 2 2 2.5-.5.6 1.1 1.5 2.1 2.5 3-1 2.5-2.2 2.5-3.5 0-1.6 1.5-1.3 2.8 1 4 .7 1.6.6 3.1-.5 4.5 4.9 1.1 4.9 1.8 0 2l-6 8c3.2 1.2 3.7 3 1.5 5.5a7 7 0 0 0-3.5-4c-.7.5-1.2 1.2-1.5 2-.8-3-1.8-3.3-3-1-1-2-2.4-2.9-4.5-2.5 3 3.8 6.6 6.6 11 8.5-.6 3.1.7 5.5 4 7a32 32 0 0 1 2.5-4c5.1 5.3 5.6 4.8 1.5-1.5 1-2 2.3-3.6 4-5-1.9-.2-3.4.7-4.5 2.5-2-2.2-1.5-3.7 1.5-4.5l-2-3c2-2.7 4.8-5.2 8.5-7.5a7 7 0 0 0 .5-7.5c3.4-2 5.4-4.7 6-8.5 4.7-2.4 4.7-5.2 0-8.5 1.6-.2 3.1-1 4.5-2.5.3-1.5 1-2.9 2-4 1.3 2 .8 3.8-1.5 5.5a19 19 0 0 0 4 3.5c-.5.7-1.2 1.2-2 1.5a36 36 0 0 1 3.5 4.5l1-1c2.2 3.7 1.4 6.5-2.5 8.5 0 1.6.3 3.2 1 5l-2 1c2.6 1.8 2.3 3.1-1 4l2 1c-1.2.5-2 1.3-2.5 2.5-.6-1.1-1.1-2.3-1.5-3.5 1.4-1.4 1.3-2.6-.5-3.5a12.6 12.6 0 0 0-2 6c-.6-3.4-1.8-3.7-3.5-1a15 15 0 0 0 3 7.5c-1 .6-1.8.5-2.5-.5-.6 1.1-1.5 2.1-2.5 3 1.4 1.3 1 2.2-1 2.5l5 6-5 5c1 1.3 1.7 2.8 2 4.5a5938.4 5938.4 0 0 0-115-42v-1c20.4-20 40-40.7 59-62Z" style="opacity:1"/><path fill="#e27c62" d="m231.5 48.5 163 66v1c-36.2 42.8-72.2 85.8-108 129-.6.1-1.1.4-1.5 1l-130.5-25a1420 1420 0 0 0 16-77c.6-.1 1.1-.4 1.5-1a2937 2937 0 0 0 47.5 43c21 18.5 42 37.4 63 56.5.8.7 1.5.5 2-.5a556 556 0 0 1-10.5-40l-5.5-13.5c1.1-1 .8-1.7-1-2a4 4 0 0 0 1-2c-9-31-17.7-62-26-93-3.7-13.3-7.7-27.2-12-41.5 0-.7.3-1 1-1Z" style="opacity:1"/><path fill="#dd745d" d="M230.5 49.5c4.3 14.3 8.3 28.2 12 41.5 8.3 31 17 62 26 93a4 4 0 0 1-1 2c1.8.3 2.1 1 1 2 2 4.4 3.7 9 5.5 13.5a556 556 0 0 0 10.5 40c-.5 1-1.2 1.2-2 .5-21-19.1-42-38-63-56.5a2481.4 2481.4 0 0 1-47.5-43c-.4.6-.9.9-1.5 1v-2a12 12 0 0 0 4.5-5 8488 8488 0 0 1 55.5-87Z" style="opacity:1"/><path fill="#bf9a9a" d="M1452.5 56.5h1a10607 10607 0 0 0 161 18v1l-156 110h-1v-1c-1.9-41.8-3.5-84-5-127v-1Z" style="opacity:1"/><path fill="#caa4a0" d="M1452.5 57.5c1.5 43 3.1 85.2 5 127l-124-66v-1c39.5-20.3 79.2-40.3 119-60Z" style="opacity:1"/><path fill="#f4bdaa" d="M862.5 62.5c38.5 13.6 76.8 27.6 115 42l6 2v1c-34 53.2-67.4 106.8-100 161 0 .7-.3 1-1 1s-1-.3-1-1c-6.3-69.7-12.6-138-19-205v-1Z" style="opacity:1"/><path fill="#f5b59e" d="M862.5 62.5v1l-99 184h-1a12895 12895 0 0 1-41-121l1-2 140-62Z" style="opacity:1"/><path fill="#f9c2ab" d="M862.5 63.5c6.4 67 12.7 135.3 19 205-39.2-6.4-78.5-13.4-118-21l99-184Z" style="opacity:1"/><path fill="#d15b4c" d="M-.5 66.5a18785 18785 0 0 0 169 74c.3.8 1 1.2 2 1v1c-51.1 21-102.1 42.4-153 64h-1c0-.7-.3-1-1-1-4.8-16.3-10-32.3-16-48v-91Z" style="opacity:1"/><path fill="#f09c7c" d="M573.5 68.5h1c-3 70.6-5.3 141.3-7 212v1c-.7 0-1-.3-1-1l-172-165v-1c59.7-15.5 119.4-30.8 179-46Z" style="opacity:1"/><path fill="#f3aa8c" d="m574.5 68.5 146 55h1c0 .7.3 1 1 1l-1 2a8328.8 8328.8 0 0 0-153 154h-1c1.7-70.7 4-141.4 7-212Z" style="opacity:1"/><path fill="#eba699" d="M971.5 53.5c.5 3.3 1.6 3.7 3.5 1a6.9 6.9 0 0 0 4.5 3c-.6 3.8-2.6 6.6-6 8.5a7 7 0 0 1-.5 7.5 29.3 29.3 0 0 0-8.5 7.5l2 3c-3 .8-3.5 2.3-1.5 4.5 1.1-1.8 2.6-2.7 4.5-2.5a15 15 0 0 0-4 5c4.1 6.3 3.6 6.8-1.5 1.5a32 32 0 0 0-2.5 4c-3.3-1.5-4.6-3.9-4-7-4.4-1.9-8-4.7-11-8.5 2-.4 3.6.5 4.5 2.5 1.2-2.3 2.2-2 3 1 .3-.8.8-1.5 1.5-2a7 7 0 0 1 3.5 4c2.2-2.5 1.7-4.3-1.5-5.5l6-8c4.9-.2 4.9-.9 0-2 1-1.4 1.2-2.9.5-4.5-2.3-1.2-2.6-2.5-1-4 1.3 2.5 2.5 2.5 3.5 0-1-.9-1.9-1.9-2.5-3-.5 2.4-1.3 2.6-2.5.5 2.3-1.5 3.5-3.4 3.5-5.5 1.3 1 1.6 2.4 1 4l4 4a10 10 0 0 0 1.5-5.5c-2.6-1.3-2.6-2.5 0-3.5Z" style="opacity:1"/><path fill="#bb9fa1" d="M1614.5 75.5c0 .7.3 1 1 1-7 49.3-13.6 98.6-20 148l-137-38v-1l156-110Z" style="opacity:1"/><path fill="#ae9198" d="M1615.5 74.5h1c46 16.2 92.4 32 139 47v1c-52.8 34.2-105.8 68.2-159 102h-1c6.4-49.4 13-98.7 20-148v-2Z" style="opacity:1"/><path fill="#a17d8f" d="M1919.5 92.5v21l-95 70h-1a2882 2882 0 0 1-67-61 8842.1 8842.1 0 0 1 163-30Z" style="opacity:1"/><path fill="#eebbad" d="M983.5 106.5a15349 15349 0 0 1 158.5 6c1.7 0 3.2-.3 4.5-1l2 1v1h-1a4824 4824 0 0 1-143 74c-7.3-26.6-14.3-53.3-21-80v-1Z" style="opacity:1"/><path fill="#f8c8b6" d="M983.5 107.5c6.7 26.7 13.7 53.4 21 80v1a11908 11908 0 0 1-121 80c32.6-54.2 66-107.8 100-161Z" style="opacity:1"/><path fill="#dcb3a9" d="M1148.5 111.5c61 2 122 3.6 183 5l2 2c1 13.5 3 27 6 40.5a1018 1018 0 0 0 6 42.5c-65.5-29.6-131.2-59-197-88v-2Z" style="opacity:1"/><path fill="#edc5b6" d="M1147.5 113.5a23576 23576 0 0 0 42 160c-59.2-27-118.2-54.4-177-82.5a38 38 0 0 0-8-2.5v-1a4824 4824 0 0 0 143-74Z" style="opacity:1"/><path fill="#e4c1b5" d="M1147.5 113.5h1c65.8 29 131.5 58.4 197 88v1c-51.5 24.3-103.2 48.3-155 72h-1v-1a23576 23576 0 0 1-42-160Z" style="opacity:1"/><path fill="#a07f94" d="M1919.5 113.5v125l-95-54v-1l95-70Z" style="opacity:1"/><path fill="#f5a785" d="m394.5 115.5 172 165a15198 15198 0 0 0-118 14c-18.4-59.5-36.4-119.2-54-179Z" style="opacity:1"/><path fill="#ee9878" d="M394.5 115.5c17.6 59.8 35.6 119.5 54 179v1a11681 11681 0 0 1-162-51c35.8-43.2 71.8-86.2 108-129Z" style="opacity:1"/><path fill="#d2b0aa" d="m1333.5 118.5 124 66v1a2906 2906 0 0 1-111 16h-1a1018 1018 0 0 1-6-42.5c-3-13.5-5-27-6-40.5Z" style="opacity:1"/><path fill="#aa919b" d="M1755.5 122.5h1c22 20.7 44.4 41 67 61-.3.8-1 1.2-2 1-75 13.4-150 26.8-225 40 53.2-33.8 106.2-67.8 159-102Z" style="opacity:1"/><path fill="#f8bc9f" d="M721.5 126.5a12895 12895 0 0 0 41 121 9798.8 9798.8 0 0 1-194 33c50.3-52 101.3-103.3 153-154Z" style="opacity:1"/><path fill="#da6f59" d="M170.5 142.5v1a1420 1420 0 0 1-16 77h-1c-44.7-4.6-90-8.9-136-13v-1c50.9-21.6 101.9-43 153-64Z" style="opacity:1"/><path fill="#c15246" d="M-.5 157.5c6 15.7 11.2 31.7 16 48a220 220 0 0 1-16-4v-44Z" style="opacity:1"/><path fill="#aaa5b6" d="M1823.5 183.5h1v1l-3 42.5c.5 1.4.9 2.7 1 4l-4 63c.5 1.4.9 2.7 1 4a3000 3000 0 0 0-5 109.5v1h-1c-61.5-19.8-123.2-39.5-185-59h-1v-1c4.8-3.2 9.5-6.7 14-10.5 59.9-51.4 119.9-102.6 180-153.5 1 .2 1.7-.2 2-1Z" style="opacity:1"/><path fill="#a595ab" d="m1824.5 184.5 95 54v82a3256 3256 0 0 0-103 86l-2 1c1-36.9 2.7-73.4 5-109.5-.1-1.3-.5-2.6-1-4l4-63c-.1-1.3-.5-2.6-1-4l3-42.5Z" style="opacity:1"/><path fill="#aea2ab" d="M1821.5 184.5c-60.1 51-120.1 102-180 153.5-4.5 3.8-9.2 7.3-14 10.5a5553.7 5553.7 0 0 1-32-123v-1h1c75-13.2 150-26.6 225-40Z" style="opacity:1"/><path fill="#d0bdb8" d="M1457.5 185.5h1v1c-2.5 56-4.9 112.4-7 169l-2-1c-33.3-49.1-66.8-98.1-100.5-147a9.3 9.3 0 0 1-2.5-6 2906 2906 0 0 0 111-16Z" style="opacity:1"/><path fill="#c4b6b5" d="m1458.5 186.5 137 38v1a13612 13612 0 0 0-144 130c2.1-56.6 4.5-113 7-169Z" style="opacity:1"/><path fill="#fad7c8" d="M1004.5 188.5c5.6 54.8 11 108.8 16 162l-138-80v-1c.7 0 1-.3 1-1 40.5-26.4 80.8-53 121-80Z" style="opacity:1"/><path fill="#f2d3c6" d="M1004.5 188.5a38 38 0 0 1 8 2.5c58.8 28 117.8 55.6 177 82.5v2l-168 75h-1c-5-53.2-10.4-107.2-16-162Z" style="opacity:1"/><path fill="#bf5b4d" d="M-.5 201.5a220 220 0 0 0 16 4c.7 0 1 .3 1 1-6.3 0-12 .3-17 1v-6Z" style="opacity:1"/><path fill="#dfc9c1" d="M1345.5 202.5a14868 14868 0 0 1-42 130c-37.8-19-75.5-38.4-113-58 51.8-23.7 103.5-47.7 155-72Z" style="opacity:1"/><path fill="#d6c7c4" d="M1345.5 201.5h1c.1 2.3 1 4.3 2.5 6 33.7 48.9 67.2 97.9 100.5 147-48.7-7.1-97.4-14.4-146-22a14868 14868 0 0 0 42-130v-1Z" style="opacity:1"/><path fill="#cc6a5a" d="M16.5 206.5h1v1c-6.2 20.3-12.2 40.6-18 61v-61c5-.7 10.7-1 17-1Z" style="opacity:1"/><path fill="#dc745e" d="M17.5 207.5c46 4.1 91.3 8.4 136 13a48975 48975 0 0 1-154 105v-57c5.8-20.4 11.8-40.7 18-61Z" style="opacity:1"/><path fill="#df8370" d="M153.5 220.5h1v1a35125 35125 0 0 0-67 197h-1c-29.1-21.4-58.1-43-87-65v-28a48975 48975 0 0 0 154-105Z" style="opacity:1"/><path fill="#e98f76" d="M154.5 221.5v-1l130.5 25c.4-.6.9-.9 1.5-1v2c-15.3 54.5-30.3 109.1-45 164h-1c-28.3-63.3-57-126.3-86-189Z" style="opacity:1"/><path fill="#e7917b" d="M154.5 221.5c29 62.7 57.7 125.7 86 189-51 2.5-102 5.1-153 8a35125 35125 0 0 1 67-197Z" style="opacity:1"/><path fill="#bdb8be" d="M1595.5 225.5a5844 5844 0 0 0 32 123v2c-58.7 1.5-117.4 3.5-176 6v-1c47.7-43.7 95.7-87 144-130Z" style="opacity:1"/><path fill="#f2a78a" d="M286.5 244.5a11681 11681 0 0 0 162 51l-38 82h-1a84.4 84.4 0 0 0-17-17.5l1-1c-35.8-38-71.5-75.5-107-112.5v-2Z" style="opacity:1"/><path fill="#f0a28a" d="M286.5 246.5c35.5 37 71.2 74.5 107 112.5l-1 1a83 83 0 0 1 17 17.5h-1c-56 11.3-111.7 22.6-167 34v-1c14.7-54.9 29.7-109.5 45-164Z" style="opacity:1"/><path fill="#fbccb3" d="M762.5 247.5h1c-.3 37.3-1 75.5-2 114.5.2 3.7.5 8 1 12.5v1c0 .7-.3 1-1 1-63.7 5.4-127.4 11-191 17l-2 1v-1c-1.1-37.4-1.5-74.7-1-112v-1h1a9798.8 9798.8 0 0 0 194-33Z" style="opacity:1"/><path fill="#fbd2bd" d="M763.5 247.5c39.5 7.6 78.8 14.6 118 21 0 .7.3 1 1 1v1c-40.3 34.3-80.3 69-120 104a230 230 0 0 1-1-12.5c1-39 1.7-77.2 2-114.5Z" style="opacity:1"/><path fill="#fae2d4" d="m882.5 270.5 138 80v1l-171 66c10.5-49.1 21.5-98.1 33-147Z" style="opacity:1"/><path fill="#fcddcd" d="M882.5 270.5a7814.1 7814.1 0 0 0-33 147c-29.5-14-58.5-28-87-42v-1c39.7-35 79.7-69.7 120-104Z" style="opacity:1"/><path fill="#e5d6d0" d="M1189.5 274.5h1c37.5 19.6 75.2 39 113 58 0 .7-.3 1-1 1a4985 4985 0 0 1-102 47c-.8-.3-1.5-.8-2-1.5.2-5.1.2-10.5 0-16l-2-5c.7-1.8 1-3.4 1-5-1.2-9-2.5-18-4-27 .7-1.8 1-3.4 1-5a1920 1920 0 0 1-5-45.5v-1Z" style="opacity:1"/><path fill="#eedcd4" d="M1189.5 275.5a1920 1920 0 0 0 5 45.5c0 1.6-.3 3.2-1 5 1.5 9 2.8 18 4 27 0 1.6-.3 3.2-1 5l2 5c.2 5.5.2 10.9 0 16 .5.7 1.2 1.2 2 1.5v1h-1c-56.6-9.6-113.3-19.1-170-28.5-3-.3-5.6-1.1-8-2.5l168-75Z" style="opacity:1"/><path fill="#f8bc9f" d="M566.5 280.5c0 .7.3 1 1 1-.5 37.3-.1 74.6 1 112-52.6-5.5-105.3-10.8-158-16l38-82v-1c39.3-4.8 78.6-9.5 118-14Z" style="opacity:1"/><path fill="#9f99b2" d="M1919.5 320.5v54l-103 32c33.7-29.4 68-58 103-86Z" style="opacity:1"/><path fill="#dedede" d="M1302.5 333.5c.3 61.4 1 122.8 2 184-35-45-69.7-90.4-104-136v-1a4985 4985 0 0 0 102-47Z" style="opacity:1"/><path fill="#d6d8d9" d="M1303.5 332.5c48.6 7.6 97.3 14.9 146 22l2 1v1c0 .7-.3 1-1 1-48.7 53.3-97 107-145 161h-1v-1c-1-61.2-1.7-122.6-2-184 .7 0 1-.3 1-1Z" style="opacity:1"/><path fill="#bfc9d1" d="m1627.5 350.5-142 151h-1c-11-48-22.4-96-34-144 .7 0 1-.3 1-1 58.6-2.5 117.3-4.5 176-6Z" style="opacity:1"/><path fill="#a7b5cb" d="M1628.5 349.5c61.8 19.5 123.5 39.2 185 59l-61 144-124-201v-2Z" style="opacity:1"/><path fill="#f9ede7" d="M1020.5 351.5v1c-11.1 70-22.5 140-34 210-46.3-47.3-92-95.3-137-144v-1l171-66Z" style="opacity:1"/><path fill="#eee8e4" d="M1020.5 350.5h1c2.4 1.4 5 2.2 8 2.5 56.7 9.4 113.4 18.9 170 28.5l-58 165h-1l-111.5-183a50 50 0 0 0-8.5-11v-2Z" style="opacity:1"/><path fill="#b6c9d9" d="M1627.5 349.5h1v2c-5.9 72-11.5 144-17 216h-1a15042 15042 0 0 0-125-65v-1l142-151v-1Z" style="opacity:1"/><path fill="#f1eeed" d="M1020.5 352.5a50 50 0 0 1 8.5 11l111.5 183c-51.4 5-102.7 10.4-154 16 11.5-70 22.9-140 34-210Z" style="opacity:1"/><path fill="#a9c1d6" d="m1628.5 351.5 124 201v1h-1a14936 14936 0 0 0-140 14c5.5-72 11.1-144 17-216Z" style="opacity:1"/><path fill="#db867a" d="M-.5 353.5c28.9 22 57.9 43.6 87 65l-1 2-86 52v-119Z" style="opacity:1"/><path fill="#cdd8df" d="M1450.5 357.5c11.6 48 23 96 34 144l-52.5 6c-6.2.4-12.5.4-19 0a48.9 48.9 0 0 1-12 3l-1-2c-3 1.6-6.4 2.6-10 3-6.5.3-13.2.3-20 0-.3 1.8-1 2.1-2 1a1083 1083 0 0 1-62.5 6c48-54 96.3-107.7 145-161Z" style="opacity:1"/><path fill="#9ea3c0" d="M1919.5 374.5v87l-15 24-90-77v-1l2-1 103-32Z" style="opacity:1"/><path fill="#fcddcc" d="M761.5 376.5c6.2 50.7 12.5 101.4 19 152a11012 11012 0 0 1-210-135c63.6-6 127.3-11.6 191-17Z" style="opacity:1"/><path fill="#fbe4d7" d="M762.5 375.5c28.5 14 57.5 28 87 42v1a9178.1 9178.1 0 0 0-68 111h-1v-1c-6.5-50.6-12.8-101.3-19-152 .7 0 1-.3 1-1Z" style="opacity:1"/><path fill="#f1ab96" d="M408.5 377.5c-56.4 45.4-113.4 90-171 134a8938 8938 0 0 1 4-100c55.3-11.4 111-22.7 167-34Z" style="opacity:1"/><path fill="#fac7ae" d="M409.5 377.5h1c52.7 5.2 105.4 10.5 158 16v1a4505.4 4505.4 0 0 0-30 111h-1c-42-42.4-84-84.8-126.5-127a5 5 0 0 0-.5 3c-1-1-1.3-2.4-1-4Z" style="opacity:1"/><path fill="#f3b9a6" d="M408.5 377.5h1c-.3 1.6 0 3 1 4 5.4 68.4 11 136.7 17 205a32821 32821 0 0 0-190-74v-1c57.6-44 114.6-88.6 171-134Z" style="opacity:1"/><path fill="#f8c5b1" d="M537.5 505.5c-36.2 27.2-72.5 54.2-109 81h-1a23267 23267 0 0 1-17-205c-.1-1 0-2 .5-3 42.4 42.2 84.6 84.6 126.5 127Z" style="opacity:1"/><path fill="#e3e7ea" d="M1199.5 381.5h1c34.3 45.6 69 91 104 136v2l-163 27 58-165Z" style="opacity:1"/><path fill="#fbd8c7" d="M570.5 393.5a11012 11012 0 0 0 210 135v1c0 .7-.3 1-1 1a47941 47941 0 0 0-241-25c9.6-37.2 19.6-74.2 30-111l2-1Z" style="opacity:1"/><path fill="#a0afcd" d="M1813.5 408.5h1l90 77v1h-1c-50.2 22.3-100.5 44.3-151 66l61-144Z" style="opacity:1"/><path fill="#ea9d8c" d="M240.5 410.5h1v1a8938 8938 0 0 0-4 100v1h-2c-49-31.2-98.3-61.8-148-92v-2c51-2.9 102-5.5 153-8Z" style="opacity:1"/><path fill="#f8f1ee" d="M849.5 418.5c45 48.7 90.7 96.7 137 144 0 .7-.3 1-1 1-30.6 8.2-61.3 16.2-92 24h-1c-14.5-56.3-28.8-112.6-43-169Z" style="opacity:1"/><path fill="#e5978f" d="M86.5 418.5h1v2l78 152c-4.6.5-8.8.5-12.5 0a130 130 0 0 0-18 3c-3.7-1-8-.6-13 1l-3-1-8 2c-1.3-.1-2.6-.4-4-1l-8 2-3-1-8 2-3-1-9 2-3-1-8 2H48a12.4 12.4 0 0 1-9 1c-5 1.6-9.6 2-14 1a12.4 12.4 0 0 1-9 1 45.7 45.7 0 0 1-16.5 2v-28c29.2-45.7 57.8-91.7 86-138l1-2Z" style="opacity:1"/><path fill="#dc8d85" d="M85.5 420.5a7292.5 7292.5 0 0 1-86 138v-86l86-52Z" style="opacity:1"/><path fill="#eaa093" d="M87.5 420.5c49.7 30.2 99 60.8 148 92a1544.6 1544.6 0 0 1-69 60h-1l-78-152Z" style="opacity:1"/><path fill="#f9ede7" d="M849.5 418.5c14.2 56.4 28.5 112.7 43 169a8714.3 8714.3 0 0 0-111-57v-1c22.4-37.2 45.1-74.2 68-111Z" style="opacity:1"/><path fill="#959dbc" d="M1919.5 461.5v32c-4.8-2.6-9.8-5-15-7v-1l15-24Z" style="opacity:1"/><path fill="#98afd4" d="M1903.5 486.5c5.3 29.4 10.6 58.4 16 87v65a19622 19622 0 0 0-167-85v-1c50.5-21.7 100.8-43.7 151-66Z" style="opacity:1"/><path fill="#90a3c8" d="M1903.5 486.5h1c5.2 2 10.2 4.4 15 7v80c-5.4-28.6-10.7-57.6-16-87Z" style="opacity:1"/><path fill="#c9dfec" d="M1484.5 501.5h1v1c-.8.3-1.2 1-1 2-40.2 68.1-80.2 136.5-120 205h-1v-1l-59-188v-2h1c21-1.4 41.8-3.4 62.5-6 1 1.1 1.7.8 2-1 6.8.3 13.5.3 20 0 3.6-.4 7-1.4 10-3l1 2c4.1-.5 8.1-1.5 12-3 6.5.4 12.8.4 19 0l52.5-6Z" style="opacity:1"/><path fill="#b1d0e4" d="M1485.5 502.5a15042 15042 0 0 1 125 65 16389 16389 0 0 1-84 161h-1l-41-224c-.2-1 .2-1.7 1-2Z" style="opacity:1"/><path fill="#b6d5e6" d="m1484.5 504.5 41 224v1c-52-6.4-104-12.4-156-18a7 7 0 0 0-4-1c0-.7-.3-1-1-1 39.8-68.5 79.8-136.9 120-205Z" style="opacity:1"/><path fill="#f5dcd1" d="M538.5 505.5a47941 47941 0 0 1 241 25 44763.8 44763.8 0 0 1-180 174.5 6.9 6.9 0 0 0-3 4.5h-2c0-.7-.3-1-1-1v-1l-55-202Z" style="opacity:1"/><path fill="#f3cfc0" d="M537.5 505.5h1l55 202a47.8 47.8 0 0 1-8-4.5c-52-39-104.3-77.5-157-115.5v-1c36.5-26.8 72.8-53.8 109-81Z" style="opacity:1"/><path fill="#e9a99d" d="M235.5 512.5h2c24.4 53.8 49 107.5 74 161l-145-100v-1c23.6-19.3 46.6-39.3 69-60Z" style="opacity:1"/><path fill="#edb4a7" d="M237.5 512.5a32821 32821 0 0 1 190 74h1v1h-1l-114 87h-1c0-.7-.3-1-1-1-25-53.5-49.6-107.2-74-161Z" style="opacity:1"/><path fill="#dfebf2" d="M1304.5 519.5v1l-89 114c-67.5 21-135.2 41.7-203 62l129-150 163-27Z" style="opacity:1"/><path fill="#cee2ee" d="m1304.5 520.5 59 188c-9.9-4-19.5-8.4-29-13.5l-117-60.5-2 1v-1l89-114Z" style="opacity:1"/><path fill="#eee1da" d="M780.5 529.5h1v3c-9.4 68-18.4 136.3-27 205v1h-1c-52.2-10-104.5-19.6-157-29a6.9 6.9 0 0 1 3-4.5c60.2-58 120.2-116.2 180-174.5.7 0 1-.3 1-1Z" style="opacity:1"/><path fill="#f0ece8" d="M781.5 530.5c37.1 18.7 74.1 37.7 111 57h1v1c-19.8 45-39.2 90.4-58 136h-1c-17.4-64-35-128-53-192v-2Z" style="opacity:1"/><path fill="#ece6e3" d="M781.5 532.5c18 64 35.6 128 53 192-1.4 1.3-2.9 1.3-4.5 0l-1 2c-2 0-4-.3-6-1a73.4 73.4 0 0 1-8 3 23 23 0 0 1-10 0c-5.1 2-10.5 3.4-16 4l-1-1c-1.6 1.6-3.2 2-5 1-5.3 2-10.6 2.7-16 2-3.8 2-8 3-12.5 3 8.6-68.8 17.6-137 27-205Z" style="opacity:1"/><path fill="#e9f1f3" d="M1140.5 546.5h1l-129 150h-1v-1c-9.3-43.8-18-87.8-26-132 .7 0 1-.3 1-1 51.3-5.6 102.6-11 154-16Z" style="opacity:1"/><path fill="#9ec1dc" d="m1751.5 553.5-113 166h-1c0-1-.3-1.8-1-2.5l2-1a52 52 0 0 1-3-6c0-1.6.3-3.2 1-5a13.2 13.2 0 0 1-3-5c-.4-3.3-.4-6.3 0-9-2.4-1.3-2.4-2.3 0-3a7 7 0 0 1-2.5-4.5c-.6-6.3-1.8-12.8-3.5-19.5 0-1.1.4-2.1 1-3a21 21 0 0 1-4-12c0-2 .3-4 1-6a13.2 13.2 0 0 1-3-5c0-1.6.3-3.2 1-5l-2-1c.7-1.8 1-3.8 1-6a14 14 0 0 1-3-4c.9-2 1.2-4.4 1-7a9.7 9.7 0 0 1-3-5c0-1.7.2-3.5 1-5.5a21 21 0 0 1-3-6.5l2-1a25 25 0 0 1-4-8c2.7-.7 2.7-1.3 0-2l1-1c-2.2-6-3.2-12.1-3-18.5 46.7-4.9 93.3-9.6 140-14Z" style="opacity:1"/><path fill="#92b8d8" d="M1751.5 553.5h1c16.8 54.4 33.8 108.7 51 163-54.8 1.5-109.8 2.5-165 3l113-166Z" style="opacity:1"/><path fill="#90afd4" d="M1752.5 553.5a19622 19622 0 0 1 167 85v14l-114 65h-1c0-.7-.3-1-1-1-17.2-54.3-34.2-108.6-51-163Z" style="opacity:1"/><path fill="#edf2f5" d="M985.5 563.5c8 44.2 16.7 88.2 26 132-39.7-35.2-79-70.9-118-107v-1c30.7-7.8 61.4-15.8 92-24Z" style="opacity:1"/><path fill="#a1c6df" d="M1610.5 567.5h1c-.2 6.4.8 12.6 3 18.5l-1 1c2.7.7 2.7 1.3 0 2a25 25 0 0 0 4 8l-2 1a21 21 0 0 0 3 6.5c-.8 2-1 3.8-1 5.5.5 2 1.5 3.7 3 5 .2 2.6-.1 5-1 7a14 14 0 0 0 3 4c0 2.2-.3 4.2-1 6l2 1c-.7 1.8-1 3.4-1 5 .6 1.9 1.6 3.6 3 5-.8 2-1 4-1 6a21 21 0 0 0 4 12c-.6.9-1 1.9-1 3a118 118 0 0 1 3.5 19.5 7 7 0 0 0 2.5 4.5c-2.4.7-2.4 1.7 0 3-.4 2.7-.4 5.7 0 9 .6 1.9 1.6 3.6 3 5-.7 1.8-1 3.4-1 5 .8 2 1.8 4 3 6l-2 1c.8.7 1 1.5 1 2.5h-2a9800 9800 0 0 1-109 9 16389 16389 0 0 0 84-161Z" style="opacity:1"/><path fill="#de9690" d="M165.5 572.5h1v1c-26 33.4-51.7 67-77 101h-1c-29.3-24-59-47.6-89-71v-17a46 46 0 0 0 16.5-2c2.7.8 5.7.5 9-1 4.4 1 9 .6 14-1 2.7.8 5.7.5 9-1h17l8-2 3 1 9-2 3 1 8-2 3 1 8-2c1.4.6 2.7.9 4 1l8-2 3 1c5-1.6 9.3-2 13-1a130 130 0 0 1 18-3c3.7.5 8 .5 12.5 0Z" style="opacity:1"/><path fill="#e1a098" d="m166.5 573.5 145 100c.7 0 1 .3 1 1h-223c25.3-34 51-67.6 77-101Z" style="opacity:1"/><path fill="#e9b9ac" d="m427.5 587.5-45 126-2-1a3260 3260 0 0 0-67-37v-1l114-87Z" style="opacity:1"/><path fill="#ecc5b6" d="M427.5 587.5h1c52.7 38 105 76.5 157 115.5 2.6 1.8 5.2 3.3 8 4.5v1l-33.5 2a71 71 0 0 0-12-1l-41 2a71 71 0 0 1-12-1l-112.5 3 45-126Z" style="opacity:1"/><path fill="#e8eeef" d="M893.5 588.5c39 36.1 78.3 71.8 118 107v1a36124 36124 0 0 0-176 28c18.8-45.6 38.2-91 58-136Z" style="opacity:1"/><path fill="#d68f8a" d="M-.5 603.5c30 23.4 59.7 47 89 71-7.2-.4-14.4-.4-21.5 0l-17-2c-7.2.7-14.5 1-22 1l-11-2c-.7.8-1.5 1-2.5 1a1082 1082 0 0 0-15-35v-34Z" style="opacity:1"/><path fill="#d2e4ef" d="M1215.5 634.5v1c-19.3 75.3-38.3 150.6-57 226-.6.9-1 1.9-1 3h-1c-48.3-54.5-96.1-109.5-143.5-165l37.5 152a10794 10794 0 0 1-156-57c39-33 78.4-65.7 118-98 67.8-20.3 135.5-41 203-62Z" style="opacity:1"/><path fill="#c6ddeb" d="M1363.5 708.5v1l-205 152c18.7-75.4 37.7-150.7 57-226l2-1 117 60.5c9.5 5 19.1 9.6 29 13.5Z" style="opacity:1"/><path fill="#cb8787" d="M-.5 637.5a1082 1082 0 0 1 15 35h-1l-14 5v-40Z" style="opacity:1"/><path fill="#83a7d0" d="M1919.5 652.5v29a8981 8981 0 0 0-37 101 1774 1774 0 0 1-77-65l114-65Z" style="opacity:1"/><path fill="#cc8b8a" d="M88.5 674.5c1.8 70.6 3.2 141.3 4 212-26.6-71-52.6-142.4-78-214 1 0 1.8-.2 2.5-1l11 2c7.5 0 14.8-.3 22-1l17 2c7.1-.4 14.3-.4 21.5 0Z" style="opacity:1"/><path fill="#bd8083" d="M13.5 672.5a689 689 0 0 1-14 50v-45l14-5Z" style="opacity:1"/><path fill="#bf8183" d="M13.5 672.5h1c25.4 71.6 51.4 143 78 214v1c-31-1.2-62-2.5-93-4v-161a689 689 0 0 0 14-50Z" style="opacity:1"/><path fill="#c8918f" d="M88.5 674.5h2c64.6 68.6 129.6 137 195 205-3.1.8-6.5 1.3-10 1.5l-182 6.5h-1v-1c-.8-70.7-2.2-141.4-4-212Z" style="opacity:1"/><path fill="#d89f98" d="M312.5 674.5h1v1c-7.8 65.7-16.2 132-25 199a12 12 0 0 0-1 6c0 .7-.3 1-1 1 .2-1-.2-1.7-1-2-65.4-68-130.4-136.4-195-205h222Z" style="opacity:1"/><path fill="#daaca3" d="M313.5 675.5a3260 3260 0 0 1 67 37 9619 9619 0 0 1-92 162c8.8-67 17.2-133.3 25-199Z" style="opacity:1"/><path fill="#809bc4" d="M1919.5 681.5v86c-12.4 4.8-24.7 9.8-37 15a8981 8981 0 0 1 37-101Z" style="opacity:1"/><path fill="#dfe8ed" d="M1011.5 696.5h1c-39.6 32.3-79 65-118 98h-2c0-.7-.3-1-1-1-19-22.8-37.6-45.8-56-69a36124 36124 0 0 1 176-28Z" style="opacity:1"/><path fill="#c8dfec" d="M1156.5 864.5c-35-4-70-8.4-105-13h-1l-37.5-152c47.4 55.5 95.2 110.5 143.5 165Z" style="opacity:1"/><path fill="#e2bfb3" d="M593.5 708.5c.7 0 1 .3 1 1v1a12695 12695 0 0 0-190 90h-3c-6.3-28.6-13-57.1-20-85.5.6-.4.9-.9 1-1.5l112.5-3c4.1.7 8.1 1 12 1l41-2c3.9 0 7.9.3 12 1l33.5-2Z" style="opacity:1"/><path fill="#dcd1cc" d="M594.5 709.5h1a4158 4158 0 0 0 125 76v1h-1l-107 34h-1c-5.3-36.7-11-73.4-17-110v-1Z" style="opacity:1"/><path fill="#e1d9d4" d="M595.5 709.5h1c52.5 9.4 104.8 19 157 29a1820.9 1820.9 0 0 1-33 47 4158 4158 0 0 1-125-76Z" style="opacity:1"/><path fill="#b4d4e6" d="M1363.5 709.5h1c.7 0 1 .3 1 1a22 22 0 0 0-2 9.5c.9 33.2 1.5 66 2 98.5v1c-69.4 14.8-138.7 29.8-208 45 0-1.1.4-2.1 1-3l205-152Z" style="opacity:1"/><path fill="#ddc5bc" d="M594.5 710.5c6 36.6 11.7 73.3 17 110a25801 25801 0 0 0-207-20 12695 12695 0 0 1 190-90Z" style="opacity:1"/><path fill="#a8cfe4" d="M1365.5 710.5a7 7 0 0 1 4 1c10.4 5.6 20.5 11 30.5 16 1.4-.6 2.7-.9 4-1l1 2h3c4.5 4 8.8 7.3 13 10a70.3 70.3 0 0 1 18 8c1-3.7 1.6-3.4 2 1 1-1.1 1.7-.8 2 1l1-1c4 4.2 8.3 5.8 13 5 1 2.1 2.3 2.8 4 2 .5 1.2 1.3 2 2.5 2.5l-1 1a774.4 774.4 0 0 1 32 15.5c2.4.7 4.9 2 7.5 4l1-2c3.4 2.9 7 4.6 11 5a47 47 0 0 0 4.5 6c-51 10.8-102 21.5-153 32-.5-32.5-1.1-65.3-2-98.5 0-3.6.7-6.7 2-9.5Z" style="opacity:1"/><path fill="#d4aca5" d="m380.5 712.5 2 1c-.1.6-.4 1.1-1 1.5 7 28.4 13.7 56.9 20 85.5l-1 2a9461.5 9461.5 0 0 0-113 78 12 12 0 0 1 1-6 9619 9619 0 0 0 92-162Z" style="opacity:1"/><path fill="#85b4d6" d="M1803.5 716.5c.7 0 1 .3 1 1v1l-157 90.5a8.8 8.8 0 0 1-5 1.5c-1.3-29-3-58-5-87a13 13 0 0 1 1-4c55.2-.5 110.2-1.5 165-3Z" style="opacity:1"/><path fill="#79acd1" d="m1804.5 718.5-58 160v1h-2c-33.7-23-67.7-45.7-102-68v-1c1.8 0 3.5-.5 5-1.5l157-90.5Z" style="opacity:1"/><path fill="#78a6ce" d="M1804.5 717.5h1c25 22.4 50.7 44 77 65v1h-1c-45.2 31.4-90.2 63-135 95l58-160v-1Z" style="opacity:1"/><path fill="#8ebcda" d="M1635.5 719.5h3a13 13 0 0 0-1 4c2 29 3.7 58 5 87-41-8.2-82-16.5-123-25v-2a4870 4870 0 0 0 116-64Z" style="opacity:1"/><path fill="#98c4de" d="M1635.5 719.5a4870 4870 0 0 1-116 64c2.2-18 4.2-36 6-54v-1h1a9800 9800 0 0 0 109-9Z" style="opacity:1"/><path fill="#dee2e4" d="M834.5 724.5h1c18.4 23.2 37 46.2 56 69-45.7-18.1-91.4-36.5-137-55v-1c4.5 0 8.7-1 12.5-3 5.4.7 10.7 0 16-2 1.8 1 3.4.6 5-1l1 1c5.5-.6 10.9-2 16-4 3.5.7 6.8.7 10 0 2.7-.8 5.4-1.8 8-3 2 .7 4 1 6 1l1-2c1.6 1.3 3.1 1.3 4.5 0Z" style="opacity:1"/><path fill="#dcdede" d="M753.5 738.5h1c45.6 18.5 91.3 36.9 137 55 .7 0 1 .3 1 1v1c-57.6-3.2-115-6.2-172-9v-1c11.2-15.5 22.2-31.2 33-47Z" style="opacity:1"/><path fill="#a6cee4" d="M1369.5 711.5c52 5.6 104 11.6 156 18-1.8 18-3.8 36-6 54v2c0 .7-.3 1-1 1a44.9 44.9 0 0 1-4.5-6c-4-.4-7.6-2.1-11-5l-1 2a23 23 0 0 0-7.5-4c-9.6-5-20.3-10.1-32-15.5l1-1c-1.2-.5-2-1.3-2.5-2.5-1.8.8-3 .1-4-2-4.8.8-9-.8-13-5l-1 1c-.3-1.8-1-2.1-2-1-.4-4.4-1-4.7-2-1a70.3 70.3 0 0 0-18-8c-4.2-2.7-8.5-6-13-10h-3l-1-2c-1.3.1-2.6.4-4 1-10-5-20.1-10.4-30.5-16Z" style="opacity:1"/><path fill="#6c8cb4" d="M1919.5 767.5v30l-37-14v-1c12.3-5.2 24.6-10.2 37-15Z" style="opacity:1"/><path fill="#679bc8" d="M1881.5 783.5c4.9 47.6 9.2 95.3 13 143a13 13 0 0 1-1 7c-49-17.9-98-35.5-147-53v-2c44.8-32 89.8-63.6 135-95Z" style="opacity:1"/><path fill="#5f8ebd" d="M1881.5 783.5h1l37 14v132a574 574 0 0 1-23 5h-1c.3-2.9 0-5.6-1-8-3.8-47.7-8.1-95.4-13-143Z" style="opacity:1"/><path fill="#86bad9" d="M1519.5 785.5c41 8.5 82 16.8 123 25v1a13606 13606 0 0 1-150 130c9-51.6 17.6-103.3 26-155 .7 0 1-.3 1-1Z" style="opacity:1"/><path fill="#cfcecf" d="M719.5 786.5c3.9 55 7.5 110 11 165-39.7-43-79-86.3-118-130v-1l107-34Z" style="opacity:1"/><path fill="#c4cdd3" d="M719.5 786.5h1c38 56.8 75.6 113.8 113 171-16.8-.4-33.5-1.4-50-3-.6.2-1 .5-1.5 1l-50-4c-.4.2-.6.6-.5 1h-1v-1c-3.5-55-7.1-110-11-165Z" style="opacity:1"/><path fill="#cdd7de" d="M720.5 786.5c57 2.8 114.4 5.8 172 9v2c-19 53.9-38.3 107.6-58 161 0-.7-.3-1-1-1-37.4-57.2-75-114.2-113-171Z" style="opacity:1"/><path fill="#91c3dd" d="M1518.5 786.5c-8.4 51.7-17 103.4-26 155v2c-41.3.7-82.7 1-124 1v-1c-.8-41.3-1.8-82.7-3-124v-1c51-10.5 102-21.2 153-32Z" style="opacity:1"/><path fill="#c1dae9" d="M892.5 794.5h2a10794 10794 0 0 0 156 57h1c-11.6 45.2-23 90.6-34 136h-3a7033 7033 0 0 0-122-190v-3Z" style="opacity:1"/><path fill="#bed3e2" d="M892.5 797.5a7033 7033 0 0 1 122 190c-57-9.3-114-18.5-171-27.5-3-.7-6-.6-9 .5v-2c19.7-53.4 39-107.1 58-161Z" style="opacity:1"/><path fill="#bb9e9f" d="M401.5 800.5h1v2c28.2 77.3 56.2 154.6 84 232 0 .4-.1.8-.5 1-62-12.3-124.3-24.3-186.5-36v-1c34.2-65 67.8-130.3 101-196l1-2Z" style="opacity:1"/><path fill="#c49e9c" d="M400.5 802.5c-33.2 65.7-66.8 131-101 196h-1c-3.7-38.7-7.7-77.4-12-116v-1c.7 0 1-.3 1-1 37.5-26.3 75.2-52.3 113-78Z" style="opacity:1"/><path fill="#c0abaa" d="M402.5 802.5c49 54.7 97.4 110 145 166a2882 2882 0 0 1-59 67l-2-1c-27.8-77.4-55.8-154.7-84-232Z" style="opacity:1"/><path fill="#64a5cd" d="M1642.5 811.5c34.3 22.3 68.3 45 102 68-20.8 51.8-41.8 103.4-63 155-1 .2-1.7-.2-2-1a18340 18340 0 0 0-37-222Z" style="opacity:1"/><path fill="#6caad0" d="M1642.5 811.5a18340 18340 0 0 1 37 222c-62.5-29.7-124.8-59.7-187-90v-2a13606 13606 0 0 0 150-130Z" style="opacity:1"/><path fill="#a4cce3" d="M1365.5 819.5c1.2 41.3 2.2 82.7 3 124-2.2.3-4-.3-5.5-2l-1 1a19 19 0 0 1-6-4l-1 1a70 70 0 0 1-10-5c-2 .8-3.7.1-5-2-2.3.9-4.3.2-6-2l-1 1a505.1 505.1 0 0 1-31-13l-1 1a24.2 24.2 0 0 0-10-4c-3.6-1.1-7-2.8-10-5l-1 1a90.4 90.4 0 0 1-12-6c-3.8 0-7.5-1.4-11-4-1 1.1-1.7.8-2-1l-1 1-5-3-1 1a24.2 24.2 0 0 0-10-4c-2.6-1-4.9-2.4-7-4l-1 1-15-7c-3.8 0-7.5-1.4-11-4-1 1.1-1.7.8-2-1l-1 1a392.6 392.6 0 0 0-43.5-16v-1c69.3-15.2 138.6-30.2 208-45Z" style="opacity:1"/><path fill="#c4bec1" d="M612.5 821.5c39 43.7 78.3 87 118 130v2a50267 50267 0 0 1-182 15c20.6-49.4 42-98.4 64-147Z" style="opacity:1"/><path fill="#b5d4e6" d="M1051.5 851.5c35 4.6 70 9 105 13h1v1c-47 40.3-93.6 81-140 122 11-45.4 22.4-90.8 34-136Z" style="opacity:1"/><path fill="#9fc6df" d="M1157.5 865.5c14.2 4.2 28.7 9.6 43.5 16l1-1c.3 1.8 1 2.1 2 1 3.5 2.6 7.2 4 11 4l15 7 1-1c2.1 1.6 4.4 3 7 4 3.3.5 6.7 1.8 10 4l1-1 5 3 1-1c.3 1.8 1 2.1 2 1 3.5 2.6 7.2 4 11 4 4.2 2.4 8.2 4.4 12 6l1-1c3 2.2 6.4 3.9 10 5 3.3.5 6.7 1.8 10 4l1-1c10.5 4.8 20.8 9.1 31 13l1-1c1.7 2.2 3.7 2.9 6 2 1.3 2.1 3 2.8 5 2a70 70 0 0 0 10 5l1-1a19 19 0 0 0 6 4l1-1a5.8 5.8 0 0 0 5.5 2v2l-232 88c-1 .2-1.7-.2-2-1a9.6 9.6 0 0 0 2.5-7c6.5-53.4 13.3-106.8 20.5-160Z" style="opacity:1"/><path fill="#a6cae1" d="M1157.5 865.5c-7.2 53.2-14 106.6-20.5 160 0 2.9-.8 5.2-2.5 7a8853 8853 0 0 1-114-43.5c-1.3-.7-2.3-.6-3 .5-.7 0-1-.3-1-1v-1h1c46.4-41 93-81.7 140-122Z" style="opacity:1"/><path fill="#b8888a" d="M285.5 879.5c.8.3 1.2 1 1 2v1a4151 4151 0 0 0-111 106h-1a3076 3076 0 0 1-81-101l182-6.5c3.5-.2 6.9-.7 10-1.5Z" style="opacity:1"/><path fill="#5397c5" d="M1744.5 879.5h2v1l82 79a5063.6 5063.6 0 0 1-147 75c21.2-51.6 42.2-103.2 63-155Z" style="opacity:1"/><path fill="#5995c5" d="M1746.5 880.5c49 17.5 98 35.1 147 53a13 13 0 0 0 1-7c1 2.4 1.3 5.1 1 8v1c-22 8.2-44 16.2-66 24h-1l-82-79Z" style="opacity:1"/><path fill="#b58a8f" d="M286.5 882.5c4.3 38.6 8.3 77.3 12 116-41-3.2-82-6.5-123-10a4151 4151 0 0 1 111-106Z" style="opacity:1"/><path fill="#ad737c" d="M-.5 883.5c31 1.5 62 2.8 93 4a2407 2407 0 0 1-93 68v-72Z" style="opacity:1"/><path fill="#aa757e" d="M92.5 887.5h1a3076 3076 0 0 0 81 101v1H-.5v-34a2407 2407 0 0 0 93-68Z" style="opacity:1"/><path fill="#477aac" d="M1919.5 929.5v17c-8-3.6-15.7-7.6-23-12a574 574 0 0 0 23-5Z" style="opacity:1"/><path fill="#397bb4" d="M1895.5 934.5h1c7.3 4.4 15 8.4 23 12v76c-9-29.6-17-58.6-24-87v-1Z" style="opacity:1"/><path fill="#4284bb" d="M1895.5 935.5c7 28.4 15 57.4 24 87v48l-90-109v-2c22-7.8 44-15.8 66-24Z" style="opacity:1"/><path fill="#cdbbb6" d="M402.5 800.5h2c68.8 6.4 137.8 13 207 20h1v1c-22 48.6-43.4 97.6-64 147h-1c-47.6-56-96-111.3-145-166v-2Z" style="opacity:1"/><path fill="#73aed2" d="m1492.5 943.5 17 136h-21a11496 11496 0 0 0-120-134v-1c41.3 0 82.7-.3 124-1Z" style="opacity:1"/><path fill="#5ba0ca" d="M1492.5 943.5c62.2 30.3 124.5 60.3 187 90 .3.8 1 1.2 2 1 0 .7-.3 1-1 1-34.2 14-67.8 28.6-101 44h-70l-17-136Z" style="opacity:1"/><path fill="#85b5d6" d="M1368.5 945.5c-8.5 44.7-17.1 89.4-26 134h-137a2459 2459 0 0 0-69-45v-1l232-88Z" style="opacity:1"/><path fill="#71a9d0" d="M1368.5 945.5c40.3 44.3 80.3 89 120 134h-146c8.9-44.6 17.5-89.3 26-134Z" style="opacity:1"/><path fill="#b0c0cf" d="M833.5 957.5c.7 0 1 .3 1 1v2c3.6 39.6 6.6 79.3 9 119h-12c-33.1-41.9-66.4-83.6-100-125v-2c0-.4.1-.8.5-1l50 4c.4-.5 1-.8 1.5-1 16.5 1.6 33.2 2.6 50 3Z" style="opacity:1"/><path fill="#a9adbd" d="M730.5 952.5h1v2c-5.3 41.8-10 83.5-14 125h-66l79-126v-1Z" style="opacity:1"/><path fill="#b1b1ba" d="m730.5 953.5-79 126h-43a8859 8859 0 0 0-60-111 50267 50267 0 0 0 182-15Z" style="opacity:1"/><path fill="#a8b4c7" d="M731.5 954.5c33.6 41.4 66.9 83.1 100 125h-114c4-41.5 8.7-83.2 14-125Z" style="opacity:1"/><path fill="#abc3d8" d="M1014.5 987.5h2v1a15871 15871 0 0 0-145 91h-28c-2.4-39.7-5.4-79.4-9-119 3-1 6-1.2 9-.5 57 9 114 18.2 171 27.5Z" style="opacity:1"/><path fill="#3c87bd" d="M1828.5 959.5h1v2c-1.1 7.4-2.1 15.2-3 23.5l1 3-2 8 1 3-2 9 1 3-2 8 1 3a24.5 24.5 0 0 0-1 13 112 112 0 0 0-3 18c.9 3.4.5 7-1 11 .3 4.9.3 10 0 15.5h-169l30-44c.7 0 1-.3 1-1 49.5-24.2 98.5-49.2 147-75Z" style="opacity:1"/><path fill="#357cb7" d="m1829.5 961.5 90 109v9h-100c.3-5.4.3-10.6 0-15.5a18 18 0 0 0 1-11 112 112 0 0 1 3-18c-.9-4.1-.5-8.4 1-13l-1-3 2-8-1-3 2-9-1-3 2-8-1-3c.9-8.3 1.9-16.1 3-23.5Z" style="opacity:1"/><path fill="#aea3ac" d="M547.5 968.5h1a8859 8859 0 0 1 60 111h-44a2106 2106 0 0 0-76-43v-1c20-22 39.7-44.4 59-67Z" style="opacity:1"/><path fill="#a77c88" d="M174.5 988.5h1c41 3.5 82 6.8 123 10h1v1c-8 26.4-15.3 53-22 80h-40l-63-90v-1Z" style="opacity:1"/><path fill="#9bbeda" d="M1134.5 1032.5c.3.8 1 1.2 2 1v1c-14 14.2-28.2 28.2-42.5 42l-1.5 3h-39a3028.9 3028.9 0 0 1-36-90c.8-1 1.8-1.2 3-.5 38 14.8 76 29.3 114 43.5Z" style="opacity:1"/><path fill="#9f6c7b" d="M-.5 989.5h174c-17 30.5-34 60-51 88.5.6.4.9.9 1 1.5h-46l-78-57v-33Z" style="opacity:1"/><path fill="#a17181" d="M173.5 989.5h1l63 90h-114c-.1-.6-.4-1.1-1-1.5 17-28.5 34-58 51-88.5Z" style="opacity:1"/><path fill="#aa8993" d="M299.5 999.5c62.2 11.7 124.4 23.7 186.5 36 .4-.2.6-.6.5-1l2 1v1a3947 3947 0 0 0-115 43h-96c6.7-27 14-53.6 22-80Z" style="opacity:1"/><path fill="#a2c0da" d="M1016.5 988.5c0 .7.3 1 1 1 12.5 32.6 24.5 62.6 36 90h-182a15871 15871 0 0 1 145-91Z" style="opacity:1"/><path fill="#955c71" d="m-.5 1022.5 78 57h-78v-57Z" style="opacity:1"/><path fill="#8fb1d4" d="M1136.5 1034.5c9 14.5 18 29.5 27 45h-71l1.5-3c14.3-13.8 28.5-27.8 42.5-42Z" style="opacity:1"/><path fill="#84aad1" d="M1136.5 1034.5a2459 2459 0 0 1 69 45h-42c-9-15.5-18-30.5-27-45Z" style="opacity:1"/><path fill="#a58896" d="M488.5 1036.5c-.9 14.3-1.2 28.6-1 43h-114a3947 3947 0 0 1 115-43Z" style="opacity:1"/><path fill="#a996a5" d="M488.5 1036.5a2106 2106 0 0 1 76 43h-77c-.2-14.4.1-28.7 1-43Z" style="opacity:1"/><path fill="#4e92c3" d="m1680.5 1035.5-30 44h-71c33.2-15.4 66.8-30 101-44Z" style="opacity:1"/></svg>