<?xml version="1.0" encoding="UTF-8" standalone="no"?>
<svg width="255pt" height="204pt" viewBox="0 0 255 204" version="1.1" xmlns="http://www.w3.org/2000/svg" xmlns:xlink="http://www.w3.org/1999/xlink" preserveAspectRatio="xMidYMid">
    <g>
        <path d="M 126.027344 180.09375 C 125.1875 180.09375 124.351562 179.855469 123.59375 179.457031 L 115.945312 174.914062 C 114.789062 174.277344 115.347656 174.039062 115.746094 173.917969 C 117.261719 173.398438 117.578125 173.28125 119.210938 172.324219 C 119.371094 172.246094 119.609375 172.285156 119.769531 172.363281 L 125.667969 175.871094 C 125.867188 175.988281 126.183594 175.988281 126.382812 175.871094 L 149.414062 162.5625 C 149.613281 162.441406 149.773438 162.203125 149.773438 161.925781 L 149.773438 135.347656 C 149.773438 135.070312 149.652344 134.832031 149.414062 134.710938 L 126.382812 121.445312 C 126.183594 121.324219 125.90625 121.324219 125.667969 121.445312 L 102.636719 134.710938 C 102.398438 134.832031 102.277344 135.109375 102.277344 135.347656 L 102.277344 161.925781 C 102.277344 162.164062 102.4375 162.402344 102.636719 162.523438 L 108.933594 166.148438 C 112.359375 167.863281 114.472656 165.828125 114.472656 163.835938 L 114.472656 137.582031 C 114.472656 137.222656 114.75 136.902344 115.148438 136.902344 L 118.058594 136.902344 C 118.414062 136.902344 118.734375 137.183594 118.734375 137.582031 L 118.734375 163.835938 C 118.734375 168.417969 116.265625 171.007812 111.921875 171.007812 C 110.605469 171.007812 109.53125 171.007812 106.621094 169.574219 L 100.566406 166.109375 C 99.089844 165.230469 98.136719 163.636719 98.136719 161.925781 L 98.136719 135.347656 C 98.136719 133.636719 99.050781 132.003906 100.566406 131.164062 L 123.59375 117.859375 C 125.070312 117.019531 126.980469 117.019531 128.417969 117.859375 L 151.445312 131.164062 C 152.921875 132.042969 153.875 133.636719 153.875 135.347656 L 153.875 161.925781 C 153.875 163.636719 152.960938 165.273438 151.445312 166.109375 L 128.417969 179.417969 C 127.738281 179.855469 126.902344 180.09375 126.027344 180.09375 Z M 144.632812 153.875 C 144.632812 148.894531 141.285156 147.582031 134.195312 146.625 C 127.023438 145.667969 126.304688 145.191406 126.304688 143.515625 C 126.304688 142.121094 126.902344 140.289062 132.203125 140.289062 C 136.941406 140.289062 138.695312 141.324219 139.414062 144.511719 C 139.492188 144.832031 139.730469 145.03125 140.050781 145.03125 L 143.039062 145.03125 C 143.238281 145.03125 143.398438 144.953125 143.515625 144.832031 C 143.636719 144.671875 143.714844 144.511719 143.675781 144.3125 C 143.199219 138.816406 139.574219 136.265625 132.203125 136.265625 C 125.628906 136.265625 121.722656 139.054688 121.722656 143.675781 C 121.722656 148.738281 125.628906 150.089844 131.921875 150.730469 C 139.453125 151.484375 140.050781 152.5625 140.050781 154.035156 C 140.050781 156.625 137.980469 157.703125 133.117188 157.703125 C 127.023438 157.703125 125.667969 156.1875 125.230469 153.160156 C 125.1875 152.839844 124.910156 152.601562 124.550781 152.601562 L 121.5625 152.601562 C 121.203125 152.601562 120.886719 152.878906 120.886719 153.277344 C 120.886719 157.144531 122.996094 161.765625 133.078125 161.765625 C 140.449219 161.765625 144.632812 158.898438 144.632812 153.875 Z M 166.347656 133.914062 C 166.347656 136.34375 164.355469 138.335938 161.925781 138.335938 C 159.496094 138.335938 157.503906 136.34375 157.503906 133.914062 C 157.503906 131.40625 159.574219 129.492188 161.925781 129.492188 C 164.316406 129.453125 166.347656 131.40625 166.347656 133.914062 Z M 165.628906 133.914062 C 165.628906 131.84375 163.957031 130.210938 161.886719 130.210938 C 159.851562 130.210938 158.179688 131.84375 158.179688 133.914062 C 158.179688 135.988281 159.851562 137.660156 161.886719 137.660156 C 163.957031 137.621094 165.628906 135.945312 165.628906 133.914062 Z M 163.835938 136.386719 L 162.800781 136.386719 C 162.761719 136.144531 162.601562 134.871094 162.601562 134.832031 C 162.523438 134.550781 162.441406 134.394531 162.085938 134.394531 L 161.207031 134.394531 L 161.207031 136.386719 L 160.25 136.386719 L 160.25 131.40625 L 161.964844 131.40625 C 162.5625 131.40625 163.71875 131.40625 163.71875 132.71875 C 163.71875 133.636719 163.121094 133.835938 162.761719 133.953125 C 163.4375 133.996094 163.480469 134.433594 163.597656 135.070312 C 163.636719 135.46875 163.71875 136.144531 163.835938 136.386719 Z M 162.722656 132.878906 C 162.722656 132.203125 162.242188 132.203125 162.003906 132.203125 L 161.207031 132.203125 L 161.207031 133.597656 L 161.964844 133.597656 C 162.601562 133.597656 162.722656 133.15625 162.722656 132.878906 Z M 54.707031 76.101562 C 54.707031 75.027344 54.148438 74.070312 53.230469 73.550781 L 28.808594 59.488281 C 28.410156 59.246094 27.929688 59.128906 27.453125 59.089844 L 27.214844 59.089844 C 26.734375 59.089844 26.296875 59.246094 25.859375 59.488281 L 1.472656 73.550781 C 0.558594 74.070312 0 75.066406 0 76.101562 L 0.0390625 113.953125 C 0.0390625 114.472656 0.320312 114.949219 0.757812 115.226562 C 1.195312 115.507812 1.753906 115.507812 2.230469 115.226562 L 16.734375 106.902344 C 17.652344 106.34375 18.207031 105.386719 18.207031 104.351562 L 18.207031 86.660156 C 18.207031 85.625 18.765625 84.628906 19.683594 84.109375 L 25.859375 80.5625 C 26.335938 80.285156 26.816406 80.164062 27.332031 80.164062 C 27.851562 80.164062 28.367188 80.285156 28.808594 80.5625 L 34.984375 84.109375 C 35.898438 84.628906 36.457031 85.625 36.457031 86.660156 L 36.457031 104.351562 C 36.457031 105.386719 37.015625 106.382812 37.929688 106.902344 L 52.433594 115.226562 C 52.871094 115.507812 53.46875 115.507812 53.910156 115.226562 C 54.347656 114.988281 54.625 114.472656 54.625 113.953125 Z M 188.261719 34.785156 L 188.261719 105.066406 C 188.261719 106.105469 187.703125 107.101562 186.789062 107.617188 L 162.363281 121.722656 C 161.445312 122.242188 160.332031 122.242188 159.414062 121.722656 L 134.992188 107.617188 C 134.074219 107.101562 133.515625 106.105469 133.515625 105.066406 L 133.515625 76.859375 C 133.515625 75.824219 134.074219 74.828125 134.992188 74.308594 L 159.414062 60.203125 C 160.332031 59.6875 161.445312 59.6875 162.363281 60.203125 L 168.460938 63.710938 C 169.136719 64.109375 170.011719 63.589844 170.011719 62.832031 L 170.011719 25.378906 C 170.011719 24.265625 171.207031 23.546875 172.203125 24.105469 L 186.746094 32.234375 C 187.664062 32.710938 188.261719 33.707031 188.261719 34.785156 Z M 169.933594 86.140625 C 169.933594 85.863281 169.773438 85.625 169.574219 85.503906 L 161.207031 80.644531 C 160.96875 80.523438 160.691406 80.523438 160.449219 80.644531 L 152.082031 85.503906 C 151.84375 85.625 151.726562 85.863281 151.726562 86.140625 L 151.726562 95.824219 C 151.726562 96.101562 151.882812 96.34375 152.082031 96.460938 L 160.449219 101.28125 C 160.691406 101.402344 160.96875 101.402344 161.167969 101.28125 L 169.535156 96.460938 C 169.773438 96.34375 169.894531 96.101562 169.894531 95.824219 L 169.894531 86.140625 Z M 253.527344 85.863281 C 254.441406 85.34375 255 84.347656 255 83.3125 L 255 76.5 C 255 75.464844 254.441406 74.46875 253.527344 73.949219 L 229.261719 59.84375 C 228.34375 59.328125 227.230469 59.328125 226.3125 59.84375 L 201.886719 73.949219 C 200.972656 74.46875 200.414062 75.464844 200.414062 76.5 L 200.414062 104.710938 C 200.414062 105.785156 200.972656 106.742188 201.886719 107.257812 L 226.152344 121.085938 C 227.03125 121.601562 228.144531 121.601562 229.0625 121.085938 L 243.722656 112.917969 C 244.71875 112.359375 244.71875 110.925781 243.722656 110.367188 L 219.140625 96.261719 C 218.664062 95.984375 218.382812 95.503906 218.382812 94.988281 L 218.382812 86.140625 C 218.382812 85.625 218.664062 85.144531 219.140625 84.867188 L 226.789062 80.445312 C 227.230469 80.164062 227.828125 80.164062 228.265625 80.445312 L 235.914062 84.867188 C 236.351562 85.144531 236.671875 85.625 236.671875 86.140625 L 236.671875 93.074219 C 236.671875 94.191406 237.90625 94.90625 238.902344 94.351562 Z M 222.726562 87.257812 C 222.566406 87.378906 222.449219 87.535156 222.449219 87.734375 L 222.449219 93.15625 C 222.449219 93.355469 222.566406 93.554688 222.726562 93.632812 L 227.429688 96.34375 C 227.585938 96.460938 227.828125 96.460938 227.984375 96.34375 L 232.6875 93.632812 C 232.847656 93.511719 232.964844 93.355469 232.964844 93.15625 L 232.964844 87.734375 C 232.964844 87.535156 232.847656 87.335938 232.6875 87.257812 L 227.984375 84.546875 C 227.828125 84.429688 227.585938 84.429688 227.429688 84.546875 Z M 121.445312 104.589844 L 121.445312 76.539062 C 121.445312 75.503906 120.804688 74.507812 119.890625 73.988281 L 95.546875 59.964844 C 94.707031 59.488281 93.554688 59.40625 92.597656 59.964844 L 68.253906 73.988281 C 67.335938 74.507812 66.699219 75.464844 66.699219 76.539062 L 66.699219 104.589844 C 66.699219 105.707031 67.457031 106.660156 68.292969 107.140625 L 92.675781 121.164062 C 93.632812 121.722656 94.75 121.683594 95.625 121.164062 L 119.929688 107.140625 C 120.648438 106.742188 121.164062 106.0625 121.363281 105.265625 C 121.402344 105.066406 121.445312 104.828125 121.445312 104.589844 Z M 91.839844 54.824219 L 91.519531 55.023438 L 91.960938 55.023438 Z M 122.199219 106.703125 L 122.042969 106.421875 L 122.042969 106.78125 Z M 122.199219 106.703125 " fill="#539E43"></path>
    </g>
</svg>
